<?xml version="1.0" standalone="no"?>
<!DOCTYPE svg PUBLIC "-//W3C//DTD SVG 1.1//EN" "http://www.w3.org/Graphics/SVG/1.1/DTD/svg11.dtd" >
<svg xmlns="http://www.w3.org/2000/svg">
<metadata></metadata>
<defs>
<font id="desyrelregular" horiz-adv-x="1396" >
<font-face units-per-em="2048" ascent="1638" descent="-410" />
<missing-glyph horiz-adv-x="659" />
<glyph horiz-adv-x="0" />
<glyph unicode="&#xd;" horiz-adv-x="1024" />
<glyph unicode=" "  horiz-adv-x="659" />
<glyph unicode="&#x09;" horiz-adv-x="659" />
<glyph unicode="&#xa0;" horiz-adv-x="659" />
<glyph unicode="!" horiz-adv-x="604" d="M295 39q0 -47 29 -82q16 -23 38.5 -33t45.5 -10q35 0 67 27q41 35 41 96q0 29 -9.5 54.5t-27.5 43.5l-2 2q-16 12 -31.5 19.5t-37.5 7.5q-37 0 -70 -27q-43 -41 -43 -98zM362 444q0 -41 25 -62.5t55 -21.5q29 0 53.5 20.5t26.5 63.5q8 84 16.5 177.5t13.5 185.5t9 178 t8 154q13 18 13 57v39q0 25 -4 41v-2q-8 41 -30 60.5t-48 19.5q-33 0 -57.5 -21.5t-26.5 -68.5q-6 -53 -11.5 -137.5t-11.5 -182.5q-6 -121 -13 -249t-18 -240v-11z" />
<glyph unicode="&#x22;" horiz-adv-x="456" d="M61 1126q0 -23 13 -36v-66q0 -29 -1 -57.5t-1 -53.5q0 -39 22.5 -56t50.5 -17q29 0 51.5 18.5t22.5 54.5v52q0 20 1 39.5t1 42.5v122q-2 37 -21.5 52.5t-41.5 19.5q-55 0 -80 -53q-6 -14 -11.5 -29.5t-5.5 -32.5zM303 1122q0 -18 12 -37v-65q0 -29 -1 -57.5t-1 -53.5 q0 -39 22.5 -55t51.5 -16t51.5 17t22.5 54v52q0 20 1 40.5t1 40.5v123q-2 37 -21.5 52.5t-42.5 19.5q-55 0 -80 -53q-6 -14 -11 -29.5t-5 -32.5z" />
<glyph unicode="#" horiz-adv-x="1026" d="M100 217q0 -37 25 -56.5t45 -29.5q14 -8 41 -8q20 0 40.5 8t33.5 25q4 0 10 1t12 1q-2 -6 -3 -10.5t-1 -10.5q-8 -49 -14 -96t-6 -82v-22q0 -10 3 -24.5t11 -28t22.5 -24t38.5 -12.5h15q51 0 80 39q10 16 17 35t7 37q0 31 -18 55q0 33 5 73t15 81q16 2 33 2h35h55 q-4 -20 -4 -27q-8 -49 -13 -94t-5 -84v-28q2 -23 16 -53.5t61 -33.5h7q53 0 86 39q10 16 16 33t6 35q0 33 -18 57q0 35 5 75t15 81q20 -2 35 -2q16 0 33 -2q6 0 11 -1t11 -1q18 -8 31.5 -10t28.5 -2q41 0 61.5 27.5t20.5 58.5q0 35 -20.5 62.5t-65.5 27.5q-6 0 -16.5 1 t-22.5 3q-16 2 -33 4t-39 4q4 29 10 54.5t12 54.5q4 25 10.5 49t10.5 53q20 -2 39.5 -3t40.5 -5l1 -1t3 -1q14 -4 26.5 -8.5t30.5 -4.5q37 0 60.5 23.5t23.5 60.5q0 29 -19.5 57.5t-68.5 37.5h2q-20 4 -44.5 6t-61.5 4q10 49 18 108.5t8 100.5q0 37 -25.5 60.5t-56.5 23.5 q-29 0 -54 -15.5t-32 -60.5q-8 -53 -16 -110.5t-18 -108.5h-125q6 29 11 61.5t11 67.5v-2q4 18 5 37.5t5 40.5v10q0 29 -23.5 54.5t-55.5 25.5q-37 0 -59.5 -14.5t-28.5 -59.5q-8 -47 -17.5 -108.5t-19.5 -118.5q-55 -2 -94 -8.5t-80 -22.5h2q-29 -8 -49.5 -26.5 t-20.5 -53.5q0 -37 21.5 -57.5t48.5 -32.5q18 -10 47 -10q49 0 80 39q2 0 4 1t6 1q-4 -16 -4 -23q-16 -92 -35 -186q-53 -2 -98 -8.5t-72 -16.5v2q-29 -8 -48.5 -31.5t-19.5 -58.5zM518 336q10 53 19.5 106.5t19.5 104.5h55h31q14 0 31 2q-10 -53 -19.5 -108.5t-19.5 -104.5 h-117z" />
<glyph unicode="$" horiz-adv-x="899" d="M158 -45q0 -23 11 -42t38 -30q29 -14 56.5 -18t49.5 -4h17q39 6 82 22v-16q0 -16 1 -26.5t3 -18.5q18 -94 100 -103q4 0 9 -1t10 -1q27 0 42 11.5t25 27.5q10 25 10 37q0 23 -20 49q-10 10 -12 17q-8 12 -15 18q-4 10 -4 21v22v23q0 10 4 20q37 23 71 54.5t62 62.5 q121 125 121 252q0 55 -25.5 92t-78.5 72h2q-18 12 -45 26.5t-54 24.5q6 49 12.5 115.5t10.5 119.5q59 16 117.5 28.5t95.5 14.5q31 -27 72 -26q29 0 52.5 16t29.5 39v-2q4 10 5 17.5t1 15.5q0 18 -7.5 35.5t-23.5 29.5q-16 14 -44 23.5t-60 9.5h-11q-47 0 -102 -9t-109 -24 q4 37 6.5 76t2.5 68q0 41 -25 60.5t-53 19.5q-29 0 -52.5 -22t-25.5 -58.5t-5 -88t-9 -106.5q-10 -4 -22.5 -8t-24.5 -8q-47 -16 -92.5 -34t-73.5 -34q-55 -35 -82 -77t-27 -83q2 -47 32 -85t93 -64q12 -6 30.5 -14.5t40 -17.5t43 -18.5t38.5 -15.5q-2 -20 -4.5 -38.5 t-4.5 -39.5q-10 -84 -19 -165.5t-9 -143.5q-23 -12 -48.5 -21t-41.5 -14h-9q-10 0 -21 5.5t-24 11.5q-10 4 -16 4h-14q-23 0 -43.5 -13.5t-28.5 -31.5q-10 -25 -10 -39zM352 664q2 8 23 24q16 10 42.5 20.5t53.5 20.5v-2q4 0 12 4q-2 -12 -3 -25.5t-3 -23.5q-4 -23 -5 -43.5 t-3 -36.5q-23 10 -51.5 22.5t-40.5 18.5q-10 4 -17.5 9t-7.5 12zM578 170q2 29 6 61.5t8 65.5q2 20 4 39.5t4 42.5q18 -8 37 -23l4 -4q12 -10 16.5 -15.5t4.5 -19.5v-6q0 -33 -25 -69.5t-59 -71.5z" />
<glyph unicode="%" horiz-adv-x="1400" d="M137 500q0 -94 55.5 -139.5t147.5 -45.5h18t21 2q4 0 6 1t6 1q41 4 88 11.5t82 17.5q66 23 106 70t40 137v23q0 12 -2 24q-8 78 -40 150.5t-110 128.5q2 2 3 4t3 4q12 14 12 35q0 27 -26 47q-16 16 -51 16q-31 0 -58 -16q-43 -29 -90 -72t-90 -98.5t-74.5 -120 t-42.5 -135.5q-2 -12 -3 -23.5t-1 -21.5zM293 514v10q6 45 21.5 84t37 71t45 55.5t41.5 39.5q35 -16 55.5 -40.5t32 -52.5t16.5 -57.5t9 -54.5v-2q2 -8 2 -18q0 -45 -45 -57q-18 -6 -46 -10.5t-54 -8.5q-10 -2 -23 -2q-10 0 -18 -2h-15q-59 0 -59 45zM446 -102v-7 q2 -31 19.5 -50t42.5 -25q4 0 9 -1t9 -1q25 0 45.5 15t26.5 50q2 18 23.5 60.5t56.5 99.5t79 127t91 143q51 82 104.5 166t97.5 157t74.5 130t36.5 88l-2 -2q4 12 5 19t1 16q0 29 -14 48t-37 30q-10 4 -20 4q-47 0 -80 -45.5t-33 -108.5q-39 -66 -93 -149.5t-114 -178.5 q-59 -90 -118.5 -181t-105.5 -171t-75 -141.5t-29 -91.5zM831 12q0 -94 55.5 -139t147.5 -45h19q10 0 20 2q4 0 6 1t6 1q41 4 88.5 11t81.5 18q66 23 106 69.5t40 137.5v22q0 13 -2 25q-8 78 -40 151.5t-110 126.5q2 2 3 4t3 4q12 14 13 37q0 25 -27 47q-14 14 -51 15 q-14 0 -27.5 -3t-29.5 -14q-43 -29 -90.5 -71.5t-90.5 -97t-74.5 -120t-41.5 -137.5q-2 -12 -3.5 -22t-1.5 -23zM987 29v8q6 45 21.5 84t37 70.5t45 55t42.5 40.5q35 -16 55 -41t31.5 -52.5t16.5 -56t9 -53.5v-2q2 -8 2 -21q0 -25 -11 -37t-34 -20q-18 -6 -46 -10t-54 -8 q-10 -2 -23 -2q-10 0 -18 -2h-14q-59 0 -60 47z" />
<glyph unicode="&#x26;" horiz-adv-x="868" d="M76 131q0 -94 74.5 -159.5t236.5 -73.5q-16 -20 -16 -54q0 -12 -4 -24v2q-4 -14 -10.5 -29.5t-6.5 -38.5v-4q0 -45 25.5 -64.5t58.5 -19.5t58.5 19.5t31.5 66.5q0 4 2 9.5t4 9.5l-2 -2q4 16 10.5 34t6.5 41q0 35 -17 52q80 4 153 17t126 46q43 27 43 74q0 12 -5 26.5 t-11 26.5v-2q-10 18 -29 30.5t-41 12.5q-27 0 -51 -18q-33 -20 -94.5 -26.5t-129.5 -6.5q-23 0 -43 1t-40 3q-82 4 -114 20.5t-32 44.5q0 16 4 29q10 31 34 53.5t54 32.5q33 14 63.5 23.5t57.5 19.5q16 6 32.5 10t26.5 9q55 27 56 79v7q0 61 -53 88q-8 4 -17.5 9t-19.5 9 q-23 10 -41.5 19.5t-22.5 25.5v-6q0 2 -1 4t-1 4q0 14 18.5 27.5t55.5 13.5q51 0 80.5 -7t56.5 -17q2 0 2 -3h4q8 -2 29 -2q43 0 72 35q6 12 11 26.5t5 29.5q0 20 -10.5 38.5t-36.5 32.5q-23 14 -52.5 23.5t-64.5 15.5q14 10 23.5 27.5t11.5 42.5q0 6 2 18t6 27q4 16 8 35.5 t9 46.5v2q0 45 -24 66.5t-60 23.5h-11q-33 0 -57.5 -22.5t-24.5 -67.5q0 -10 -2 -19.5t-6 -19.5q-16 -43 -16 -80v-10q0 -23 7 -38t17 -28q-53 -4 -98 -25.5t-76.5 -53t-49 -69.5t-17.5 -77q0 -29 8 -53q8 -20 22.5 -35.5t30.5 -32.5q-10 -4 -19.5 -9t-19.5 -9h2 q-49 -25 -97 -70t-75 -104q-20 -55 -20 -109z" />
<glyph unicode="'" horiz-adv-x="239" d="M57 1126q0 -25 11 -39v-63q0 -29 -1 -57.5t-1 -55.5q0 -37 19 -54t42 -17q27 0 45 18.5t18 52.5v54q0 18 1.5 38.5t1.5 43.5v120q-2 37 -18.5 52.5t-35.5 19.5q-47 0 -67 -51q-6 -16 -10.5 -30.5t-4.5 -31.5z" />
<glyph unicode="(" horiz-adv-x="874" d="M285 289q0 -109 28.5 -203t87 -169t148.5 -127t213 -79q6 -2 12 -2h14q35 0 52.5 17.5t23.5 46.5q0 4 1 8t1 8q0 66 -67 82q-186 51 -271.5 152.5t-85.5 267.5q0 117 41 244t116 255t177.5 253.5t224.5 244.5v-2q25 23 25 57q0 35 -25 58l5 -2q-25 27 -58 26 q-16 0 -31.5 -5t-29.5 -21h2q-111 -115 -219.5 -245t-194.5 -271.5t-138 -291t-52 -302.5z" />
<glyph unicode=")" horiz-adv-x="874" d="M72 -209q0 -31 24 -55l-4 2q25 -29 60 -29q14 0 30.5 6t28.5 23h-2q111 111 219.5 242t193.5 274t138 292.5t53 301.5q0 106 -28.5 200.5t-88 169t-148.5 128t-212 77.5q-6 2 -14 2h-11q-35 0 -53 -16t-22 -45q0 -4 -1.5 -9t-1.5 -9q0 -29 16.5 -50.5t51.5 -29.5h-2 q186 -51 271 -152.5t85 -267.5q0 -117 -41 -244t-114.5 -255t-177 -254t-226.5 -245v2q-25 -25 -24 -59z" />
<glyph unicode="*" horiz-adv-x="620" d="M121 764q0 -18 10 -35q27 -43 78 -43h14q29 4 51.5 22.5t26.5 45.5q10 6 21.5 15t23.5 19q4 4 11.5 9.5t13.5 9.5q-2 -4 -2 -14q-6 -35 -12.5 -73t-6.5 -67q0 -43 23.5 -63.5t56.5 -22.5q31 0 54.5 17.5t31.5 54.5v18q0 23 -12 52q0 12 -1 32.5t-3 40.5q-2 8 -2 25h2v2 q16 -16 33.5 -30.5t29.5 -24.5q10 -23 31.5 -41.5t50.5 -24.5h14q33 0 60 25q20 20 20 45t-18 49q-8 10 -26.5 24.5t-41 27.5t-46 26.5t-44.5 23.5q6 4 13.5 6.5t13.5 6.5h-2q25 10 50.5 17t39.5 13h6q23 0 40 9.5t30 19.5q18 16 25 33.5t7 34.5q0 24 -10 36v-2 q-23 35 -63 35q-10 0 -20.5 -2t-24.5 -6q-23 -10 -70 -40t-86 -54q4 33 12 70.5t17 72.5q2 10 3 18.5t3 16.5v8q0 33 -22.5 51.5t-51.5 18.5q-27 0 -49.5 -13.5t-28.5 -48.5v2q-4 -16 -5 -47.5t-1 -66.5v-84q-12 8 -22 18q-27 18 -55.5 40t-57.5 32q-18 8 -39 8 q-47 0 -65 -37q-12 -16 -13 -43q0 -12 4 -23.5t11 -23.5v2q14 -23 33.5 -32t41.5 -9h23q12 -6 28.5 -13t34.5 -13q4 -4 9 -5q-16 -10 -35 -18t-37 -18q-29 -14 -53.5 -25.5t-36.5 -19.5q-20 -14 -29.5 -33t-9.5 -37z" />
<glyph unicode="+" horiz-adv-x="763" d="M68 610q0 -37 28 -61v2q20 -20 49 -21q25 0 37 11h-2q4 2 9.5 5t9.5 7q10 10 20 10q8 0 20.5 1t28.5 1h29q16 0 37 -2v-102q0 -31 1 -57.5t3 -45.5q4 -35 26.5 -52t45.5 -17h4q29 0 50 17.5t21 49.5v13q-2 14 -3 31.5t-1 37.5v58t4 65h76q23 0 41.5 1t34.5 1 q37 6 54.5 28.5t17.5 45.5v4q0 29 -17.5 50.5t-50.5 21.5h-12q-12 -2 -26.5 -3t-33.5 -1q-12 0 -26.5 1t-30.5 1h-20v26q0 72 -7 103q-16 72 -86 88q-4 0 -8 1t-8 1q-20 0 -34.5 -8.5t-26.5 -20.5h2q-10 -10 -14.5 -23.5t-4.5 -25.5t1 -20.5t7 -16.5v2q2 -10 13 -18 q10 -10 10 -21q2 -8 2 -30v-31q-25 2 -47.5 3t-38.5 1q-88 0 -128 -20.5t-54 -73.5q0 -2 -1 -7.5t-1 -9.5z" />
<glyph unicode="," horiz-adv-x="296" d="M86 -295q0 -23 12.5 -39t28.5 -24q14 -8 31 -9q39 0 57 39q37 78 48 162t11 152v41t-2 34q-2 33 -20 48.5t-41 15.5h-2q-16 0 -34.5 -11.5t-29.5 -37.5q-4 -12 -11 -31.5t-7 -36.5q0 -23 12 -35q0 -18 -2 -46.5t-7 -61.5t-13 -65.5t-21 -59.5q-10 -16 -10 -35z" />
<glyph unicode="-" horiz-adv-x="966" d="M260 301q0 -29 29 -53v2q23 -16 49 -17q23 0 37 9h-2q4 2 9 4t9 6q12 8 21 8q10 2 26 2h39h115q33 0 66.5 -1t64.5 -1q33 0 61.5 1t49.5 1q35 6 51 25t16 39v2q0 25 -17.5 43t-49.5 18h-13q-12 -2 -28 -2h-37q-31 0 -69 1t-77 3q-41 2 -84 2h-77q-35 0 -59.5 -1t-41.5 -5 h2q-72 -12 -88 -74q0 -2 -1 -6t-1 -6z" />
<glyph unicode="." horiz-adv-x="296" d="M88 37q0 -53 33 -81t74 -28q36 1 63 21q23 14 32 36.5t9 47.5t-9 48t-32 38q-27 20 -63 20q-16 0 -35 -5t-31 -15q-41 -33 -41 -82z" />
<glyph unicode="/" horiz-adv-x="1089" d="M162 -139v-15q0 -63 59 -75l-2 2q14 -8 35 -9q23 0 36 12.5t23 43.5q8 37 48 101.5t101.5 148.5t138.5 182t157 201q94 121 188 242.5t170 228t126 191.5t56 134q2 10 2 19v20q0 37 -11 62.5t-38 29.5l2 -2q-10 4 -16 4h-8q-25 0 -44.5 -12t-37.5 -45 q-16 -25 -21.5 -54.5t-5.5 -66.5q-43 -68 -98 -144.5t-117.5 -160.5t-131 -170t-136.5 -172q-90 -115 -174 -221.5t-149.5 -198.5t-106.5 -163.5t-45 -112.5z" />
<glyph unicode="0" horiz-adv-x="1304" d="M168 186q0 -80 25.5 -139t68.5 -102q88 -86 238 -86q43 0 87 6t87 20q76 27 168 47q53 14 105 28.5t95 27.5q167 55 222 166v2q25 45 24 102q0 43 -16.5 90t-44.5 94q-23 35 -51.5 76t-66.5 82t-86 80t-110 68q-41 18 -89 31.5t-97 23.5q12 12 12 31q0 39 -22 55 q-18 12 -36.5 22.5t-35.5 10.5q-27 0 -57 -19q-18 -16 -48 -40.5t-53 -47.5q-20 -4 -35.5 -18.5t-19.5 -36.5q-39 -39 -81 -94.5t-78.5 -123t-64.5 -144t-36 -158.5q-2 -12 -3 -25.5t-1 -28.5zM362 219q0 29 4.5 58.5t16.5 64.5q29 86 83 164t105 131q74 -4 136.5 -17.5 t111.5 -33.5q70 -33 135.5 -96.5t116.5 -145.5q23 -39 23 -72q-1 -20 -7 -32q-12 -27 -40.5 -44.5t-69.5 -33.5q-18 -6 -53 -16.5t-79 -21.5t-91 -22.5t-86 -21.5h2q-12 -4 -23.5 -6t-21.5 -6q-33 -10 -63 -15.5t-52 -5.5q-70 0 -102 33q-20 20 -33 56t-13 83z" />
<glyph unicode="1" horiz-adv-x="704" d="M193 74q0 -23 8 -39l-2 2q20 -66 90 -74h10q29 0 53 19q8 2 19 2q8 0 10 2q18 -18 47 -19q35 0 53 27h33h18q10 0 21 2q43 6 63.5 32.5t20.5 61.5q0 51 -39 72h2q-16 10 -36.5 15t-49.5 5q4 68 12.5 161t17.5 191.5t18 192.5t18 164v10q0 41 -31 72t-72 31q-31 0 -55 -19 q-10 -8 -27.5 -18.5t-36.5 -22.5q-25 -16 -47 -28.5t-35 -20.5h3q-49 -27 -50 -74q0 -29 13 -49q10 -18 28.5 -31.5t40.5 -13.5q4 0 5 1t6 1q16 6 32.5 14.5t30.5 16.5q-6 -49 -14.5 -123t-14.5 -156t-11 -163.5t-5 -145.5q-23 -2 -45.5 -6t-40.5 -12q-33 -10 -47 -32 t-14 -48z" />
<glyph unicode="2" horiz-adv-x="1187" d="M147 47q0 -29 15 -51v2q12 -27 38.5 -46.5t65.5 -19.5h17q76 10 161.5 20.5t173 19t173.5 13.5t163 5q23 0 40.5 1t35.5 -1q31 -25 76 -25q23 0 39 8q35 12 52.5 35.5t21.5 52.5v9q0 37 -26 67.5t-79 34.5q-33 4 -70 4h-77q-104 0 -221 -7t-232 -22q90 72 174 146 t141 139v-2q45 53 71 108.5t26 108.5q0 96 -90 166q-23 16 -72 47t-100 47q-29 10 -96.5 17.5t-139.5 7.5h-39q-16 0 -33 -2q-43 -2 -62.5 -30t-19.5 -56v-4q0 -35 24 -63.5t71 -31.5q25 0 58.5 -2l67 -4t62.5 -5t43 -5h-2q33 -6 60.5 -23.5t43.5 -31.5q25 -18 25 -45 q0 -35 -41 -80q-41 -41 -96 -92t-119.5 -106.5t-134.5 -110t-137 -103.5q-51 -33 -52 -90z" />
<glyph unicode="3" horiz-adv-x="1019" d="M98 -385q0 -27 11 -41v2q10 -29 33.5 -45t54.5 -16q14 0 39 6q82 27 171 66.5t173 91t157.5 113t128.5 130.5q49 61 74 126.5t25 131.5q-2 90 -51.5 162t-151.5 111q-33 10 -60.5 15t-54.5 7q53 39 97 77t73 69q84 88 84 176q0 45 -16 71q-27 47 -88.5 80t-165.5 37h-33 q-106 0 -210.5 -22.5t-172.5 -51.5q-49 -27 -49 -77q0 -31 14 -56q14 -18 36 -31.5t48 -13.5q27 0 49 10q43 23 117 37.5t152 14.5h28q41 -2 57.5 -8.5t16.5 -16.5q0 -16 -27 -47q-29 -29 -69.5 -62.5t-85.5 -67.5t-88 -64.5t-76 -51.5q-29 -20 -43 -42.5t-14 -45.5 q0 -20 8 -37q10 -25 35.5 -43t64.5 -18h14q8 0 17.5 1t19.5 3q29 4 63 6t66 2q23 0 45.5 -2t40.5 -8q111 -35 111 -113v-6q0 -31 -13.5 -62.5t-41.5 -74.5q-45 -59 -110.5 -110.5t-140.5 -93.5t-151 -75.5t-143 -56.5v2q-37 -12 -52.5 -35.5t-15.5 -52.5z" />
<glyph unicode="4" horiz-adv-x="1282" d="M94 332q0 -12 1 -23.5t7 -23.5q14 -29 40 -48.5t67 -19.5q98 0 197.5 3t203.5 7l156 4q-2 -10 -2 -18v-16q-8 -109 -12 -180.5t-4 -141.5v-49q0 -27 2 -53q2 -61 28.5 -90t63.5 -29q49 0 92 55q10 14 18.5 32.5t8.5 39.5q0 16 -5.5 31.5t-17.5 27.5q0 102 4 202.5 t12 193.5q78 2 154 5t141 7q45 4 66.5 31.5t21.5 64.5q0 35 -22.5 63.5t-69.5 28.5h-6q-33 -4 -70 -4q-35 0 -73 -2l-123 -6q6 98 11 199.5t9 187.5q0 12 1 24.5t1 24.5q0 43 -23.5 66.5t-56.5 29.5q-4 0 -8 1t-8 1q-33 0 -58.5 -15t-37.5 -50q-41 -25 -99.5 -61.5 t-125 -81.5t-136 -94.5t-132 -94.5t-111.5 -85t-74 -68q-31 -31 -31 -76zM426 412q96 68 186 132t183 124q-2 -14 -2 -29v-25q-2 -47 -5.5 -94t-9.5 -98q-92 -2 -176 -4t-176 -6z" />
<glyph unicode="5" horiz-adv-x="1040" d="M98 -602q0 -20 7.5 -34.5t19.5 -29.5h-2q29 -33 72 -32q16 0 31.5 4t31.5 18h-2q106 88 207.5 193.5t187.5 214t153.5 213t108.5 188.5q61 125 62 223q0 60 -25 109q-29 57 -93 93t-177 56q-23 4 -46.5 6.5t-47.5 2.5q-59 0 -121 -11.5t-109 -31.5q0 12 2 20q2 18 3 38.5 t1 47.5q0 45 -27.5 69.5t-62.5 24.5q-37 0 -67.5 -22.5t-30.5 -69.5q0 -27 -2 -52.5t-4 -51.5q-4 -43 -7 -86t-3 -80v-23q0 -47 27.5 -70.5t64.5 -25.5h6q29 0 53.5 15.5t34.5 47.5q2 12 25.5 24.5t57.5 23t75 16.5t82 6q31 0 61 -6q94 -20 117 -66q6 -16 6 -38 q0 -41 -29 -103q-39 -80 -101.5 -176t-142 -195.5t-172 -196.5t-190.5 -183q-35 -31 -35 -70zM223 899q0 -31 21.5 -60.5t68.5 -31.5q49 -2 114 -4t135.5 -4t144 -3t141.5 -1h149q47 0 70 28.5t23 65.5q0 35 -23 63.5t-70 28.5q-63 0 -151 1t-182.5 3t-185.5 4t-161 4h-10 q-41 0 -62.5 -27.5t-21.5 -62.5v-4z" />
<glyph unicode="6" horiz-adv-x="1433" d="M160 160q0 -152 90 -238q47 -43 109.5 -67.5t138.5 -24.5q12 0 23 1t22 3q23 -27 61 -27q45 0 74 39q51 12 137 38t181.5 65t190.5 91t167 120q47 47 69.5 98t22.5 104q0 66 -32 121.5t-89 94.5h2q-94 66 -201 65q-121 0 -239 -82q-94 -68 -178 -205t-156 -329 q-12 -2 -25 -2h-20q-78 0 -113 34q-41 41 -41 117q0 72 33 164q31 92 70 179t81 169t84 156t78 135q23 12 39.5 25.5t28.5 39.5v-2q8 12 10 25.5t2 26.5q0 29 -13 49t-30 37q-31 20 -61 20q-23 0 -44.5 -10t-37.5 -35q-49 -68 -103.5 -161t-106.5 -197.5t-99 -212 t-80 -199.5q-25 -63 -35 -120.5t-10 -104.5zM776 74q61 137 114.5 217t106.5 121q29 23 62 32t65 9q55 0 93 -31q16 -16 25 -31.5t9 -30.5q1 -28 -34 -65v-2q-31 -35 -84.5 -67.5t-116 -61.5t-126 -52.5t-114.5 -37.5z" />
<glyph unicode="7" horiz-adv-x="997" d="M53 858q0 -10 2 -19.5t6 -15.5q14 -33 46 -56.5t71 -23.5h12q23 0 44.5 5.5t44.5 19.5q84 6 149.5 9t124.5 3q53 0 102.5 -1t102.5 -3h51l-3 -5t-7 -11l2 2q-74 -98 -158 -225t-163 -268.5t-145.5 -289t-105.5 -286.5q-2 -10 -3 -22.5t-1 -22.5q0 -41 21.5 -70t50.5 -39 q16 -4 33 -4q27 0 53.5 13.5t42.5 41.5q14 29 14 62q0 10 -2 21.5t-6 25.5q31 111 98.5 253t152.5 289.5t179 286t176 238.5v-2q37 45 37 90q0 23 -8 39q-14 27 -43 45t-80 20q-84 6 -192.5 7.5t-219.5 1.5t-212 -4.5t-166 -12.5q-55 -10 -78 -35.5t-23 -56.5z" />
<glyph unicode="8" horiz-adv-x="1368" d="M143 57q0 -80 50.5 -135t117.5 -90q76 -39 170 -57.5t185 -18.5q49 0 90 6q80 8 172 25.5t174 53.5t143.5 92.5t79.5 140.5q4 16 5 27.5t1 27.5q0 96 -64.5 181t-170.5 141q41 27 68.5 69.5t33.5 100.5q0 8 1 15t1 15q0 80 -41 146.5t-104.5 115t-141 74t-153.5 25.5 q-82 0 -155 -33t-130 -81t-97 -105.5t-59 -106.5q-16 -35 -22 -65.5t-6 -57.5q0 -100 92 -151q-35 -20 -68.5 -49t-63.5 -65t-53.5 -75t-37.5 -78q-16 -47 -17 -88zM344 74q0 8 4 20q27 68 64 111t85 68.5t109.5 38t134.5 20.5q16 2 33 3t29 1q72 0 133 -17.5t105 -46 t69 -66.5t25 -81v-16q-4 -31 -40 -57.5t-92.5 -47t-125 -35t-136.5 -20.5q-16 -2 -32 -2h-33q-78 0 -151.5 13t-123.5 36h2q-25 14 -42 34.5t-17 43.5zM494 592q0 10 6 33q6 31 31.5 66.5t62.5 65t80 49t86 19.5q45 0 89 -14t78 -38.5t55.5 -55.5t21.5 -64v-8 q-4 -59 -78 -85t-193 -36q-20 -2 -37 -2h-32q-100 0 -135 19.5t-35 50.5z" />
<glyph unicode="9" horiz-adv-x="1228" d="M86 549q0 -180 211 -242q123 -39 278 -39q82 0 165 12.5t167 38.5q-31 -78 -76 -164.5t-97 -173.5t-107.5 -170t-110.5 -153q-10 -10 -14 -25.5t-4 -31.5q0 -18 7 -38t19 -30q37 -27 66 -27q37 0 72 35q72 92 144.5 198.5t136 220.5t113.5 230.5t77 227.5q25 14 33 34 t12 40v12q0 12 -3.5 25.5t-13.5 23.5q2 14 3 27.5t1 29.5q0 63 -15 124t-44 108q-51 78 -137 131t-203 53q-123 0 -258 -46t-248 -136q-72 -59 -122 -135t-52 -156v-4zM289 563q0 23 25.5 65t62.5 70q94 72 196.5 107t184.5 35q70 0 112.5 -28t77.5 -75v2q31 -47 31 -139 q0 -14 -1 -28.5t-3 -30.5q-88 -39 -194 -60.5t-210 -21.5q-119 0 -211 30v-2q-43 14 -57 34t-14 42z" />
<glyph unicode=":" horiz-adv-x="325" d="M127 39q0 -45 29 -84q29 -35 77 -35q16 0 34 4.5t34 18.5q18 14 30.5 39.5t12.5 54.5t-12.5 52.5t-30.5 43.5q-35 25 -68 25t-63 -25q-23 -18 -33 -42.5t-10 -51.5zM135 414q0 -47 29 -86q33 -37 78 -37q16 0 32.5 4t32.5 18q23 16 34 42t11 55q0 27 -10.5 52.5 t-30.5 43.5q-29 25 -67 24q-39 0 -66 -24q-23 -16 -33 -42t-10 -50z" />
<glyph unicode=";" horiz-adv-x="477" d="M268 -305q0 -25 13.5 -41t29.5 -27q14 -8 33 -8q39 0 57 41q39 82 50.5 168t11.5 156v45t-2 37q-2 33 -20.5 48t-41.5 15h-4q-16 0 -34.5 -11.5t-30.5 -39.5q-4 -12 -11.5 -32.5t-7.5 -37.5q0 -27 13 -35q0 -18 -2.5 -48.5t-7.5 -64.5t-13 -68t-22 -60q-10 -20 -11 -37z M272 420q0 -23 6.5 -44.5t22.5 -39.5q29 -37 76 -37q16 0 33.5 4t33.5 19h-2q23 16 34 41.5t11 52.5q0 55 -41 100l-2 2q-27 23 -65 23q-35 0 -64 -23q-23 -20 -33 -44.5t-10 -53.5z" />
<glyph unicode="&#x3c;" horiz-adv-x="1077" d="M53 389q0 -29 14.5 -57.5t43.5 -44.5v2q90 -57 200.5 -115.5t223 -114t219 -105.5t186.5 -87q12 -4 26.5 -8t24.5 -4q33 0 58.5 20.5t29.5 63.5v20q0 16 -12 43t-45 39q-102 47 -195.5 90t-181.5 86t-171 87t-165 93q-4 4 -7 5l-3 1q0 4 10 11q111 88 228.5 170 t220.5 151q61 41 112.5 76t85.5 61q55 41 56 89q0 14 -5.5 26t-13.5 27q-25 29 -57.5 34t-46.5 5q-39 0 -70 -22.5t-53 -63.5q-72 -55 -136.5 -99.5t-127.5 -85.5q-92 -63 -186.5 -128.5t-211.5 -164.5l2 3q-27 -16 -40 -45t-13 -58z" />
<glyph unicode="=" horiz-adv-x="858" d="M145 616q0 -37 29 -59v2q10 -10 23.5 -15t25.5 -5q20 0 37 10h-2q4 2 9 4t9 6q6 10 21 10q8 2 18 2h29h55q31 0 66 -2t72 -2h71q33 0 61.5 1t49.5 3q35 6 51 27.5t16 44.5v4q0 27 -17 48.5t-50 21.5h-12q-10 -2 -27 -2h-33q-31 0 -65.5 1t-73.5 3q-45 0 -89 2t-83 2 q-72 0 -103 -6h3q-35 -8 -58.5 -30.5t-32.5 -55.5v-15zM150 346q0 -20 8 -34.5t20 -26.5v2q20 -18 51 -19q20 0 37 11h-2q8 2 19 12q12 8 20 8q6 2 19 2h28h56t65.5 -2t71.5 -2h71q33 0 62 1t49 3q35 6 51.5 27.5t16.5 44.5v4q0 27 -18.5 47t-49.5 20h-72h-65q-35 0 -74 2 q-45 2 -89 4.5t-85 2.5q-33 0 -58.5 -2t-41.5 -7h2q-35 -6 -58.5 -28.5t-31.5 -55.5q0 -4 -1 -7t-1 -7z" />
<glyph unicode="&#x3e;" horiz-adv-x="1081" d="M47 -39v-20q4 -43 29.5 -63.5t58.5 -20.5q10 0 24.5 4t26.5 8q80 37 186.5 87t219.5 105.5t223.5 113.5t200.5 116v-2q29 16 43 43.5t14 56.5q0 31 -14.5 58.5t-36.5 44.5q-111 92 -203 155.5t-178 122.5q-68 43 -136.5 91t-146.5 108q-20 41 -50.5 63.5t-69.5 22.5 q-14 0 -47 -5.5t-58 -33.5q-8 -14 -13 -26.5t-5 -26.5q0 -47 55 -89q35 -27 86 -61.5t113 -75.5q102 -70 220 -151.5t228 -169.5q10 -6 10 -10l-3 -2q-3 -1 -7 -5q-164 -96 -336 -179t-377 -177q-33 -12 -45 -39t-12 -43z" />
<glyph unicode="?" horiz-adv-x="802" d="M276 1229q0 -39 39 -76q51 -43 103 -43q4 0 7 -1t7 1q20 -8 44 -16.5t48 -14.5q41 -16 81 -31.5t73 -29.5q29 -10 41 -23.5t16 -29.5q0 -23 -33 -56q-29 -31 -61.5 -62.5t-65.5 -62.5q-76 -72 -140 -140.5t-103 -131.5q-20 -35 -29.5 -66.5t-9.5 -60.5q0 -45 18 -72 q14 -18 34 -27.5t40 -9.5q29 0 52.5 16.5t29.5 51.5q4 12 4 27v30v15q29 53 125 149.5t231 218.5v-2q97 87 97 191v12q0 66 -45 121t-136 86q-66 23 -148.5 53.5t-174.5 67.5q-20 10 -47 10q-25 0 -45.5 -11.5t-34.5 -27.5q-16 -27 -17 -55zM350 47q0 -47 33 -84 q35 -41 86 -41q37 0 74 27q25 16 36 41.5t11 54.5q0 63 -45 100q-35 25 -74 25q-45 0 -72 -25q-49 -43 -49 -98z" />
<glyph unicode="@" horiz-adv-x="1808" d="M10 -72q0 -201 109 -290v2q45 -41 102.5 -58.5t128.5 -17.5q70 0 147 13t165 36l2 -2q0 2 2 2h4q2 2 4 2h12v16q35 37 35 68q0 25 -10 45q-14 23 -30.5 39t-39.5 22q-4 0 -10 1t-10 1q-53 0 -91 -57q-70 -16 -112 -16q-53 0 -94 14t-76 39q-35 29 -53.5 69t-18.5 97 q0 100 76 278q61 133 142 270.5t170 261.5t181.5 228.5t178.5 173.5q68 59 124 84t103 25q66 0 119 -43t106 -115q29 -41 59.5 -98t57.5 -119.5t47.5 -124t32.5 -106.5q12 -51 20.5 -97.5t8.5 -85.5q0 -84 -46 -166l3 3q-23 -33 -47.5 -65t-49 -57.5t-49 -42t-45.5 -18.5h-8 q-23 0 -38 11.5t-26 39.5q-6 16 -8 39t-2 52v32q0 53 -26.5 78t-67.5 25q-51 0 -102 -33v2q-33 -20 -76 -53t-88 -69t-88 -72.5t-76 -63.5q-8 -6 -23 -21q-23 -18 -34 -18q-2 0 -7 4q-2 2 -2 19q0 29 15 57q20 45 56 94t79 94t86 83t80 63q80 55 137 55q41 0 68 -25 q27 -18 59 -18q29 0 52.5 14.5t37.5 36.5q10 25 10 47q0 18 -7 38t-28 36q-45 35 -87 50.5t-83 15.5q-78 0 -145.5 -36t-116.5 -69q-43 -29 -94 -70.5t-100 -94t-94.5 -112t-75.5 -120.5q-23 -41 -35 -86t-14 -92q0 -100 59 -154q47 -41 109 -41q76 0 167 68 q23 18 49.5 41.5t53.5 46.5q47 39 87 73.5t69 51.5q6 6 12 6v-2q0 -31 11 -70t28 -57v2q33 -49 72.5 -70.5t107.5 -21.5h31q16 0 28 2q88 45 129 69.5t66 44.5q109 86 154 197t45 234q0 57 -8.5 113.5t-24.5 113.5q-12 51 -33.5 109.5t-48.5 119t-56.5 117.5t-60.5 106 q-68 111 -163 174.5t-212 63.5h-20q-158 0 -352 -147q-98 -78 -195.5 -184.5t-187.5 -230.5t-168 -256t-135 -259q-49 -111 -74 -213.5t-25 -190.5z" />
<glyph unicode="A" d="M35 129q0 -41 26.5 -60.5t61.5 -23.5q-10 -14 -16.5 -28.5t-12.5 -30.5v2q-16 -27 -16 -64q0 -33 31 -63q23 -23 57 -23q31 0 55 12q41 23 53.5 52.5t14.5 54.5q18 33 32.5 65.5t30.5 63.5q0 2 4 10q63 14 126 27.5t128 30.5q117 27 240 55.5t254 58.5l29 -57 q12 -29 30.5 -64.5t40 -71.5t41 -69t35.5 -51q33 -45 84 -45q33 0 66 22q33 25 32 66q1 37 -24 68q-12 16 -28.5 42.5t-33 56.5t-33 57.5t-24.5 45.5q-4 8 -8 17.5t-8 17.5q-2 2 -3 2q0 2 -2 4q10 4 20.5 6t20.5 7q37 14 49.5 42.5t12.5 51.5q-10 49 -34 65.5t-50 16.5h-8 t-15 -4l2 2q-16 -4 -33.5 -7.5t-39.5 -7.5q-33 72 -71 169.5t-77 207.5q-41 111 -83 222.5t-87 213.5q-12 33 -35.5 45.5t-50.5 12.5h-8q-45 -2 -68.5 -29t-25.5 -59q-23 -35 -52.5 -92.5t-65.5 -131t-77 -158.5t-82 -173q-61 -129 -118.5 -248t-104.5 -211q-31 -10 -67 -17 q-10 -2 -27 -6q-29 0 -46.5 -12t-26.5 -27.5t-12 -32t-3 -26.5zM459 303q23 49 47 103.5t51 109.5q66 135 131.5 270.5t120.5 247.5q23 -59 46.5 -121.5t45.5 -126.5q31 -88 63.5 -177t69.5 -175q-4 -2 -12 -2q-141 -33 -287.5 -66.5t-275.5 -62.5z" />
<glyph unicode="B" horiz-adv-x="1411" d="M-39 1233q0 -20 10.5 -42t36.5 -36q47 -25 128 -52.5t173 -43.5q-2 -55 -5 -117.5t-7 -130.5q-6 -115 -10 -233.5t-4 -227.5q0 -45 1 -87t3 -79q4 -84 47 -131t90 -67q23 -8 41 -9q53 0 86 56q4 10 7 18t3 21q0 23 -13 46t-44 44q-31 14 -31 53q-2 23 -2 49v55 q0 86 4 181.5t8 193.5q4 90 7.5 175t5.5 161q59 -10 124.5 -20.5t128 -18.5t116 -15t87.5 -9q66 -10 74 -37q-2 4 -2 2q0 -20 -45 -58q-47 -31 -87 -54t-79 -46q-35 -23 -65.5 -38t-75.5 -50q-27 -16 -39 -42t-12 -52q0 -27 10 -49q23 -47 57.5 -69.5t93.5 -22.5 q43 0 87 -3.5t84 -9.5t74 -16t52 -23q117 -86 117 -174q0 -84 -100 -196q-49 -55 -120 -106.5t-147.5 -92.5t-153.5 -70.5t-138 -44.5q-12 -4 -23.5 -6t-19.5 -2q-16 0 -23 6q-23 16 -47 17q-20 0 -34.5 -8.5t-29.5 -22.5q-30 -28 -30 -66q0 -41 35 -73q25 -27 57.5 -37 t64.5 -10q39 0 84 10q88 25 177.5 61.5t174.5 84.5t162.5 103.5t143.5 116.5q86 86 124 172t38 166v4q-2 102 -54.5 181.5t-148.5 140.5q-66 39 -138.5 51t-127.5 17q51 29 95 55t107 74q129 94 129 200q0 72 -68.5 129.5t-205.5 75.5h2q-29 4 -60.5 8t-64.5 8 q-59 6 -121.5 14.5t-128.5 18.5q-84 12 -162.5 25.5t-145.5 29t-116 31t-73 31.5q-23 12 -52 12q-47 0 -77 -41q-18 -29 -19 -59z" />
<glyph unicode="C" horiz-adv-x="1275" d="M205 217q0 -45 8 -88t27 -82q33 -80 103.5 -133t203.5 -80q94 -18 221 -18q98 0 208.5 14t235.5 45q41 10 60.5 34.5t19.5 57.5q0 10 -1 17.5t-3 15.5l-2 2q-18 68 -82 68q-12 0 -20 -1t-15 -3q-123 -33 -221 -46.5t-178 -13.5q-49 0 -94 4t-88 13q-76 10 -115 39.5 t-57 70.5q-14 37 -15 92q0 59 15.5 122t36.5 122q31 88 92 176t135 166t153.5 140.5t149.5 103.5q4 -2 14 -2q59 0 95 59h-2q25 39 24 80q0 43 -29 72q-20 20 -53 20q-37 0 -76 -22q-92 -49 -193 -127t-193.5 -173.5t-168 -202t-120.5 -212.5q-35 -82 -55.5 -166t-20.5 -164 z" />
<glyph unicode="D" horiz-adv-x="1337" d="M137 1335q0 -33 19 -57v4q31 -55 90 -55q12 -6 25.5 -12.5t27.5 -12.5q-10 -131 -21.5 -273.5t-25.5 -275.5q-16 -174 -28.5 -309t-12.5 -188q0 -49 16.5 -87t28.5 -63q16 -35 42 -47t50 -12q16 0 53 12q16 8 28.5 25.5t12.5 42.5q0 14 -8 30l-5 13q-5 14 -9 22 q-20 37 -21 66q0 39 9.5 152.5t25.5 267.5q10 123 23.5 258t23.5 268q18 -10 37 -21.5t39 -21.5q61 -35 124.5 -71t123 -70.5t112 -65.5t89.5 -55q86 -57 128 -109.5t42 -105.5q0 -39 -33 -93.5t-82 -109.5t-106.5 -107.5t-106.5 -87.5q-84 -61 -192.5 -121.5t-237.5 -127.5 q-27 -14 -40 -38t-13 -49q0 -20 10 -40q16 -23 37.5 -39.5t46.5 -16.5q27 0 49 15q123 66 234.5 127t215.5 135q61 43 135 107.5t137.5 138t105.5 148.5t42 134q0 4 -1 8t-1 8v5q0 203 -272 378q-53 35 -141.5 87.5t-198 114t-230 127t-239.5 128.5q-14 8 -28.5 10t-26.5 2 q-49 0 -80 -34q-23 -23 -23 -58zM432 63q0 -2 1 -3l1 -1v2z" />
<glyph unicode="E" horiz-adv-x="1314" d="M150 489q2 -35 27.5 -59t72.5 -24h6q10 -2 25 -3h24q14 0 27 3q-6 -29 -14.5 -65t-15.5 -73t-12 -71.5t-5 -59.5q0 -72 15 -128t42 -97v2q33 -49 77 -70.5t97 -21.5h8q61 0 137 9t151 24.5t144.5 34t120.5 36.5q72 27 132.5 61t101.5 85v-2q14 16 17 31.5t3 31.5 q0 47 -33 74h2q-24 22 -62 22h-3q-35 0 -70 -34q-29 -35 -66.5 -55.5t-86.5 -37.5q-117 -41 -241 -61.5t-214 -24.5h-10q-33 0 -47 17q-12 12 -17.5 36.5t-5.5 53.5v14q2 68 16.5 143.5t41.5 153.5q68 8 157.5 23.5t181 31t171 31t126.5 27.5q41 12 57.5 39.5t16.5 56.5 q0 4 -1 9t-1 7q-6 31 -26.5 52.5t-53.5 21.5h-8q-2 0 -12 -4l2 2q-47 -10 -111.5 -22.5t-137.5 -25.5t-149.5 -25.5t-148.5 -24.5q23 78 42 153.5t24 141.5q0 6 1 13t1 13q0 10 -1 17.5t-3 17.5q98 16 204.5 23.5t214.5 7.5h68t68 -2h10q41 0 62.5 25.5t23.5 60.5v12 q0 31 -24.5 58.5t-71.5 27.5q-33 2 -68 2h-74q-86 0 -185 -4t-202.5 -17.5t-209 -37t-204.5 -62.5q-35 -14 -50 -40.5t-15 -53.5q0 -35 22.5 -62.5t61.5 -27.5q23 0 37 8l-2 -2q63 20 116 35q4 2 11.5 3t15.5 5v-14q0 -8 -1 -15.5t-1 -13.5q-6 -53 -27.5 -135t-52.5 -166 q-18 -4 -36.5 -6t-35.5 -4q-25 10 -45 10q-45 0 -73 -24h2q-51 -41 -51 -91z" />
<glyph unicode="F" horiz-adv-x="1208" d="M39 1137q2 -35 26.5 -67t73.5 -48q25 -6 45 -6q35 0 54 16h67q4 -76 7 -152.5t5 -134.5q-10 -4 -24 -9t-31 -9q-23 -10 -35 -30.5t-12 -39.5v-6q2 -25 15.5 -46t39.5 -34q31 -10 54 -14q0 -90 6 -203.5t14 -228.5q4 -51 6 -98t4 -95q0 -45 32 -67.5t67 -22.5t63.5 20.5 t28.5 63.5v11q-4 63 -7 140t-7.5 156.5t-7.5 155.5t-5 135v39q68 2 144.5 7t153.5 11.5t145.5 13.5t119.5 15q41 8 78 16.5t66 30.5q23 16 32 36t9 42q0 18 -6.5 37t-18.5 31q-14 14 -29.5 23.5t-37.5 9.5q-27 0 -48 -15h2q-16 -6 -33.5 -11t-35.5 -9q-47 -6 -118 -13.5 t-147.5 -13.5t-151.5 -12t-130 -8q-6 68 -9 137.5t-5 140.5q27 0 54.5 -1t55.5 -1q109 0 206 2t179 6q59 2 107 2h82h41q20 -18 47.5 -27t50.5 -9q51 4 82 43q10 12 13 25t3 30q0 43 -33 82q-20 23 -63 34t-90 11q-51 0 -120 -1t-146 -3q-106 -4 -223 -6t-232 -2 q-98 0 -186 3t-158 9h-16q-55 0 -84 -27.5t-29 -64.5z" />
<glyph unicode="G" horiz-adv-x="1511" d="M180 158q0 -92 24.5 -159t69.5 -114q94 -88 261 -88q29 0 57.5 3t58.5 7q119 16 225.5 51.5t229.5 88.5v-269q-20 -18 -21 -49q0 -29 19 -57v2q18 -29 45 -44t53 -15q39 0 66.5 28.5t27.5 81.5v428q16 20 23.5 42t7.5 40q0 39 -31 55v379h43q57 0 119 5.5t101 21.5 q61 27 61 86q0 26 -14 49l2 -2q-12 23 -35 36t-51 13q-18 0 -49 -10q-16 -8 -87 -10t-172 -2q-47 0 -96 1t-96 3t-90 3t-84 1q-55 0 -98 -4t-70 -17q-35 -16 -51.5 -39.5t-16.5 -48.5q0 -8 1 -15t5 -17q27 -57 91 -70h10q25 0 45 7t31 13q14 2 28 2h35h66q37 0 71 -2 q29 -2 58 -2h55v-417q-115 -53 -243 -96.5t-236 -59.5q-43 -6 -80 -6q-84 0 -125 41q-23 20 -33 58t-10 91v27q0 14 2 29q10 80 47 177t91 197.5t119 197.5t129.5 179t121.5 140.5t96 82.5q43 8 61.5 30t26.5 52l-2 -2q4 10 4 17v10q0 41 -26 65h2q-27 33 -70 33 q-31 0 -61 -18q-51 -29 -122 -98.5t-150 -165t-156.5 -210t-143 -231t-109.5 -229.5t-55 -207q-6 -49 -6 -100z" />
<glyph unicode="H" horiz-adv-x="1454" d="M129 399q0 -35 24.5 -58.5t75.5 -27.5q10 -2 27.5 -3t40.5 -1h49q-2 -16 -4 -29.5t-2 -23.5q-6 -53 -10 -99t-4 -87q0 -33 4 -64t14 -53v2q14 -41 41 -60.5t57 -19.5q23 0 47 10q23 10 40.5 34t17.5 58v19q-4 23 -11.5 39t-15.5 33v2q0 43 2 75.5t6 71.5q2 20 4.5 42 t4.5 50h57h96q51 0 105 2q61 2 126.5 3t131.5 1q-4 -68 -5 -122t-1 -113q-10 -18 -13.5 -39t-3.5 -43q0 -35 6 -53q20 -49 51 -73t60 -24q76 4 88 111q4 43 4 90q0 49 2 98v84q0 45 2 86h111q45 0 68.5 27t23.5 64q0 35 -22.5 62.5t-69.5 27.5h-107q2 6 2 22q2 61 4 139 t4.5 159t4.5 157t2 135v53q0 23 -2 39q0 35 -6.5 69t-22.5 62q-33 45 -80 45q-35 0 -65.5 -19.5t-40.5 -53.5q-2 -8 -3 -19v-18q0 -16 2.5 -33.5t8.5 -32.5v2q4 -16 12 -22q2 -4 3 -5t3 -6q2 -16 2 -38v-43q0 -55 -2 -130t-4 -155t-6 -160t-6 -147h-137q-68 0 -140 -2 q-61 -2 -118 -2h-109q4 37 8 77.5t8 83.5q10 111 19.5 219.5t9.5 178.5v20q10 12 13 26.5t3 26.5q0 33 -1 32t-3 5q-16 41 -43.5 62.5t-56.5 21.5h-4q-37 0 -66.5 -25.5t-29.5 -76.5v-47q0 -66 -5.5 -145t-12.5 -159.5t-15 -157.5t-15 -136q-27 4 -57 6l2 -2q-18 8 -45 8 q-25 0 -43 -8q-45 -14 -67.5 -44t-22.5 -61z" />
<glyph unicode="I" horiz-adv-x="897" d="M76 1051q0 -35 24.5 -61.5t65.5 -35.5q16 -4 37 -4q16 0 35.5 5.5t33.5 15.5q23 2 43 2h47h37q20 0 39 -2v-53q0 -141 -7 -296t-15 -315q-4 -45 -5 -88t-5 -84q-29 -2 -51.5 -3t-43.5 -1h-106q-47 0 -73 -28.5t-26 -63.5t25 -62.5t72 -29.5q16 -2 33 -2h34h45q25 0 52 2 q12 0 25.5 1t27.5 1q12 -16 30.5 -24.5t34.5 -8.5q41 0 68 33q86 4 157.5 5t125.5 1q45 0 69.5 27.5t24.5 62.5v4q0 35 -21.5 61.5t-68.5 26.5h-127h-64t-59 -2q4 47 6 97.5t6 103.5q10 139 18.5 281.5t8.5 271.5v78q33 -4 71 -4h82h97q25 0 48 1t42 3q45 6 66.5 31.5 t21.5 60.5q0 37 -24.5 64.5t-69.5 27.5h-111h-133q-66 0 -123 2q-23 35 -68 35q-18 0 -37.5 -7t-29.5 -24h-150q-43 0 -82 -2t-63 -8q-47 -10 -68.5 -37t-21.5 -55v-4z" />
<glyph unicode="J" horiz-adv-x="700" d="M-174 -207q0 -23 9 -44t30 -38q63 -55 164 -55q78 0 166 34t174 105q135 117 191 263.5t56 344.5v58q0 28 -2 59q-4 98 -10 193.5t-12 187.5q-8 129 -13.5 239.5t-9.5 196.5q0 12 4.5 35t8.5 39q0 4 1 9t1 10q0 27 -16.5 46t-43.5 27l2 -2q-10 4 -20 6t-19 2 q-23 0 -45 -9t-39 -32q-18 -23 -34.5 -62.5t-16.5 -66.5v-4q0 -23 11.5 -34t25.5 -23v-43q0 -78 5 -174t14 -209q6 -80 11 -167t9 -179q2 -27 2 -49v-43q0 -168 -42 -279.5t-138 -193.5q-63 -55 -111.5 -74t-79.5 -19h-26q-14 27 -42 41.5t-61 14.5q-27 0 -50 -11.5 t-36 -39.5q-18 -29 -18 -60z" />
<glyph unicode="K" horiz-adv-x="1105" d="M219 496q0 -70 29 -121v-328q0 -53 26.5 -81.5t49.5 -41.5q23 -14 49 -14q23 0 38 9t27 26q25 27 25 65v8q0 6 -4 17h3q-2 4 -12 13t-20 20q0 18 1 37.5t1 35.5t1 34t1 40q72 -43 159 -87t173 -85q102 -49 184 -91t111 -77q31 -33 69 -33q23 0 40.5 10.5t29.5 26.5 q10 12 17.5 27.5t7.5 36.5q-1 26 -21 55v2q-20 25 -56 49.5t-82 50t-99.5 51t-110.5 54.5q-59 29 -117.5 57.5t-114 58t-103.5 61.5t-83 64l4 70q37 29 114 61.5t167 69.5q86 35 169 71t136 66q6 6 10 9q18 14 43 37.5t31 62.5q0 4 1 10t1 10q0 33 -18.5 59.5t-63.5 26.5 q-29 0 -57.5 -11t-42.5 -40q-4 -10 -28.5 -24.5t-64.5 -33t-90.5 -40t-103.5 -41.5q-53 -23 -105.5 -43.5t-93.5 -40.5q0 33 2.5 67.5t6.5 69.5q4 43 6.5 85t1.5 77q14 41 14 72v14q-6 41 -28.5 66.5t-65.5 25.5q-39 0 -71.5 -21.5t-32.5 -74.5q0 -61 -3.5 -138t-7.5 -161 q-4 -51 -6 -100.5t-4 -94.5q-39 -51 -39 -116z" />
<glyph unicode="L" horiz-adv-x="1167" d="M188 106q0 -92 52 -141q31 -35 82 -49t124 -16q96 0 201 10t205 31.5t191.5 54.5t162.5 76q29 16 39 38.5t10 45.5q0 26 -16 53l-2 2q-27 39 -74 39q-12 0 -26.5 -2t-28.5 -10q-49 -29 -119.5 -54.5t-153.5 -45t-173.5 -32t-178.5 -14.5q-63 0 -80 19q-10 14 -10 41 q0 18 5 43.5t16 60.5q76 262 122 506t64 459v12q0 45 -27.5 65.5t-64.5 20.5q-35 0 -64.5 -20.5t-33.5 -65.5q-23 -172 -62 -404.5t-123 -519.5q-37 -121 -37 -203z" />
<glyph unicode="M" horiz-adv-x="1646" d="M205 -8q0 -29 4 -53q6 -49 32.5 -75t59.5 -26h4q35 2 64.5 29t29.5 72v12q-2 16 -2 35v37q0 76 8.5 163.5t20.5 190.5q6 59 14.5 122.5t16.5 135.5q61 -121 153 -205q98 -92 224 -92q59 0 115.5 21.5t103.5 62.5h-2q41 33 91 90t87 113q18 -78 37.5 -164t43 -172t50 -169 t57.5 -155q16 -41 55 -69.5t80 -28.5h13q49 6 74.5 34.5t25.5 63.5v4q-4 57 -49 70q-27 8 -35 24q-29 74 -56.5 170.5t-54 201t-49 211t-43.5 200.5q-4 12 -5 23.5t-5 21.5v-2q-6 41 -34.5 51t-65.5 10t-62.5 -13t-36.5 -48v-6q-4 -18 -10 -29v2q-18 -35 -49 -79t-63.5 -85 t-64.5 -75.5t-54 -53.5q-20 -16 -45 -26.5t-43 -10.5h-6q-47 0 -89 41q-94 82 -156.5 200t-103.5 296q6 14 7 35q0 35 -23 49q-4 10 -7 23.5t-13.5 30t-28 24.5t-35.5 8q-10 0 -22.5 -3t-26.5 -7q-25 -12 -43.5 -29.5t-18.5 -52.5q0 -23 4.5 -43.5t8.5 -36.5q0 -4 4 -12v-2 q2 -2 2 -5l-2 5q-2 -195 -18.5 -347.5t-32.5 -283.5q-14 -104 -24.5 -193.5t-10.5 -179.5v-51z" />
<glyph unicode="N" horiz-adv-x="1343" d="M207 121q0 -78 6 -133q4 -61 39 -105.5t104 -52.5h13q41 0 66.5 27.5t25.5 62.5q0 23 -12.5 42.5t-40.5 29.5q-8 2 -13 28v5q-2 4 -2 10q-2 16 -2 33v36q0 84 8.5 197t18.5 227q72 -131 149.5 -242.5t161.5 -197.5q59 -68 118.5 -95.5t113.5 -29.5q90 2 160.5 65.5 t105.5 168.5h-2q16 49 30.5 112.5t24.5 134t16.5 144.5t6.5 141q0 61 -4.5 114.5t-14.5 92.5q-10 35 -35.5 51.5t-54.5 16.5q-8 0 -15.5 -1.5t-17.5 -5.5q-29 -12 -49 -36.5t-25 -63.5v-8q0 -18 7.5 -36.5t23.5 -29.5q2 -16 3 -35.5t1 -37.5q0 -63 -7 -136t-18.5 -140.5 t-23.5 -123t-24 -84.5q-12 -31 -32 -63.5t-54 -34.5h-5q-20 0 -41.5 11t-52.5 40q-61 61 -119.5 142t-110.5 168t-95 172t-74 153q2 10 3 18.5t1 12.5q0 61 -55 78q-2 6 -5 12t-1 2l-2 4l-2 3q-1 3 -8 11.5t-21 30.5q-18 20 -56 21q-27 0 -45 -11q-20 -10 -35.5 -31.5 t-15.5 -52.5q0 -4 1 -8t1 -8q4 -23 15.5 -47.5t21.5 -46.5l4 -8q-10 -68 -20 -157t-18.5 -186.5t-14.5 -193.5t-6 -176z" />
<glyph unicode="O" horiz-adv-x="1611" d="M166 276q0 -190 108 -292q57 -53 138.5 -80t181.5 -27q168 0 379 78q43 16 90 32.5l94 33t94 32t95 33.5q141 53 208.5 134.5t69.5 185.5q0 164 -164 286q-72 53 -152.5 103.5t-166.5 91.5q-80 39 -148.5 53t-128.5 14q-51 0 -96 -6q-2 0 -3 -1l-1 -1v4q0 31 -25.5 55.5 t-54.5 34.5q-12 4 -21.5 5.5t-15.5 1.5q-39 0 -63.5 -24t-32.5 -62q-80 -53 -149.5 -137.5t-122 -179.5t-83 -192.5t-30.5 -175.5zM354 276q0 43 22.5 112t60.5 142.5t86 141t100 110.5q12 -12 30.5 -17t38.5 -5q23 0 33 2q25 4 48.5 6t49.5 2q55 0 116.5 -12.5t121.5 -40.5 h-2q78 -41 148.5 -82t125.5 -88v2q94 -87 94 -148q0 -41 -35.5 -75.5t-121.5 -71.5q-66 -29 -138.5 -53.5t-144.5 -48.5q-20 -6 -39.5 -12.5t-38.5 -12.5q-106 -35 -188 -52.5t-148 -17.5q-53 0 -91 12.5t-64 34.5q-31 29 -45.5 74t-18.5 98z" />
<glyph unicode="P" horiz-adv-x="1171" d="M33 1159q0 -25 14 -47t43 -39q39 -23 133 -44t215 -42h-2q-29 0 -51.5 -16.5t-30.5 -55.5q-10 -53 -22.5 -127.5t-22.5 -162.5t-17 -187.5t-7 -201.5q0 -98 7 -193.5t25 -181.5q10 -41 35 -58.5t58 -17.5h12q8 0 14 2q31 6 51.5 26.5t20.5 53.5v8t-4 14l2 -2 q-16 84 -23.5 173.5t-7.5 181.5t6 184t16.5 176t22 156t23.5 125v4q0 4 1 6t1 6q0 31 -21.5 51.5t-46.5 28.5q10 -2 19.5 -3t21.5 -3q113 -23 225.5 -43.5t204.5 -46.5q127 -33 127 -84v-4q0 -33 -71 -68q-39 -18 -91.5 -44t-111 -54.5t-122 -58t-124.5 -56.5 q-55 -27 -55 -80q0 -20 10 -41q10 -25 31.5 -42t52.5 -17q20 0 41 10q59 27 125.5 58.5t132.5 64.5q59 29 111.5 53.5t93.5 40.5q100 51 149 112.5t49 127.5v4q-2 82 -73.5 150.5t-223.5 111.5q-84 23 -183 41t-200 39q-104 16 -201.5 35.5t-178.5 42.5q-16 16 -41 27.5 t-48 11.5q-51 0 -82.5 -32t-31.5 -73zM473 979v2h2v-2h-2z" />
<glyph unicode="Q" horiz-adv-x="1503" d="M121 102q0 -127 74 -202q41 -41 102 -64.5t141 -23.5q41 0 80 5t82 15q25 6 61.5 18.5t79.5 29t89.5 33.5t89.5 36l2 -2q23 -74 46 -152t64 -151q33 -63 88.5 -98t126.5 -38h4q45 0 71 29t28 68v4q0 31 -21.5 57.5t-62.5 32.5q-16 0 -36 10t-36 39q-27 49 -51.5 123 t-42.5 152q4 0 8 4v-2q45 23 97 53.5t91 60.5q94 74 130 161t36 179q0 82 -18 156q-16 82 -53 179t-80 173q-49 92 -122 144.5t-167 54.5h-6q-121 0 -264 -101q-76 -53 -153 -130.5t-148.5 -170t-135 -190.5t-108.5 -193q-86 -176 -86 -299zM326 127q0 72 67 211 q43 86 100.5 174t119 168t125 145.5t120.5 106.5q41 31 77 45t64 14h7q41 -2 73.5 -29.5t63.5 -76.5q16 -27 34.5 -65t34 -79t26.5 -81.5t17 -73.5q6 -29 10.5 -57.5t4.5 -51.5q0 -53 -21.5 -97t-74.5 -89q-18 -16 -51 -35.5t-70 -40.5q-4 20 -8.5 40.5t-4.5 39.5 q-4 18 -6 35.5t-6 31.5q-8 37 -29.5 52.5t-44.5 15.5q-33 0 -64.5 -21.5t-49.5 -56.5q-8 -16 -11.5 -32.5t-3.5 -32.5q0 -31 10.5 -54.5t26.5 -33.5q4 -12 7 -29.5t8 -38.5q-33 -14 -73 -29.5t-80 -29t-80 -24.5t-73 -17q-61 -16 -108 -17q-68 0 -105 31v-2q-33 33 -32 84z " />
<glyph unicode="R" horiz-adv-x="1208" d="M23 1194q0 -33 28 -66q12 -12 31.5 -23t41 -21.5t43 -16.5t38.5 -6q10 0 16 2q2 0 3 -1t3 -1h-2q23 -4 51.5 -9t57.5 -14q-31 -88 -38 -201.5t-7 -224.5v-137q-61 -55 -62 -123q0 -35 14.5 -65.5t45.5 -55.5q0 -53 -1 -113.5t-3 -119.5q-2 -35 -3 -65.5t-1 -59.5v-4 q0 -47 28.5 -70.5t63.5 -25.5q35 0 63.5 21.5t30.5 72.5q0 23 1 53.5t3 65.5q2 31 2 61q0 33 2 62q80 -47 173 -92.5t188.5 -86.5t185.5 -73.5t160 -51.5q12 -4 28 -4q33 0 55.5 19.5t32.5 48.5q4 10 5.5 17.5t1.5 15.5q0 29 -17.5 55.5t-58.5 36.5q-84 20 -185.5 58 t-204 83t-195.5 95.5t-161 95.5v20q47 18 98.5 37.5t106.5 38.5q88 31 175 62.5t147 62.5q196 92 196 214q0 121 -184 234q-80 45 -173 83t-194.5 69t-210 57.5t-217.5 50.5q-16 14 -38.5 23.5t-45.5 9.5h-14q-55 0 -86 -41q-8 -10 -13 -23.5t-5 -29.5zM475 543q0 4 1 9t1 9 q4 145 8 261t29 171q129 -35 237.5 -77t168.5 -78q65 -43 65 -72t-67 -59q-35 -18 -84.5 -39t-104.5 -40.5t-112.5 -39t-110.5 -35.5q-8 -4 -16.5 -5t-14.5 -5z" />
<glyph unicode="S" horiz-adv-x="897" d="M160 731q0 -135 135 -258q20 -18 48 -42.5t58 -53.5q51 -45 103.5 -92t85.5 -80q41 -41 59.5 -78t20.5 -70q0 -25 -8.5 -49t-30.5 -51q-47 -63 -120 -110.5t-126 -77.5q-29 -14 -40 -37t-11 -45q0 -23 14 -47q12 -27 35 -40.5t47 -13.5q14 0 25.5 2t25.5 11 q59 33 144.5 93t158.5 152q35 47 55.5 97.5t20.5 107.5v6q0 141 -135 283q-23 23 -58.5 54.5t-74.5 64.5q-47 43 -92 85t-74 70q-68 68 -68 125q0 68 76 150q66 74 155 153.5t175 153.5q74 63 133 115.5t88 89.5q16 23 22.5 40t6.5 36q0 43 -27 63q-33 29 -76 29 q-23 0 -41 -8q-68 -25 -84 -101q-25 -20 -57.5 -49t-71.5 -63q-84 -72 -181 -158t-181 -178q-135 -147 -135 -273v-6z" />
<glyph unicode="T" horiz-adv-x="1075" d="M-174 1006q0 -35 27.5 -66t72.5 -31q47 -2 120 -3t155 -1h155q80 0 152 2q0 -29 -1 -58.5t-3 -60.5q-2 -90 -4 -185t-2 -189q0 -111 4 -206t14 -169q8 -66 44 -95.5t71 -35.5l-2 2q10 -4 20 -4q35 0 63.5 21.5t35.5 66.5v8q0 47 -39 80q-10 47 -13.5 149.5t-3.5 225.5 v174q0 59 2 117.5t4 105.5q0 14 1 27.5t1 27.5h15q68 2 127 3t112 1h101q45 0 78 -2q32 -24 74 -24h3q27 0 47 10q29 12 46.5 35.5t21.5 50.5v16q0 35 -24.5 64t-83.5 29q-35 2 -78 2h-90q-68 0 -147 -1t-165 -1q-96 -2 -196 -2h-197q-121 0 -229.5 1t-194.5 5h-4 q-45 0 -66.5 -26t-23.5 -60v-4z" />
<glyph unicode="U" horiz-adv-x="1366" d="M207 401q0 -59 5 -117.5t17 -113.5q43 -213 152 -309q104 -92 233 -92q43 0 90.5 9t94.5 29q92 43 176 117t147 166q61 86 100.5 184.5t62 201t30.5 204.5t8 194q0 131 -11.5 231.5t-21.5 143.5v2q-25 74 -90 74q-27 0 -50.5 -14.5t-39.5 -36.5l2 2q-10 -12 -12 -25.5 t-2 -27.5q0 -16 2 -30.5t6 -33.5q4 -16 6 -33.5t6 -42.5q6 -47 10.5 -102t4.5 -115q0 -84 -8.5 -174t-28 -178t-50 -170t-75.5 -147q-78 -106 -171 -171t-177 -65q-31 0 -59.5 10.5t-51.5 34.5q-59 53 -94 197q-18 94 -19 190q0 104 15.5 212t34.5 204q12 66 20 123t8 100 q0 47 -29.5 72.5t-66.5 25.5h-4q-31 0 -59.5 -24.5t-28.5 -69.5q0 -25 -8.5 -66.5t-18.5 -97.5q-16 -96 -35.5 -215.5t-19.5 -255.5z" />
<glyph unicode="V" horiz-adv-x="1320" d="M92 840q0 -10 3 -23.5t7 -28.5q37 -80 87.5 -186t105.5 -219t114.5 -224.5t116.5 -201.5h-2q16 -31 45 -44t58 -13t57.5 12t44.5 41l-2 -2q123 145 251 314t247 329q39 51 75.5 101t71.5 98q41 23 64.5 53t23.5 69q0 16 -5 49t-36 56q-27 20 -53 20q-45 0 -88 -55 q-10 -12 -20.5 -28.5t-24.5 -32.5q-49 -68 -123 -167.5t-155 -207t-161.5 -212t-142.5 -181.5q-4 -10 -8 -11l-1 3q-1 4 -5 8q-98 166 -181 338t-177 378q-14 33 -39 45.5t-47 12.5h-19q-43 -4 -62.5 -30t-19.5 -60z" />
<glyph unicode="W" horiz-adv-x="1908" d="M231 946q0 -104 6.5 -217t16.5 -222.5t20.5 -211.5t20.5 -189q2 -14 3 -27t3 -26q14 -102 52 -156.5t91 -62.5h-2q8 -2 27 -2q47 0 97 38t93 110q55 92 117 209.5t115 228.5q8 -119 35.5 -224.5t99.5 -173.5q61 -53 133 -78.5t144 -25.5q57 0 113.5 14.5t107.5 38.5 q98 49 167.5 121t112.5 176q39 96 39 203q0 51 -6 104.5t-16 108.5q-18 98 -45 188.5t-58.5 166t-64.5 130t-60 82.5q-31 29 -67 29q-39 0 -68 -29v2q-31 -29 -31 -67q0 -43 35 -72q10 -10 32 -51t48.5 -104.5t52 -145.5t41.5 -174q8 -47 11.5 -88t3.5 -80q0 -76 -23 -133 q-29 -66 -81 -118t-120 -87h3q-61 -29 -123 -29q-88 0 -144 58q-31 31 -51 83t-32.5 116.5t-17.5 136t-5 139.5q0 41 1 75.5t3 67.5v13q0 35 -18.5 55t-47.5 26q-6 2 -12 3.5t-16 1.5q-25 0 -48.5 -13.5t-35.5 -40.5v2q-18 -35 -46 -94t-63 -131q-29 -59 -59.5 -123.5 t-61 -127t-61.5 -120t-57 -102.5h2q-25 -41 -37 -41q-6 0 -13 47q-14 94 -25 200.5t-20.5 214t-14.5 211t-7 193.5q0 43 -30 67.5t-64 24.5q-35 0 -65 -23.5t-30 -74.5z" />
<glyph unicode="X" horiz-adv-x="1044" d="M45 -268q0 -47 26.5 -76t67.5 -31q23 0 44.5 12.5t35.5 47.5q10 23 20.5 47t26.5 49q35 61 81 139t102 168q31 51 64.5 104.5t68.5 108.5q72 -98 165 -213t197 -217q14 -12 30.5 -18.5t31.5 -6.5q41 0 65 29q14 12 23.5 29.5t9.5 38.5q0 39 -31 63v-2 q-51 51 -104.5 110.5t-103.5 121t-96 123t-83 116.5q37 59 75 120.5t79 123.5q59 94 118.5 188t112.5 180l1 -2t5 2q12 12 27.5 32t19.5 55v14q0 29 -13 49t-36 37q-29 14 -47 14q-23 0 -41 -10t-31 -37q-8 -20 -16 -29q-6 -4 -13 -10t-14 -16q-37 -57 -79.5 -123 t-85.5 -135.5t-87.5 -140t-82.5 -136.5q-27 43 -64 101.5t-72.5 114t-64.5 98.5t-35 55q-33 45 -80 45q-25 0 -72 -27q-20 -20 -20 -65q0 -31 14 -53q4 -4 25.5 -37t54.5 -86q25 -39 53.5 -83t56 -89t52.5 -85t41 -69q-57 -92 -112.5 -181t-102.5 -167t-86 -140.5 t-64 -103.5q-2 -2 -2 -4t-2 -4q-14 -29 -28.5 -59.5t-22.5 -59.5q0 -4 -1 -10t-1 -10z" />
<glyph unicode="Y" horiz-adv-x="1056" d="M102 1053q0 -12 7 -25h-3q18 -57 60.5 -158.5t96.5 -219.5t116.5 -239.5t120.5 -222.5q-47 -82 -96.5 -166.5t-96.5 -160.5v2q-20 -29 -20 -58q0 -23 12 -39t31 -30q10 -10 24.5 -13.5t30.5 -3.5t36.5 7.5t39.5 29.5q18 25 44.5 69t55.5 93t55.5 94t42.5 74 q27 10 44.5 31.5t17.5 54.5q0 12 -2 23q49 88 96 171t97.5 165.5t105.5 172t121 189.5q41 61 87 121.5t93 113.5q16 16 21.5 32t5.5 32q0 35 -30 62.5t-69 27.5q-41 0 -76 -33q-47 -57 -95 -120.5t-95 -135.5q-92 -135 -173 -271t-142 -241q-16 -29 -29.5 -53.5t-28.5 -46.5 q-47 86 -96 185.5t-93 194.5t-80 178t-56 138q-10 33 -32 46.5t-46 13.5q-37 0 -70 -25t-33 -59z" />
<glyph unicode="Z" horiz-adv-x="1126" d="M96 27q0 -27 8 -43l-2 2q33 -98 209 -119q55 -6 115 -6q80 0 164 9t162.5 26.5t149.5 40t126 47.5q59 29 59 82q0 10 -2 23t-10 28q-12 23 -31.5 36t-48.5 13q-27 0 -51 -12q-39 -23 -96 -41.5t-125 -32.5t-141.5 -22.5t-147.5 -8.5q-14 0 -26.5 1t-24.5 1q-23 2 -35 7 t-16 10q0 10 12 24t31 33q82 86 196.5 189.5t231.5 207.5q78 68 147.5 130.5t124.5 115.5q45 43 67.5 90t22.5 88q0 28 -10 51q-16 43 -58 69t-114 26h-22q-199 -4 -370 -23.5t-327 -56.5q-59 -16 -90 -49q-37 -35 -37 -74q0 -33 15 -55q12 -23 27.5 -31t37.5 -8q20 0 44 8 t46 22q147 35 282.5 52.5t295.5 23.5q29 0 33 -6v-2h2q0 -12 -23 -35v2q-80 -70 -168 -148.5t-179 -162.5t-181 -169t-172 -167q-100 -104 -101 -186zM330 70q2 0 2 -2q-2 2 -2 4v-2z" />
<glyph unicode="[" horiz-adv-x="450" d="M63 -162v-20q0 -47 27 -86t103 -39h16q39 0 62.5 -1t45.5 -3q25 -2 53.5 -3t73.5 -1q43 0 67 28.5t24 63.5q0 37 -21.5 62.5t-62.5 31.5q-20 2 -37 2q-14 0 -29 2q-25 2 -45.5 3t-42.5 1q-10 0 -21.5 1t-25.5 -1q2 55 3 138t2 184.5t2 215t1 230.5v232q0 117 -1 219 t-3 187t-4 140h242q45 0 66.5 28t21.5 60v5q0 35 -25 63.5t-68 28.5q-49 0 -120.5 1t-157.5 5l4 -2q-18 8 -33.5 10t-25.5 2q-45 0 -65.5 -31.5t-20.5 -103.5v-23q0 -12 2 -22q4 -72 6 -200t2 -283q0 -156 -1 -324t-2 -319.5t-3 -274.5t-4 -186q-4 -10 -5 -21z" />
<glyph unicode="\" horiz-adv-x="974" d="M47 1268q0 -9 2 -19q8 -49 58.5 -134t126 -191.5t169 -228.5t189.5 -242q80 -102 156.5 -200.5t137 -182.5t100.5 -148.5t50 -101.5q10 -31 23.5 -43.5t36.5 -12.5q16 0 32 9l-2 -2q59 12 60 75v15q-4 41 -45 112.5t-105.5 163.5t-148.5 198.5t-174 221.5 q-68 86 -137.5 172t-133 170t-119 161t-96.5 144q0 74 -26 121q-16 33 -37 45t-43 12h-10t-17 -4l2 2q-27 -4 -38 -29.5t-11 -62.5v-20z" />
<glyph unicode="]" horiz-adv-x="421" d="M-90 1513q0 -33 21.5 -60.5t66.5 -27.5h242q-4 -55 -5.5 -140t-2.5 -187.5t-1 -218.5v-232v-231q0 -113 1 -214.5t2.5 -184.5t3.5 -138q-12 2 -22.5 1t-20.5 -1q-23 0 -44.5 -1t-46.5 -3q-14 -2 -30 -2q-14 0 -35 -2q-41 -6 -62.5 -31.5t-21.5 -62.5q0 -35 23.5 -63.5 t66.5 -28.5q45 0 75 1t52.5 3t46 3t62.5 1h16q76 0 103.5 39t27.5 86q0 23 -6 41q-2 63 -4 186t-3 274.5t-2 319.5t-1 324t2 283.5t6 199.5q2 10 2 22v23q0 72 -20.5 103.5t-65.5 31.5q-12 0 -26.5 -2t-33.5 -10l5 2q-86 -4 -158 -5t-121 -1q-43 0 -67.5 -29t-24.5 -63v-5z " />
<glyph unicode="^" horiz-adv-x="653" d="M205 727q0 -20 12 -35q20 -33 62 -33q23 0 38 9q12 8 26.5 15t27.5 15q25 16 51.5 30.5t46.5 29.5q10 -8 21.5 -17.5t25.5 -21.5l22.5 -22.5t24.5 -22.5q10 -10 22.5 -11t24.5 -1q29 0 50.5 17t21.5 46q0 10 -4 22.5t-16 24.5h-3q-23 25 -57.5 57.5t-62.5 59.5 q-27 20 -54 20q-14 0 -25 -5t-26 -13v2q-20 -10 -42.5 -23.5t-47.5 -29.5q-55 -29 -106 -60q-33 -20 -33 -53z" />
<glyph unicode="_" horiz-adv-x="993" d="M-61 -219q0 -31 26.5 -54.5t97.5 -23.5h9q16 -2 85.5 -3t170.5 -1h213h164t150.5 1t118.5 3t70 4q39 6 56.5 30t17.5 44v2q0 12 -9 27.5t-24.5 27.5t-33 21.5t-35.5 9.5h-8q-29 -2 -119 -2h-209h-401q-100 0 -178 -3t-105 -9q-23 -6 -40 -29t-17 -45z" />
<glyph unicode="`" horiz-adv-x="507" d="M170 872q0 -31 27 -49q51 -41 109.5 -84t111.5 -84q16 -14 39 -14q16 0 29.5 8.5t23.5 18.5q18 23 18 47q0 29 -28 49h2q-31 27 -63.5 51.5t-67.5 50.5q-23 16 -44.5 34t-43.5 34q-14 14 -41 14q-35 0 -54 -28q-18 -18 -18 -48z" />
<glyph unicode="a" horiz-adv-x="1216" d="M139 70q0 -100 58 -150q45 -39 108 -39q76 0 164 64q25 20 50.5 41.5t53.5 44.5q45 39 85 72.5t67 50.5q6 6 12 6q0 -31 12.5 -69t26.5 -58v2q33 -47 73 -68.5t107 -21.5h25q14 0 29 2q76 8 164 39.5t157 68.5q23 14 35 37t12 47q0 29 -20 56v2q-28 32 -66 32h-2 q-20 0 -45 -12q-23 -12 -54.5 -24.5t-65 -23.5t-66.5 -19.5t-58 -12.5h-8q-23 0 -37 10.5t-24 38.5q-6 14 -8 37t-2 51v31q0 51 -27 76t-68 25q-49 0 -102 -33v2q-33 -20 -75 -52t-86 -67t-86 -70.5t-75 -62.5l-24 -19q-23 -18 -35 -18q-4 0 -4 4q-2 2 -2 16t3 31t9 27 q20 43 56 91t78 92t85 81t80 61q78 53 135 54q18 0 36 -5.5t32 -17.5q27 -18 57 -18q29 0 52.5 13t37.5 36q12 20 13 47q0 16 -8.5 34.5t-28.5 35.5q-43 35 -85 50t-83 15q-76 0 -143.5 -35.5t-116.5 -66.5q-43 -29 -93.5 -70t-99.5 -91t-93 -107.5t-75 -118.5 q-43 -82 -47 -174z" />
<glyph unicode="b" horiz-adv-x="1056" d="M186 371q0 -66 3.5 -124.5t13.5 -101.5q10 -47 38.5 -67.5t57.5 -20.5q35 0 60.5 23.5t29.5 71.5v18q-2 12 -3 24.5t-1 26.5q0 6 1 15.5t3 19.5l-2 -2l6 16q2 4 3 8.5t5 12.5q14 29 42 54.5t61 45.5q66 41 134.5 63.5t115.5 26.5q10 2 16 2h10q31 0 43 -12q6 -12 6 -25 q0 -25 -22 -69q-16 -35 -46 -81t-65 -85q-53 -66 -125.5 -117t-164.5 -110q-39 -29 -39 -80q0 -18 10 -39q35 -53 78 -53q29 0 53 16h-2q88 57 171 115.5t152 136.5q45 49 82 104.5t62 106.5v-2q55 100 55 192q0 80 -41 131h-2q-29 29 -71 47.5t-101 18.5h-33q-14 0 -30 -4 h2q-78 -10 -157 -37t-134 -57q-20 -12 -42 -25.5t-40 -30.5q6 80 14 160t17.5 154.5t19.5 142.5t19 121l-3 -2q0 2 9 18q6 14 14 32.5t10 37.5v12q0 35 -24.5 55.5t-59.5 20.5h-8q-57 0 -84 -45q-20 -25 -26.5 -51.5t-12.5 -59.5q-12 -61 -26.5 -150t-25.5 -190.5 t-18.5 -208t-7.5 -200.5z" />
<glyph unicode="c" horiz-adv-x="1142" d="M147 154q0 -102 89.5 -163t248.5 -61h17q117 2 223 22.5t194.5 47.5t155 55.5t103.5 46.5q51 31 51 82q-1 25 -15 54h-2q-26 38 -73 38h-2q-25 0 -50 -12q-29 -16 -88 -41.5t-139 -50.5t-173 -43t-191 -18q-72 0 -106 21.5t-34 53.5q0 23 15 50q18 37 50 73.5t69.5 67.5 t76.5 53.5t74 32.5q18 -6 36.5 -8t37.5 -2q12 0 20 1t17 1q41 8 64.5 37.5t23.5 64.5q-2 35 -28 61.5t-79 34.5q-6 2 -16 2h-23q-47 0 -63 -4q-145 -53 -260 -142t-174 -194q-27 -43 -38.5 -85t-11.5 -76z" />
<glyph unicode="d" horiz-adv-x="1218" d="M143 193q2 -90 67.5 -159t195.5 -100q41 -10 101 -17t132 -7t151.5 10t165.5 41q41 14 57.5 36.5t16.5 49.5q0 20 -6 39q-12 27 -34.5 43t-53.5 16h-12q-76 -25 -150 -36t-137 -11q-57 0 -105.5 7.5t-78.5 15.5q-53 16 -78 36.5t-27 43.5q0 16 8.5 35.5t26.5 37.5 q31 31 71 62t82 54.5t81.5 37.5t74.5 14q39 0 75 -17t67.5 -45t58.5 -62.5t49 -67.5l-2 2q16 -35 44 -49.5t56 -14.5q41 0 72 30t31 89v15q-6 109 -17.5 247t-26 277t-29.5 267t-28 216q-6 47 -32.5 69.5t-57.5 22.5h-8t-14 -4l2 2q-31 -6 -54.5 -29.5t-23.5 -66.5v-8t4 -15 l-2 3q10 -74 21.5 -166.5t21.5 -192.5t19.5 -204.5t17.5 -202.5q-45 35 -101.5 66.5t-138.5 31.5q-59 0 -124.5 -23.5t-130 -59.5t-120 -80t-92.5 -85q-86 -96 -86 -188v-6z" />
<glyph unicode="e" horiz-adv-x="933" d="M127 180q0 -113 76 -184q55 -57 147 -70q47 -8 103 -8q66 0 131 11.5t125.5 28.5t115 37.5t97.5 37.5q23 10 41 16t34 12h-2q33 10 47.5 33t14.5 47q0 27 -8 43v-2q-12 23 -32 38.5t-46 15.5q-10 0 -16.5 -1.5t-12.5 -3.5q-20 -6 -46 -16t-54 -20q-84 -31 -187.5 -64 t-197.5 -33q-39 0 -70 8q-31 4 -49.5 24t-18.5 50q70 8 145 38t139.5 76t112.5 103.5t66 120.5q12 43 13 98q0 51 -17.5 96.5t-62.5 71.5q-41 27 -99 27q-41 0 -79.5 -10t-67.5 -27h2q-74 -37 -172 -158q-47 -61 -95 -151t-69 -207q-4 -18 -6 -37.5t-2 -40.5zM369 383 q20 53 53 100t67 82q33 35 56 47h-2q10 4 22.5 9.5t22.5 5.5q12 0 16 -4q2 -4 4 -11.5t2 -13.5q0 -12 -6 -37v2q-8 -29 -31.5 -56.5t-56.5 -51t-70.5 -42t-76.5 -30.5z" />
<glyph unicode="f" horiz-adv-x="788" d="M57 582q0 -35 21.5 -61.5t66.5 -26.5h5q47 0 90 6q-6 -63 -8.5 -135t-2.5 -150q0 -80 3.5 -162t10.5 -159.5t19 -149.5t29 -129q16 -47 38.5 -77t57.5 -50q23 -14 55 -14q33 0 68 30q29 29 29 62q0 25 -15 51q-6 10 -13 19.5t-11 15.5q-18 14 -25 33q-12 31 -21.5 86 t-17.5 127.5t-12 157.5t-4 175q0 70 2 142.5t10 144.5q20 2 44 4t46 6q66 8 135.5 15.5t135.5 19.5h-2q43 6 63 37t20 62q0 35 -22.5 61.5t-63.5 26.5q-4 0 -8 -1t-8 -1q-82 -10 -163 -18.5t-152 -16.5q16 94 38.5 178t57.5 156q18 35 43 70.5t47 58.5q35 35 74 58t67 26h4 q23 0 33 -31v2q0 -2 1 -3l1 -1q2 -6 2 -15q0 -12 6 -24l-2 2q6 -35 29 -52.5t51 -17.5q4 0 6.5 1t6.5 1q29 0 55.5 19.5t36.5 54.5v2q2 10 2 37v16q0 10 -2 21v-2q-2 33 -17.5 66.5t-42 60t-64.5 43t-87 16.5q-47 0 -91 -15.5t-84 -38t-72 -48t-52 -45.5q-35 -37 -64.5 -82 t-58.5 -99q-47 -96 -77 -208.5t-46 -229.5q-12 -2 -25.5 -3t-23.5 -1q-18 -2 -42 -4l-24 -2h2q-45 -6 -66.5 -35t-21.5 -59v-4z" />
<glyph unicode="g" horiz-adv-x="987" d="M135 135q0 -82 41 -127t113 -45q33 0 69.5 9.5t73.5 33.5h-2q20 10 39 23q45 23 88 46t72 36q8 4 14 4q10 0 12 -17q0 -4 1 -8t1 -8q8 -43 12.5 -88t4.5 -92q0 -35 -3 -73t-14 -85q-20 -94 -69 -175t-152 -144q-47 -35 -47 -80q0 -12 5 -26.5t14 -25.5q12 -18 34.5 -31.5 t49.5 -13.5q25 0 51 17l-2 -2q129 82 201.5 196.5t101.5 243.5q12 49 17 105.5t5 113.5t-5 112.5t-12 101.5t-16.5 81t-17.5 51q-16 35 -45 49.5t-63 14.5h-27q-12 0 -23 -4q-31 -10 -65.5 -25.5t-69.5 -34t-68.5 -39t-62.5 -36.5q-25 -12 -37 -13q-6 0 -6 10v11 q4 31 28.5 71.5t53.5 75.5h-2q37 37 82 71t91 58.5t90 39.5t79 15q29 0 43 -8h-2q23 -14 45 -14q35 0 62.5 29.5t27.5 70.5q0 23 -12 47.5t-39 40.5v-2q-29 18 -60.5 21.5t-64.5 3.5q-63 0 -129 -20.5t-128 -54.5t-116.5 -78t-97.5 -89q-66 -72 -115 -160t-49 -184z" />
<glyph unicode="h" horiz-adv-x="1284" d="M207 420q0 -72 3 -151t9 -156q4 -51 33 -76t67 -25q59 0 103 51q31 37 73 77t86 77t84 67.5t68 47.5q23 10 38 17t24 7q16 0 28 -41q0 -10 4 -12q10 -39 28.5 -92t55.5 -100q53 -66 121 -90.5t146 -24.5h12q86 2 161.5 27.5t168.5 66.5q29 14 42 37t13 47q0 12 -2 24.5 t-8 20.5v-2q-12 23 -32 39t-46 16q-18 0 -43 -12q-88 -39 -148.5 -58.5t-111.5 -19.5q-53 0 -76 12.5t-43 34.5q-18 23 -33.5 72t-23.5 92q-12 66 -41 101.5t-78 54.5q-35 12 -64 12q-41 0 -86 -15.5t-90 -41.5q-23 -14 -53.5 -36t-64 -47.5t-68.5 -54t-64 -57.5 q-2 18 -2 39v43q0 88 5.5 185.5t19.5 187.5t40.5 168t69.5 129q25 27 25 59q0 47 -53 74q-23 12 -49 12q-23 0 -45.5 -10t-36.5 -35l2 2q-96 -129 -132 -320.5t-36 -422.5z" />
<glyph unicode="i" horiz-adv-x="782" d="M195 207q0 -31 3 -60.5t9 -52.5q27 -92 74 -134t129 -42q47 0 112 16q41 10 91.5 28t101.5 36q55 23 105 38t81 19q49 6 68.5 32.5t19.5 57.5v5q-2 37 -25.5 65.5t-70.5 28.5h-4q-49 0 -120 -24.5t-140 -53.5q-41 -16 -80 -30.5t-68 -18.5q-12 -4 -20 -4h-17 q-39 0 -51 43q-8 31 -8 86v32q4 66 25.5 134.5t44.5 109.5q6 14 6 33q0 23 -16.5 42t-45.5 30q-23 8 -43 8q-37 0 -65 -23q-16 -16 -33.5 -47t-28.5 -53q-2 -6 -3 -11t-1 -14q0 -18 8 -26q-12 -41 -21 -86t-13 -92q-2 -14 -3 -32t-1 -40zM383 942q0 -53 39 -96 q23 -23 49.5 -32t50.5 -9q39 0 80 26q29 20 42 51t13 62q0 68 -53 109h-2q-36 24 -77 24h-3q-47 0 -80 -24q-31 -23 -45 -52.5t-14 -58.5z" />
<glyph unicode="j" horiz-adv-x="485" d="M-12 -590v-4q0 -37 25.5 -68.5t78.5 -31.5h4q53 0 92 35.5t62 80.5q39 76 70.5 170.5t53 199t33 214t11.5 215.5q0 104 -12.5 200.5t-40.5 178.5q-10 29 -31 41t-43 12q-14 0 -19.5 -1t-13.5 -3q-25 -8 -45 -26.5t-29 -47.5q0 -8 -1 -18t-1 -25q0 -16 1 -23t1 -15 q8 -35 31 -50q18 -111 18 -223q0 -184 -36.5 -366.5t-98.5 -321.5q0 -2 -2 -4l2 6q-10 -20 -18 -33q-4 0 -7 -1t-5 -1q-10 -2 -21.5 -3t-36.5 -19q-20 -20 -22 -68zM117 1024q0 -55 35 -96q39 -45 90 -45q49 0 80 24q29 23 42 52.5t13 62.5q0 68 -49 111q-16 16 -38 22 t-42 6q-49 0 -80 -28q-51 -39 -51 -109z" />
<glyph unicode="k" horiz-adv-x="1026" d="M178 186q0 -35 1 -66.5t3 -62.5q0 -47 29 -68.5t61 -21.5q37 0 61.5 21.5t28.5 66.5v80t5 98q51 -47 128.5 -101t169 -104.5t184.5 -90t175 -58.5q4 0 8 -1t8 -1q31 0 53.5 19.5t32.5 46.5q8 16 9 34q0 29 -16.5 52.5t-55.5 33.5q-72 12 -161 53.5t-173 90.5t-155.5 99 t-108.5 83q-10 10 -10 23q0 14 20 20q29 16 73 31.5t95 30t106.5 23.5t104.5 13h68q14 0 22 -2q6 -2 12 -2h15q41 0 61.5 27t22.5 61v9q0 31 -18.5 56.5t-63.5 31.5q-43 6 -90 6h-35q-55 -2 -115.5 -12.5t-119 -23.5t-109.5 -29.5t-88 -33.5q29 117 74 222.5t116 210.5 q14 27 15 51q0 25 -7.5 39t-17.5 24q-41 29 -70 29q-39 0 -69 -31q-55 -61 -96.5 -138t-72 -164t-52 -181t-35.5 -186q-12 -80 -17.5 -158t-5.5 -150z" />
<glyph unicode="l" horiz-adv-x="837" d="M190 481q0 -96 11.5 -177t37 -145.5t68.5 -111.5t107 -74q69 -26 155 -26h6q59 0 122 11t123.5 26.5t113.5 34t96 32.5v-2q10 4 19.5 8t19.5 9q35 16 52.5 39.5t17.5 52.5q-1 18 -9 32v-2q-23 63 -86 64q-20 0 -36 -8h2q-51 -18 -105.5 -37t-110 -33t-108.5 -23.5 t-98 -9.5q-12 0 -26.5 1t-24.5 3q-14 4 -29.5 11.5t-26.5 13.5q61 68 127 156t113 194q41 92 62.5 211t21.5 223v27q0 14 -2 27q-8 143 -51 216.5t-111 82.5l4 -2q-10 4 -24 4q-55 0 -117 -46t-121 -133q-37 -53 -72 -126.5t-61.5 -157.5t-43 -174t-16.5 -176v-15zM377 475 v21q2 72 16.5 146.5t35 143t46 127t49.5 95.5q23 35 39.5 50t26.5 15q18 -10 24 -96v-27q0 -43 -5 -93t-14 -98t-19.5 -90t-22.5 -69q-29 -70 -72 -132t-90 -120q-14 55 -14 127z" />
<glyph unicode="m" horiz-adv-x="1939" d="M225 274q0 -66 1 -131t5 -120q4 -70 64 -99h-2q10 -6 22.5 -8t24.5 -2q23 0 48.5 12.5t41.5 38.5q20 33 52 78t71 88q20 27 45 51q31 35 59.5 66t51.5 63q31 37 57 43q4 0 6 1t6 1q8 0 15 -10v2q12 -29 22 -55.5t21 -54.5h-2q10 -31 21 -65t28 -64q14 -27 40.5 -40.5 t55.5 -13.5t54.5 12.5t41.5 34.5q31 37 65 74t66.5 70t59 56.5t41.5 31.5q72 51 100 51q12 0 23 -31q23 -86 50 -159.5t76 -128.5q39 -45 86.5 -63.5t100.5 -18.5q66 0 139 28q29 8 59.5 16.5t59.5 14.5t53.5 11t38.5 9q8 -2 13 -4t1 2q8 -4 19 -4q29 2 51.5 21t34.5 37v-2 q18 25 18 51q0 35 -28 59v-2q-16 14 -36 21.5t-48 7.5h-13q-25 -2 -60.5 -9.5t-75.5 -18.5t-80 -22.5t-77 -23.5q-27 -10 -53 -10q-31 0 -53 24q-31 37 -56.5 108t-39.5 142q-37 164 -158 164h-4q-104 0 -250 -121q-18 -16 -41.5 -37.5t-48.5 -45t-48.5 -47t-41.5 -42.5 l-8 -4q4 0 0 4q-6 10 -13 35q-10 27 -22 57.5t-23 59.5q-29 59 -66.5 82.5t-80.5 23.5h-19q-8 0 -16 -2q-55 -10 -110.5 -50t-92.5 -85l-28 -35q-23 -27 -44.5 -51t-41.5 -47q-10 -10 -18.5 -19.5t-16.5 -19.5v45q0 61 2 124t6 120v6q0 41 -28.5 64.5t-63.5 23.5h-4 q-37 0 -64.5 -21.5t-34.5 -68.5q-4 -45 -5 -120t-1 -159z" />
<glyph unicode="n" horiz-adv-x="1357" d="M193 440q0 -37 30 -51v-51q0 -23 1 -49.5t1 -55.5v-213q0 -29 11.5 -51t46.5 -39q10 -6 23 -8t24 -2q25 0 49 12.5t41 44.5q10 18 30.5 46t46 55.5t53.5 53.5t52 44q29 18 57.5 44t57.5 50v-2q29 23 57.5 46.5t24.5 23.5h-2q18 10 33.5 17t31.5 7q6 0 10 -2q16 -4 19 -16 q2 -4 2 -10t2 -15v3q6 -41 17.5 -100.5t39.5 -119.5q35 -74 94.5 -109.5t133.5 -35.5q68 0 149 33q41 20 80 34.5t74 26.5h-2q31 8 55 19h16q12 0 23.5 3t26.5 7q29 12 41 35.5t12 48.5v4q-2 39 -23.5 65.5t-66.5 26.5q-20 0 -29 -2q-47 -10 -105.5 -31.5t-113.5 -44.5h2 q-16 -4 -31.5 -11t-32.5 -13q-29 -12 -59 -13q-51 0 -68 41q-16 37 -28.5 93.5t-22.5 130.5q-12 76 -56 112.5t-108 36.5h-12q-49 0 -106.5 -19.5t-100.5 -54.5q-41 -29 -86 -66.5t-86 -76.5q-6 -4 -12 -9t-12 -9q-20 -18 -42 -37t-42 -39v96q0 35 -1 67.5t-3 57.5 q0 6 -1 13t-1 14q-4 33 -31 49t-55 18h-11q-51 0 -73 -31q-16 -16 -28.5 -43.5t-16.5 -48.5z" />
<glyph unicode="o" horiz-adv-x="1122" d="M166 125q0 -90 35 -145q68 -119 252 -119h10q72 2 133 12t121 35q68 29 128 77t116 111q37 41 50 84t13 78q0 53 -20 94q16 2 30.5 3t24.5 5q27 10 39 31.5t12 44.5v4q0 35 -28.5 62.5t-69.5 27.5h-158q-27 20 -62.5 38t-70.5 22q-16 4 -35 4q-25 0 -43 -6q-49 37 -98 37 t-92 -25h2q-100 -49 -175 -143.5t-102 -216.5q-12 -59 -12 -115zM358 143q0 23 7 60q12 70 54 126t79 83l4 2q2 0 6 2q4 0 6 2q4 -31 41 -48.5t90 -17.5h141q47 -35 48 -86q-1 -32 -21 -55q-35 -45 -80 -82t-94 -57q-33 -12 -72 -20.5t-90 -8.5h-16q-59 0 -88 39 q-14 20 -15 61z" />
<glyph unicode="p" horiz-adv-x="1019" d="M78 662q0 -25 18.5 -48.5t59.5 -40.5q4 -2 20 -2q12 0 23 -2h34q-2 -10 -2 -18v-19q-16 -211 -34.5 -468t-18.5 -523v-90q0 -23 1 -47.5t5 -40.5v4q6 -47 33 -68.5t59 -21.5q47 0 84 39q23 20 32 50t9 52v9q-4 23 -12 40t-24 29v74q0 106 4 225t12 242q10 -27 36.5 -44.5 t67.5 -19.5q27 0 61 9.5t66.5 23.5t61 29.5t47.5 25.5q29 18 47 27.5t30.5 16t24 9.5t23.5 9l18 9t15 7q78 41 116.5 99t38.5 124v5q0 66 -42 128t-136 105q-125 61 -292 107.5t-378 56.5h-4q-53 0 -78.5 -32t-25.5 -70zM385 113q8 113 16.5 223.5t18.5 214.5 q47 -8 97 -22.5t96 -31t84 -31.5t61 -28q73 -33 73 -72q0 -34 -55 -67q-27 -14 -55 -27q-23 -8 -43.5 -16t-30.5 -16q-31 -18 -65.5 -36t-51.5 -22q-10 4 -20 4h-16q-41 0 -74 -24q-27 -31 -35 -49z" />
<glyph unicode="q" horiz-adv-x="1075" d="M170 145q0 -113 59 -170q57 -47 125 -47q33 0 71 11.5t79 33.5q31 18 62.5 39t62.5 39q45 29 79.5 50.5t51.5 29.5l1 1t3 1q-2 -2 -2 -4t-2 -4q-16 -47 -32.5 -116.5t-30 -145.5t-22.5 -152t-9 -137v-31q0 -16 2 -28q6 -61 35.5 -113.5t101.5 -56.5h6q45 0 71.5 33.5 t26.5 74.5v4q0 29 -16 50.5t-35 33.5q-4 10 -4 23v20q0 55 11.5 138t32 175.5t44.5 183.5t53 163q10 23 11 45q0 29 -13.5 49t-31.5 37q-36 26 -71 26h-3q-6 0 -15.5 -2t-19.5 -4q-33 -10 -76 -32.5t-92 -51t-100.5 -61.5t-98.5 -64q-10 -8 -21 -15t-22 -13q-27 -20 -45 -21 q-12 0 -18 6.5t-11.5 15.5t-5.5 23q0 10 3 17q4 57 20 103t49 99q18 33 48 67t65 65.5t71.5 57t71.5 42.5q20 8 33.5 12t26.5 4q16 0 26 -10q33 -23 64 -23q27 0 59 23q12 12 22.5 31.5t10.5 42.5t-19 57q-49 80 -143 80q-88 0 -174 -51q-86 -43 -172 -119t-150 -180 q-41 -66 -69.5 -153t-34.5 -181v-21z" />
<glyph unicode="r" horiz-adv-x="929" d="M190 461q0 -23 17 -33q-4 -33 -6 -75t-2 -89v-94v-47q0 -20 2 -41q2 -47 29.5 -70.5t62.5 -23.5t61.5 21.5t30.5 66.5v-2q4 27 8 48t21 48q23 37 82 74q39 25 85 49t90 43.5t85 32t69 16.5q4 2 11 2h12q14 0 43 -12h-2q10 -8 22.5 -10.5t22.5 -2.5q43 0 70 41h-3 q18 27 19 62q0 41 -35 67q-16 12 -49 24.5t-74 12.5h-8q-47 -2 -105.5 -18t-119 -40t-117.5 -53.5t-100 -60.5q-6 -2 -10.5 -6t-6.5 -5l-6 -3q2 31 6 67.5t11 59.5q0 4 1 8t1 8q0 29 -18.5 48.5t-41.5 27.5q-12 0 -22.5 2t-14.5 2q-25 0 -46 -11t-32 -40v2q-14 -37 -32 -68 q-10 -14 -11 -28z" />
<glyph unicode="s" horiz-adv-x="780" d="M94 -270q0 -27 14.5 -53.5t49.5 -45.5q43 -24 98 -24h4q59 0 102 28q102 57 174 128t126 151q29 47 48 104.5t19 116.5q0 57 -21.5 114.5t-70.5 98.5q-47 37 -91 59.5t-85 45.5q-16 8 -31.5 15t-32.5 15q-33 18 -37 33q2 20 43 49q31 23 74 44.5t88 39t87 28.5t69 11 q43 -29 84 -29q44 0 69 37q20 31 21 62q0 35 -27 65v-2q-18 25 -52 39t-75 14h-6q-59 -2 -122.5 -18t-122 -38.5t-110.5 -51.5t-89 -55h2q-76 -49 -114 -102.5t-38 -104.5q0 -53 37 -100.5t109 -75.5l13 -6.5l13 -6.5q66 -29 118 -56.5t85 -55.5q27 -27 27 -64v-8 q0 -29 -7.5 -56.5t-29.5 -58.5q-33 -53 -91.5 -109.5t-123.5 -96.5q-10 -8 -27 -9q-12 0 -20 9q-16 12 -30.5 16t-31.5 4q-29 0 -48 -14.5t-30 -36.5q-4 -12 -7 -25.5t-3 -23.5z" />
<glyph unicode="t" horiz-adv-x="735" d="M72 553q0 -35 21.5 -62.5t66.5 -27.5h125q0 -127 12 -242t35 -198q10 -43 37.5 -61.5t58.5 -18.5h8q6 0 17 4l-2 -2q29 6 48 29.5t19 58.5v8t-4 14l2 -2q-10 37 -18.5 85t-14.5 102.5t-10 112t-4 110.5q41 0 83 -1t79 -3q31 -2 57.5 -3t44.5 -1q47 2 68.5 29.5t21.5 60.5 q0 59 -37.5 76t-109.5 22q-53 4 -110.5 7t-94.5 3q0 70 8 156t20.5 173t28 169t31.5 145l2 2q10 16 16.5 32t6.5 40v6q0 35 -15.5 58.5t-40.5 40.5l2 -2q-27 16 -49 16q-53 0 -78 -55l3 4q4 4 -1.5 -5.5t-9.5 -15.5l-4 -18q0 4 -4 -5.5t-8 -13.5q-25 -37 -29 -57l2 2 q-4 -8 -4 -22q0 -20 10 -31q-16 -74 -28.5 -157t-22.5 -165t-16 -158.5t-6 -138.5q-18 -2 -37 -2h-33h-53q-47 -6 -68.5 -34.5t-21.5 -63.5z" />
<glyph unicode="u" horiz-adv-x="1349" d="M190 236q0 -43 5.5 -86.5t19.5 -77.5q47 -127 174 -158h-2q33 -6 76 -6q117 0 244 80q45 29 93 71.5t87 90.5q4 -29 13 -50.5t24 -44.5q33 -49 91 -72.5t122 -23.5q12 0 24.5 1t24.5 3q78 14 147.5 38t116.5 52q27 16 37 37t10 43q0 23 -10 43q-18 51 -74 51 q-25 0 -51 -14q-39 -23 -91 -41t-108 -25q-6 0 -10 -1t-8 -1q-25 0 -44.5 10.5t-29.5 39.5v-2q-6 18 -10 42.5t-4 55.5q0 68 22 164v-2q2 10 2 14v8q0 31 -21.5 52.5t-49.5 27.5l2 -2q-10 4 -17 4h-10q-29 0 -52.5 -12.5t-37.5 -42.5q-33 -92 -105.5 -189.5t-189.5 -177.5 q-33 -23 -64.5 -34t-58.5 -11q-18 0 -35 4q-37 12 -49 53q-12 37 -12 95q0 63 12.5 136t32.5 132l-2 -2q4 10 4 16v17q0 35 -25.5 56t-58.5 21q-31 0 -59.5 -17t-44.5 -54q-16 -47 -33 -134t-17 -177z" />
<glyph unicode="v" horiz-adv-x="915" d="M129 537q0 -16 3 -33t13 -27q10 -82 23.5 -165t38.5 -156q14 -41 32.5 -82t34.5 -72q80 -129 175 -129q96 0 176 141q41 72 83 168.5t72 173.5q10 -2 21 -2h20h27q14 0 24 2q47 6 69 38t22 67q0 33 -18.5 58.5t-59.5 25.5q-4 0 -7.5 -1t-7.5 -1h-43q-18 0 -26 2 q-12 23 -35 39t-53 16q-25 0 -43 -10q-74 -29 -74 -98q0 -37 18 -62q-29 -78 -63.5 -155.5t-73.5 -143.5q-10 -18 -17 -23.5t-14 -7.5q-4 0 -24 33v-2q-10 14 -19.5 38t-15.5 46h2q-16 49 -26.5 102.5t-18.5 103.5t-12 94t-6 75q-6 51 -31 71.5t-55 22.5h-4q-35 0 -63 -22.5 t-36 -69.5v-8q0 -2 -4 -13q0 -4 -1 -3t-2 0t-1 -7v-24z" />
<glyph unicode="w" horiz-adv-x="1697" d="M166 154q0 -61 25.5 -107.5t70.5 -77.5q61 -43 150 -43q102 0 198 68q53 35 89 63.5t67 55.5q10 10 18 10h2q10 -29 31 -63.5t45 -59.5q51 -55 114.5 -77.5t135.5 -22.5q88 0 168 23.5t145 56.5q158 78 209 182q16 31 23.5 62.5t7.5 60.5q0 39 -11.5 78.5t-33.5 76.5 q-16 33 -41 69t-53 66q-2 31 -16.5 49.5t-36.5 30.5q-33 27 -76 27t-76 -33q-27 -27 -27 -61q0 -41 31 -72q2 -4 4 -5t4 -3q33 -37 67 -77t56 -81v2q6 -16 10 -31.5t4 -31.5q0 -23 -10 -49q-20 -45 -121 -97h2q-59 -27 -116.5 -43t-110.5 -16q-37 2 -66.5 12t-54 37t-45 83 t-33.5 95q-10 25 -32.5 40.5t-51.5 15.5q-51 0 -92 -39q-23 -20 -52.5 -46t-61 -51.5t-62.5 -49t-57 -38.5q-23 -16 -47.5 -22t-44.5 -6q-16 0 -29 4h2q-31 18 -31 51q2 43 13.5 83t28 72.5t36 54t39.5 30.5q2 0 6 1t8 1h25q39 0 56.5 22.5t19.5 52.5v5q0 35 -21.5 59 t-64.5 31l2 -2q-10 4 -17 4h-14h-18t-15 -2q-57 -10 -107 -51.5t-87 -99.5t-58.5 -131t-21.5 -146z" />
<glyph unicode="x" horiz-adv-x="1046" d="M-88 -117q0 -41 27.5 -71.5t74.5 -30.5q18 0 27 2q35 10 58.5 37.5t27.5 56.5q96 82 197.5 164t189.5 145q45 -55 90 -103t92 -89q53 -43 108.5 -62.5t108.5 -19.5q39 0 74 9t63.5 25.5t39 37t10.5 43.5q0 33 -19 57q-22 39 -69 38q-23 0 -54 -13q-10 -6 -22 -8.5 t-25 -2.5q-49 0 -100 41q-35 27 -72 68t-75 94q59 47 119.5 92t119.5 86q41 29 77 56.5t69 52.5q23 18 30.5 37.5t7.5 38.5q0 37 -22 59v-2q-14 16 -31.5 28.5t-40.5 12.5q-12 0 -26.5 -4t-28.5 -17h2q-55 -43 -125 -95t-141 -105q-31 -23 -58.5 -43.5t-54.5 -40.5 q-10 14 -22.5 34.5t-24.5 43.5q-18 31 -37.5 60.5t-36.5 51.5q-35 35 -73 35q-41 0 -72 -29.5t-35 -70.5v-11q0 -18 1 -38.5t11 -36.5q20 -31 66 -35q10 -14 23.5 -38t29.5 -52q4 -6 9.5 -13.5t11.5 -15.5q-84 -66 -150.5 -117t-122 -94t-100.5 -82t-86 -76q-41 -41 -41 -90 z" />
<glyph unicode="y" horiz-adv-x="1273" d="M147 180q2 -70 27 -111.5t53 -64.5q31 -25 61.5 -35t65.5 -10q92 0 195 68q45 29 99 70.5t107.5 86.5t102.5 88t82 74q4 6 12.5 9t14.5 3q4 0 4 -6v-8q-2 -92 -9.5 -205.5t-18.5 -232.5t-28.5 -233.5t-42.5 -207.5q-2 -8 -3 -13t-1 -15q0 -39 22.5 -61.5t53.5 -28.5v2 q10 -4 21 -4q33 0 59.5 21.5t34.5 62.5q25 113 45 244.5t33.5 263t21.5 252t8 210.5q0 37 -1 67.5t-3 53.5q-6 47 -28.5 74t-51.5 39q-23 8 -45 8q-57 0 -94 -39q-53 -51 -115.5 -109.5t-127 -114.5t-128 -106.5t-120.5 -87.5q-40 -28 -70 -28h-2q-4 0 -9 2l-10 4 q-6 6 -12 16t-6 27q0 27 11.5 60.5t27.5 68.5t35.5 65.5t36.5 53.5q28 38 28 65t-14 46.5t-37 33.5q-16 10 -47 10q-47 0 -82 -43v2q-23 -27 -50.5 -71.5t-51 -98t-39 -111t-15.5 -106.5z" />
<glyph unicode="z" horiz-adv-x="880" d="M150 33q0 -10 1 -19.5t5 -19.5v2q23 -70 108 -86q29 -4 67 -6t79 -2q68 0 143.5 6t147 16t133 22.5t100.5 26.5v-2q35 10 50 36t15 52v9q0 4 -4 14l2 -2q-6 27 -27.5 46t-54.5 19q-10 0 -17 -1t-13 -3q-43 -12 -97.5 -22t-112 -17.5t-112.5 -11.5t-98 -4h-29q-14 0 -26 2 q-4 2 -9 2h-2q0 4 7 8q41 53 92 102.5t98 90.5q16 12 28.5 22.5t24.5 20.5q92 92 92 170q0 27 -12 51q-41 96 -188 96h-49t-61 1t-61.5 2t-54.5 3q-29 18 -57 19q-27 0 -61 -21v2q-45 -27 -45 -75q0 -35 25.5 -62.5t70.5 -34.5q18 -2 44.5 -3t58.5 -2t66 -2t64 -1 q29 0 29 -4q2 -4 2 -6q0 -14 -25 -35v2q-12 -10 -25 -23.5t-28 -27.5q-53 -47 -119.5 -109.5t-121.5 -134.5q-25 -29 -34 -55.5t-9 -50.5z" />
<glyph unicode="{" horiz-adv-x="518" d="M39 651q0 -18 6 -36.5t21 -34.5q16 -23 32.5 -32t34.5 -20l12 -6q6 -16 11.5 -32.5t11.5 -32.5h-2q23 -70 39 -139.5t16 -135.5q0 -18 -2 -39.5t-8 -48.5q10 -29 13 -56.5t3 -55.5q0 -47 2 -96.5t12.5 -93.5t32 -82t62.5 -62q31 -10 55.5 -14.5t48.5 -4.5q39 0 76 6.5 t72 14.5q43 10 61.5 37.5t18.5 60.5q0 37 -26 68.5t-69 31.5q-14 0 -24 -2q-4 -2 -10 -2t-11 -2l2 2q-23 -4 -44 -8t-42 -4h-10q-10 66 -13 131.5t-5 130.5q-4 117 -14.5 228.5t-61.5 222.5v-2q-6 23 -11 46t-20 46l2 2q2 0 4 2q16 16 34 28.5t32 22.5q33 53 44 104.5 t11 102.5q0 47 -6 93t-12 91q-8 47 -15.5 93.5t-7.5 87.5q0 35 6.5 67.5t22.5 65.5q23 23 43 37t43 22q35 12 50 37t15 53q0 37 -26.5 70t-67.5 33q-19 -1 -37 -9v2q-55 -16 -100 -50t-79 -81t-52 -102t-18 -115q0 -27 4 -51t10 -49q0 -33 5 -66.5t13 -66.5q6 -37 11.5 -74 t5.5 -65q0 -31 -7.5 -56.5t-23.5 -48.5q-6 -6 -12 -13t-15 -14q-16 -16 -31.5 -27t-35.5 -13q-41 -6 -60.5 -34t-19.5 -63z" />
<glyph unicode="|" horiz-adv-x="530" d="M186 -322q0 -23 11.5 -35t31.5 -24q14 -6 29 -6q37 0 59 43q33 51 42.5 194.5t9.5 337.5q0 74 -1 154t-3 162q0 86 -1.5 168t-1.5 166q0 135 3.5 258t13.5 221q16 31 29.5 58.5t15.5 51.5q0 6 1 13.5t1 13.5q0 35 -11.5 51.5t-29.5 30.5q-20 8 -25 8q-23 0 -43.5 -22.5 t-40.5 -59.5q-20 -39 -31.5 -127t-16.5 -206.5t-6 -261t-1 -287.5v-361q0 -90 -1 -171t-3 -145.5t-7 -111.5t-13 -67q-10 -35 -11 -46z" />
<glyph unicode="}" horiz-adv-x="573" d="M-66 -252q0 -33 20.5 -60.5t61.5 -37.5q35 -8 71 -14.5t77 -6.5q25 0 49.5 4.5t54.5 14.5q39 25 61.5 62.5t33 81.5t12.5 93t2 97q0 29 3 56.5t13 55.5q-6 27 -8 48.5t-2 39.5q0 66 16.5 135.5t38.5 139.5h-2q4 16 10.5 32.5t10.5 32.5q2 2 14 6q16 10 33.5 19.5 t34.5 32.5q27 33 26 71q0 35 -19.5 62.5t-60.5 34.5q-23 2 -38 13t-31 27q-8 6 -14.5 13.5t-12.5 13.5q-18 23 -24.5 48.5t-6.5 58.5q0 31 5.5 66.5t13.5 72.5q8 33 12 66.5t6 64.5q12 49 13 100q0 57 -18.5 113.5t-50.5 102.5t-78 81t-101 51v-2q-23 8 -37 9 q-41 0 -67.5 -33t-26.5 -70q0 -29 15 -53.5t50 -36.5q23 -8 42.5 -22.5t41.5 -36.5q16 -31 21.5 -64t5.5 -67q0 -41 -6 -87.5t-14.5 -93.5t-14.5 -93t-6 -93q0 -53 11 -104.5t46 -100.5q14 -10 31.5 -23.5t36.5 -29.5l4 -4q-14 -23 -20.5 -46.5t-10.5 -47.5 q-49 -111 -59 -221.5t-15 -225.5q-2 -66 -6 -131t-14 -131h-8q-20 0 -42 4l-44 8l2 -2q-4 2 -13 2q-6 0 -10 2q-10 2 -14 2h-8q-45 0 -71 -31.5t-26 -68.5z" />
<glyph unicode="~" horiz-adv-x="718" d="M186 715q0 -18 12.5 -32.5t26.5 -18.5h-2q20 -10 41 -11q39 0 62 35q33 45 59 45q23 0 51 -22q82 -59 158 -60h4q47 0 85 27.5t58 93.5h-2q2 10 2 19q0 45 -47 59q-20 4 -24 4q-20 0 -40 -10t-30 -35q-6 -23 -14 -23q-14 0 -66 33q-72 47 -141 47q-47 0 -97.5 -28.5 t-82.5 -89.5l2 4q-14 -14 -15 -37z" />
<glyph unicode="&#xa1;" horiz-adv-x="604" d="M240 -580q0 -16 1 -39.5t5 -39.5v2q6 -39 28.5 -59.5t47.5 -20.5q33 0 57 22.5t29 67.5q4 53 10 137t10 184q6 119 14.5 248t18.5 242v10q0 41 -25.5 61.5t-56.5 20.5t-54.5 -19.5t-25.5 -60.5q-8 -84 -15.5 -178t-13.5 -186.5t-10 -179.5t-8 -154q-4 -10 -8 -22.5 t-4 -35.5zM307 582q0 -29 9.5 -54.5t31.5 -48.5q31 -25 66 -24q39 0 69 24q43 39 43 99q1 49 -30 86q-33 39 -80 38q-37 0 -68 -24q-20 -16 -30.5 -42t-10.5 -54z" />
<glyph unicode="&#xa2;" horiz-adv-x="856" d="M150 369q0 -84 65.5 -137.5t202.5 -65.5q0 -29 4 -60.5t8 -52.5q10 -47 36 -71.5t62 -24.5q8 0 16.5 1t20.5 5l-2 -2q25 10 40 32.5t15 47.5q0 45 -40 70q-4 10 -5 24v37q47 6 92.5 24.5t79.5 41.5v-2q27 16 49.5 31.5t39.5 29.5q8 6 13 11t11 9q41 29 41 66q0 24 -18 47 h2q-25 27 -66 27q-20 0 -45 -8q-10 -4 -26.5 -17.5t-32.5 -28.5q-16 -12 -30.5 -22t-18.5 -14v2q-16 -10 -42 -20.5t-53 -14.5v10q0 76 5.5 152.5t11.5 148.5v4h2q8 -4 17 -5t20 -1q16 0 32.5 3t28.5 9q27 12 44.5 37t17.5 53q0 29 -18.5 52.5t-61.5 29.5q-4 0 -10.5 1 t-12.5 1q-10 0 -20.5 -1t-20.5 -3l2 13q4 29 8 51t11 51q2 6 3 10t1 17q0 27 -18.5 42t-41.5 19q-4 0 -9 1t-9 1q-29 0 -51.5 -15.5t-28.5 -44t-15.5 -85t-13.5 -117.5q-66 -37 -135 -102.5t-110 -143.5q-47 -84 -47 -153zM319 391q0 20 17 60q16 35 39.5 63.5t50.5 50.5 q0 -6 -1 -11t-1 -9q-4 -45 -7 -91t-3 -92v-30q-51 4 -73 19.5t-22 39.5z" />
<glyph unicode="&#xa3;" horiz-adv-x="1083" d="M121 25q0 -31 24 -54v2q49 -53 122 -81.5t149 -28.5q41 0 83 9t79 32q4 0 8 -1t8 -1q29 -2 63.5 -3t73.5 -1q51 0 107.5 4t105.5 17t89 35.5t63 59.5l-2 -2q18 25 18 51q0 35 -26.5 55.5t-59.5 20.5q-18 0 -36.5 -8t-33.5 -27q-23 -27 -81 -38t-127 -11h-27q-10 0 -25 2 q4 16 4 25q0 25 -10 51.5t-26 50.5q-8 10 -17.5 22.5t-19.5 29.5l-47 71q41 0 80.5 2t76.5 4h78q37 0 58.5 24.5t21.5 55.5q0 25 -19.5 52.5t-60.5 27.5q-35 0 -74 -1t-79 -3q-43 -2 -86.5 -4t-83.5 -2q-68 119 -68 201q0 41 26.5 75.5t79.5 59.5q51 20 106.5 30.5 t102.5 10.5q10 0 20.5 -1t20.5 -3q2 -12 8.5 -24.5t22.5 -20.5q31 -18 65.5 -27.5t67.5 -11.5q20 0 34.5 7t29.5 19q25 27 24 60q0 14 -12 43q-18 39 -70.5 68.5t-107.5 41.5q-37 6 -92 6q-72 0 -151 -17t-138 -42q-115 -53 -159 -127t-44 -158q0 -102 49 -196 q-14 0 -23.5 -2t-19.5 -6q-27 -10 -36 -28t-9 -40q0 -33 22.5 -54.5t57.5 -23.5h86q16 -29 37.5 -58.5t44.5 -58.5q16 -23 27.5 -42t19.5 -31q4 -10 8 -19.5t4 -17.5t-4 -13q-59 4 -127.5 13.5t-126.5 15.5q-14 2 -26 2q-10 0 -21 2q-6 4 -12 4h-8q-43 0 -68 -34 q-12 -16 -12 -41z" />
<glyph unicode="&#xa5;" horiz-adv-x="1048" d="M59 190q0 -23 8.5 -37t20.5 -26v2q10 -10 24.5 -15t26.5 -5q25 0 37 10h-2q8 2 21 14q4 4 7 5t7 3l-16 -28q-18 -27 -19 -54q0 -23 12.5 -39t30.5 -30q10 -10 24.5 -14.5t28.5 -4.5q18 0 38 8.5t38 30.5q16 23 39 57.5t45 71.5h111q29 0 54.5 1t45.5 3q37 6 54.5 28.5 t17.5 45.5v4q0 29 -17.5 51.5t-50.5 22.5h-12q-12 -2 -26.5 -3t-31.5 -1q-10 0 -24 1t-31 1h-2q8 12 14.5 22.5t12.5 20.5q12 4 16 8q14 0 28.5 -1t24.5 -1q53 0 91 6q35 6 52 29.5t17 46.5v4q0 29 -17.5 51.5t-49.5 22.5h-13q-12 -2 -28 -2h-33q25 43 37 65.5t21 36.5 t15.5 23.5t18.5 27.5q4 8 10 15q14 20 36 53t56 86q41 63 88.5 123.5t90.5 111.5q29 35 28 64q0 35 -29.5 62.5t-68.5 27.5q-41 0 -76 -33q-47 -57 -94 -119.5t-94 -134.5q-41 -61 -66.5 -99t-41 -61.5t-24 -38t-16.5 -28.5q-6 -10 -13 -22.5t-17 -28.5q-53 102 -77 181 t-44 151q-10 37 -21.5 74.5t-25.5 76.5q-10 31 -32 45.5t-46 14.5q-37 0 -69 -26t-32 -61q0 -10 7 -22h-2q6 -23 12 -43.5t10 -44.5q23 -94 57.5 -208t114.5 -261q-8 0 -16 1t-15 1q-35 0 -61.5 -2t-42.5 -6h2q-35 -8 -59.5 -32t-30.5 -58q0 -4 -1 -8.5t-1 -6.5 q0 -41 29 -63v2q20 -20 51 -21q20 0 37 11h-2l10 5t10 7q12 8 18 8q10 2 25 2h33h2l-8 -12q-4 -10 -9.5 -18.5t-11.5 -16.5q-14 0 -27.5 1t-25.5 1q-35 0 -60.5 -2t-41.5 -6h2q-35 -8 -58.5 -30.5t-32.5 -57.5q0 -4 -1 -8t-1 -9z" />
<glyph unicode="&#xa6;" horiz-adv-x="544" d="M145 -78v-16q0 -29 9.5 -46.5t29.5 -33.5q10 -4 16.5 -6t10.5 -2q23 0 44.5 22.5t41.5 59.5q35 61 44 121.5t9 119.5q0 18 -1 39t-1 37q-2 18 -2 35v37q0 45 6 90t23 92q8 18 8 35q0 23 -11.5 37t-31.5 24q-8 2 -16.5 4t-12.5 2q-37 0 -63 -41q-29 -45 -38 -62t-9 -38 v-14q0 -6 2 -15q2 -14 4 -36.5t2 -61.5q0 -41 -3 -104.5t-13 -157.5q-18 -25 -30.5 -52.5t-15.5 -51.5q-2 -8 -2 -17zM205 850q0 -23 11 -35t32 -24q14 -6 28 -7q37 0 64 41q29 47 37 65.5t8 35.5q0 16 -2 26q-4 16 -6 43t-2 74q0 39 2 99.5t10 146.5q20 29 32.5 55.5 t14.5 52.5q0 6 1 13.5t1 13.5q0 35 -11 51.5t-30 30.5q-20 8 -24 8q-23 0 -44.5 -22.5t-41.5 -59.5q-33 -61 -44.5 -123.5t-11.5 -124.5q0 -25 1 -48t3 -48q2 -23 3.5 -45t1.5 -45q0 -33 -7.5 -67.5t-17.5 -69.5q-8 -23 -8 -37z" />
<glyph unicode="&#xa7;" horiz-adv-x="1060" d="M35 301q0 -35 10 -57v2q41 -109 195 -117q84 -4 152.5 -12t109.5 -27q33 -16 46 -49t13 -74q0 -12 -2 -26.5t-6 -30.5q-4 -18 -19.5 -66.5t-38 -97.5t-52 -87t-60.5 -38h-10q-10 2 -18.5 4t-12.5 2q-41 0 -62.5 -25.5t-27.5 -60.5v-8q0 -35 24.5 -68.5t77.5 -42.5h-2 q6 -2 15 -2h14q47 0 90 19.5t76 56.5h-2q78 88 124 182.5t68 188.5q2 16 4 30.5t4 30.5q66 23 103 66q78 92 122 183t68 190v-2q10 47 11 100q0 61 -23 133q-18 53 -57 99t-101 69q-66 23 -116 30t-97 11q-12 0 -24.5 1t-24.5 3h2q-53 18 -53 39q0 18 20 45q23 33 56 67.5 t68.5 67.5t70.5 57.5t61 34.5q14 -4 32 -6t28 -2q37 0 59.5 21.5t28.5 50.5q2 4 3 9t1 15q0 25 -13.5 49.5t-39.5 40.5l2 -2q-33 23 -74 23q-16 0 -36.5 -4t-37.5 -14q-57 -23 -111.5 -60t-101.5 -80t-87 -87t-66 -83q-82 -113 -82 -190q0 -35 14 -74q-72 -53 -132 -116.5 t-101 -116.5q-82 -111 -82 -195zM248 332v4q0 25 26 59q23 33 55.5 68t68.5 67.5t71 57t61 35.5q14 -4 32 -5.5t28 -1.5q63 0 119.5 -6t93.5 -22q33 -14 47 -46t14 -69q0 -29 -10 -65q-6 -31 -19.5 -68t-32 -74t-42 -71.5t-49.5 -61.5q-20 43 -56.5 79t-85.5 56v2 q-51 16 -96 23.5t-90 11.5q-23 4 -44.5 6t-45.5 6q-37 2 -45 15z" />
<glyph unicode="&#xa8;" horiz-adv-x="714" d="M186 760q0 -43 31 -69.5t78 -26.5q43 0 75.5 28.5t32.5 67.5q0 41 -31.5 70.5t-78.5 29.5t-76 -29.5t-31 -70.5zM506 760q0 -43 30.5 -69.5t77.5 -26.5q45 0 76 26.5t33 69.5q0 41 -34 70.5t-77 29.5q-47 0 -76.5 -29.5t-29.5 -70.5z" />
<glyph unicode="&#xa9;" horiz-adv-x="1726" d="M45 559q0 -125 57 -225l2 -2q59 -92 168 -150.5t254 -68.5q47 -6 103.5 -11.5t122.5 -5.5q111 0 229.5 20.5t232.5 78.5q61 31 128 77.5t128 104.5q0 -2 2 -3l1 -1q4 -12 4 -17q6 -29 40.5 -45t69.5 -16q4 0 8 1t9 1q39 14 72.5 39.5t33.5 85.5v16q0 18 -3 43t-7 52.5 t-9 55t-12 50.5q10 20 11 39q0 39 -35 67q-18 80 -57 183.5t-98.5 213t-141.5 215t-189 191.5q-113 92 -216 133t-203 41h-31q-14 0 -27 -2q-152 -25 -266.5 -137.5t-167.5 -294.5h2q-14 -41 -30.5 -89t-34.5 -101q-33 -88 -66 -179.5t-55 -168.5q-16 -49 -22.5 -97.5 t-6.5 -93.5zM238 526q0 29 5 63t13 68q8 49 23.5 108.5t35 123t42 128t42.5 124.5q10 31 20.5 59.5t20.5 56.5q43 125 103.5 202t158.5 85h19q55 0 124.5 -23.5t155.5 -88.5q92 -68 170 -166.5t139.5 -207t103.5 -215t61 -188.5q-82 -109 -164 -180.5t-178 -112.5 q-86 -45 -196 -66.5t-235 -21.5q-57 0 -114.5 4.5t-116.5 12.5h2q-156 32 -207 110l2 -2q-31 55 -30 127zM326 678q0 -106 90 -167.5t252 -61.5h16q119 2 227.5 21t197.5 47t156.5 57.5t104.5 50.5q51 33 51 84q0 28 -16 55l-2 2q-29 39 -76 39q-27 0 -49 -14 q-29 -16 -89.5 -43t-140 -52.5t-176 -44t-194.5 -18.5q-72 0 -105.5 22.5t-33.5 55.5q0 23 12 51q18 37 51 74.5t71 69.5t78 56.5t74 34.5q18 -8 38 -10t36 -2q12 0 21.5 1t17.5 3q41 8 64.5 39t23.5 66q-2 35 -27.5 62.5t-80.5 35.5h2q-8 2 -19 2h-22q-47 0 -64 -4 q-147 -53 -263 -146.5t-177 -197.5q-27 -47 -38 -89t-11 -79z" />
<glyph unicode="&#xaa;" horiz-adv-x="966" d="M66 858q0 -72 38 -104q33 -27 76 -27q49 0 115 43q16 14 33.5 29.5t38.5 29.5q31 29 58.5 51.5t45.5 34.5q8 4 8 5q0 -23 8.5 -48.5t18.5 -40.5v3q23 -33 50.5 -48.5t74.5 -15.5h16q10 0 21 2q53 4 114.5 26.5t108.5 49.5q33 18 33 57q-1 16 -15 39q-20 25 -47 25 q-10 0 -31 -11q-33 -16 -83 -32.5t-84 -22.5h-7q-31 0 -43 35q-4 10 -5 25.5t-1 35.5v21q0 35 -18.5 52.5t-46.5 17.5q-35 0 -72 -23v2q-23 -14 -52.5 -35.5t-60 -46t-59.5 -49.5t-51 -43l-17 -14q-16 -12 -24 -13l-2 2q-2 2 -2 13q0 23 8 39q14 31 38.5 63.5t54.5 63 t60.5 57.5t55.5 43q55 37 92 37q27 0 47 -17q18 -12 41 -12q20 0 35.5 9.5t26.5 23.5q8 14 8 33q0 12 -5.5 25.5t-19.5 23.5q-31 25 -59.5 35t-57.5 10q-53 0 -99 -24.5t-81 -47.5q-29 -18 -63.5 -47t-68.5 -63.5t-65.5 -74.5t-52.5 -83q-29 -53 -32 -119z" />
<glyph unicode="&#xab;" horiz-adv-x="710" d="M131 299q0 -16 6 -28.5t17 -28.5v2q18 -29 41.5 -64t48 -68.5t47 -64.5t39.5 -51q25 -25 55 -25q20 0 37 13q29 16 29 53q-1 17 -11 37l-2 2q-18 25 -36.5 49.5t-34.5 46.5q-23 31 -45.5 57.5t-45.5 67.5q-2 2 -2 4v4q27 41 68 91t94 110h-2q18 20 19 45q0 31 -25 49 q-20 16 -43 16q-25 0 -47 -22q-23 -25 -48.5 -55.5t-51 -62.5t-49 -63.5t-37.5 -58.5q-20 -27 -21 -55zM383 299q0 -29 20 -57v2q18 -29 42 -64t48.5 -68.5t47 -64.5t41.5 -51q20 -25 53 -25q20 0 37 13q29 16 28 53q0 21 -10 37l-2 2q-33 47 -72 96q-23 31 -44 57.5 t-44 67.5q-2 2 -2 4v4q25 41 66 91t94 110h-2q18 18 18 45q0 31 -24 49q-16 16 -43 16q-25 0 -47 -22q-23 -25 -48.5 -55.5t-51 -62.5t-49 -63.5t-38.5 -58.5q-10 -14 -14 -28.5t-4 -26.5z" />
<glyph unicode="&#xac;" horiz-adv-x="1642" d="M45 1188q0 -20 16.5 -39t44.5 -19q25 -2 66 -3t84 -1h76q41 0 78 2q0 -27 -1 -53t-1 -55q0 -35 -1 -71t-1 -72q0 -59 2 -113.5t8 -93.5q4 -41 23.5 -58.5t41.5 -19.5q6 -2 17 -2q20 0 36.5 12t20.5 39q2 6 2 14q0 14 -7 23.5t-18 19.5q-4 25 -6 79t-2 120v125q0 61 4 108 q8 0 14.5 1.5t14.5 1.5h23q-4 -29 -5 -58v-55q0 -43 2.5 -86t6.5 -90q2 -33 18 -47.5t41 -14.5q39 0 62 29h-3q18 18 41 40.5t46.5 42t44 36t34.5 22.5q20 10 27 11q4 0 8 -13q2 -4 3 -8t3 -8v2q10 -25 18.5 -51.5t24.5 -48.5q37 -49 88 -58q2 -31 13.5 -53.5t31.5 -42.5 q31 -35 89 -41q10 0 21 -1t24 -1q-14 -59 -25.5 -153.5t-15.5 -188.5q-8 -2 -15 -2q-23 0 -30 22q-4 6 -5 39v21q0 33 -16 48t-43 15q-29 0 -59 -18h2q-29 -14 -63 -42l-68 -56q-16 -14 -30.5 -26.5t-27.5 -23.5l-8 -8v4q0 16 6 29q23 45 71 95t87 77q39 25 68 25 q20 0 30 -9q12 -12 39 -12q37 0 53 29q8 14 9 33q0 27 -23 45q-49 37 -98 36q-43 0 -81 -19t-61 -38l3 2q-49 -31 -107.5 -89t-95.5 -128q-25 -47 -25 -96v-31q-35 -12 -82 -23.5t-96 -19.5t-97 -13t-85 -5q-29 0 -33 4q-8 8 -8 18q0 18 10 53q45 143 69.5 273.5t34.5 243.5 v6q0 27 -16 39t-39 16q-2 0 -5 1t-5 1q-18 0 -36.5 -15.5t-18.5 -39.5q-12 -92 -33 -215t-68 -279q-18 -59 -18 -106q0 -55 29 -84q14 -16 42.5 -26.5t75.5 -10.5q49 0 118 7t140.5 19.5t136 31t105.5 42.5q35 6 84 43q12 10 20.5 18.5l20.5 20.5q20 16 39.5 33.5t34.5 28.5 q4 -14 9 -31t15 -27v2q16 -29 40 -41t61 -12h16q10 0 18 2h9q0 -29 10 -55l-2 2q6 -29 25.5 -41t37.5 -12q20 0 39 15t19 42v55q4 4 4 10l2 3q4 10 11 17t13 17q3 1 11 9l8 8h2q37 23 76 35t63 16h8q16 0 21 -4q2 -2 2 -6q0 -12 -10 -29q-8 -23 -23.5 -45.5t-36.5 -44.5 q-35 -39 -73.5 -66.5t-86.5 -58.5q-23 -18 -22 -47q0 -6 1 -13.5t7 -15.5q20 -31 47 -31q6 0 15.5 2.5t19.5 10.5q4 4 8 5t8 5h-2q43 29 86 58.5t82 66.5q45 57 74 113v-2q16 29 23.5 56t7.5 54q0 23 -4 41t-19 35v-2q-12 23 -38.5 30t-61.5 7q-47 0 -102.5 -15.5 t-94.5 -40.5l2 2q-8 -4 -15 -8t-15 -8q4 80 14 157t20 130q0 6 2 11t5 11q35 8 71.5 21.5t67.5 25.5q10 4 20.5 8.5t20.5 8.5q41 12 41 49q0 18 -8 29v-2q-14 35 -48 34q-10 0 -20 -4v2q-10 -4 -29.5 -9t-42.5 -15h2q-43 -16 -93 -30.5t-97 -14.5q-10 0 -19.5 1t-19.5 3 q-20 2 -27 18q31 8 60.5 18.5t66.5 26.5q14 6 25 23q35 25 60.5 54.5t35.5 64.5q4 18 7 35.5t3 29.5q0 31 -10 55.5t-39 40.5q-23 14 -55 15q-25 0 -46.5 -7.5t-37.5 -15.5q-12 -6 -25.5 -15t-27.5 -20h2q-8 -4 -13 -8q-25 -31 -57.5 -76t-52.5 -102q-4 0 -4 4 q-10 16 -20.5 43t-14.5 51q-16 84 -74 92l4 -2q-10 4 -16 5h-8q-25 0 -52.5 -8.5t-56.5 -18.5q-25 -10 -59.5 -38t-67.5 -58v20q0 33 2 70t6 73h50q23 -16 43 -16q16 0 32 10l-2 -2q35 20 39 58q0 4 1 6t1 6q0 51 -69 51h-76q14 59 47 103q16 16 16 36q0 16 -10 27.5 t-22 22.5q-10 4 -19.5 6t-15.5 2q-31 0 -49 -27q-53 -63 -72 -170h-252q-66 0 -127 1t-109 3h-4q-29 0 -41 -16.5t-16 -38.5v-4zM618 631q0 -18 9 -27v-96q0 -51 49 -51q53 0 53 51v33q0 12 1 23t1 24v69q-4 23 -17.5 35.5t-29.5 12.5q-37 0 -55 -37q-10 -16 -11 -37z M1198 913q10 23 24.5 42.5t28.5 35.5q10 10 16.5 14.5t10.5 8.5q12 6 22 6h3v-4q-1 -11 -3 -19q-4 -25 -34.5 -47t-67.5 -37z" />
<glyph unicode="&#xad;" horiz-adv-x="966" d="M260 301q0 -29 29 -53v2q23 -16 49 -17q23 0 37 9h-2q4 2 9 4t9 6q12 8 21 8q10 2 26 2h39h115q33 0 66.5 -1t64.5 -1q33 0 61.5 1t49.5 1q35 6 51 25t16 39v2q0 25 -17.5 43t-49.5 18h-13q-12 -2 -28 -2h-37q-31 0 -69 1t-77 3q-41 2 -84 2h-77q-35 0 -59.5 -1t-41.5 -5 h2q-72 -12 -88 -74q0 -2 -1 -6t-1 -6z" />
<glyph unicode="&#xae;" horiz-adv-x="989" d="M82 856q0 -66 29 -123l2 -2q35 -51 92 -83t135 -38q27 -4 58.5 -6t66.5 -2q59 0 121.5 10.5t122.5 40.5q59 33 120 88q6 -16 24.5 -25t39.5 -9q12 0 18 4q20 6 39 20t19 49v11q0 16 -4 46.5t-9 55.5q0 4 1 10t1 10q0 20 -18 43q-10 41 -30.5 95.5t-52.5 111t-75 112.5 t-98 101q-59 49 -114.5 71.5t-110.5 22.5q-8 0 -17.5 -1t-15.5 -1q-82 -12 -143.5 -73.5t-89.5 -159.5q-4 -16 -5 -21l-2 -4l-1 1t-1 -1q-20 -53 -45.5 -124.5t-42.5 -129.5q-14 -45 -14 -100zM201 838q0 33 8 63q6 35 18.5 76t25.5 84t27.5 83t24.5 70q23 63 53.5 101.5 t75.5 42.5q4 0 8 1t9 1q27 0 59.5 -13.5t73.5 -46.5q47 -35 87 -84t71.5 -104t53 -109.5t31.5 -97.5q-41 -55 -81.5 -90t-88.5 -55q-45 -23 -104 -34t-125 -11q-55 0 -113 6h2q-73 14 -104 55l2 -2q-14 29 -14 64zM303 1036q0 -14 8 -20q-4 -23 -4 -53v-60q0 -18 1 -36.5 t1 -32.5q0 -29 17.5 -45.5t40.5 -16.5t40 13.5t19 41.5v7q2 10 3 18t11 22q6 10 17.5 18.5t25.5 20.5h-2q41 27 91.5 47.5t84.5 26.5h-2q2 0 4.5 1t6.5 1q2 0 5 -2t11 -6t27 -4q31 0 45 24q12 14 12 37q0 29 -27 49q-10 6 -26.5 12.5t-44.5 6.5q-51 -4 -119 -30.5 t-121 -61.5q2 14 3 26.5t5 22.5q0 2 1 6t1 6q0 18 -11 28.5t-28 18.5q-8 4 -22 4q-41 0 -49 -34q-2 -4 -4 -9.5t-5 -9.5q-4 -4 -5 -8t-3 -6l-6 -9t-2 -14z" />
<glyph unicode="&#xaf;" horiz-adv-x="940" d="M168 1143q0 -31 29 -53v2q10 -10 23 -13.5t26 -3.5q23 0 37 8h-2l9 4.5t9 6.5q12 8 20 8q10 2 27 2h39h113q35 0 68.5 -1t64.5 -1q33 0 61.5 1t48.5 1q35 6 51.5 24.5t16.5 38.5v2q0 25 -17.5 43.5t-50.5 18.5h-12q-12 -2 -29 -2h-36q-31 0 -69 1t-77 3q-41 0 -84 1 t-78 1q-70 0 -100 -6h2q-35 -6 -58.5 -25.5t-29.5 -48.5q0 -2 -1 -6t-1 -6z" />
<glyph unicode="&#xb0;" horiz-adv-x="448" d="M82 879q0 -76 53 -136q59 -53 135 -53q79 0 138 53q53 59 53 136q0 76 -53 135q-59 55 -138 55q-78 0 -135 -55q-53 -59 -53 -135zM182 879q0 35 27 61.5t61 26.5q35 0 62 -27q27 -25 26 -61q1 -37 -26 -62q-27 -27 -62 -26q-35 0 -61.5 26.5t-26.5 61.5z" />
<glyph unicode="&#xb1;" horiz-adv-x="765" d="M74 762q0 -39 28 -64v2q10 -10 23.5 -14t26.5 -4q25 0 36 10h-2q4 2 9.5 4t9.5 6q10 10 20 11q20 4 49 4h29q16 0 37 -2v-107q0 -31 1 -57.5t3 -44.5q4 -35 26.5 -53.5t45.5 -18.5h4q29 0 50.5 18.5t21.5 51.5v12q-2 14 -3.5 32.5t-1.5 39.5v57q0 31 5 66h75q23 0 41.5 1 t34.5 3q37 6 54.5 28.5t17.5 44.5v5q0 29 -17.5 51t-50.5 22h-10q-14 -2 -28.5 -3t-33.5 -1q-12 0 -26 1t-31 1h-20v27q0 70 -6 104q-8 35 -31 58.5t-55 31.5q-4 0 -8.5 1t-8.5 1q-35 0 -61 -30h2q-10 -10 -14.5 -23.5t-4.5 -25.5t1 -20.5t7 -18.5v2q2 -6 12.5 -16.5 t10.5 -22.5q2 -8 2 -31v-31q-25 2 -47.5 3t-38.5 1q-88 0 -128 -20t-54 -74q0 -4 -1 -9t-1 -9zM86 272q0 -35 29 -63v2q20 -18 51 -18q20 0 37 10q8 0 14 10q10 10 23 10q6 2 18 2h29h55q31 0 65.5 -2t71.5 -2h72q33 0 61.5 1t49.5 3q35 6 51 28.5t16 45.5v4 q0 29 -17.5 51.5t-49.5 22.5h-13q-10 -2 -26 -2h-33q-31 0 -66 1t-73 3q-45 2 -89.5 3t-82.5 1q-72 0 -103 -6h2q-35 -8 -58.5 -30.5t-31.5 -57.5q0 -4 -1 -8.5t-1 -8.5z" />
<glyph unicode="&#xb2;" horiz-adv-x="788" d="M68 776q0 -18 8 -33v2q8 -16 25.5 -29.5t41.5 -13.5h11q96 14 209.5 25.5t211.5 11.5q14 0 25.5 1t24.5 -1q18 -14 47 -14q16 0 24 4q23 8 33 23.5t14 31.5v7q0 23 -16 41t-51 22q-20 2 -43 2h-49q-66 0 -139.5 -4t-145.5 -12q55 45 109.5 91t89.5 87q59 72 59 135 t-55 104q-16 10 -46 30t-63 30q-18 6 -60 11t-89 5h-25q-10 0 -20 -2q-27 0 -39.5 -17.5t-12.5 -35.5v-2q0 -23 15.5 -41t44.5 -18q33 0 80 -4.5t65 -6.5q20 -4 38 -15t28 -20q14 -14 14 -28q0 -25 -24.5 -51.5t-60.5 -58.5t-76 -66.5t-84 -69.5t-87 -66q-16 -10 -24 -24 t-8 -31z" />
<glyph unicode="&#xb3;" horiz-adv-x="585" d="M33 590q0 -14 6 -23q10 -35 51 -35q12 0 23 5q47 14 98 37.5t100 53t92 64.5t74 76q58 74 58 150q-2 51 -31 93t-88 64q-18 6 -33.5 8t-32.5 4q31 23 56.5 45.5t42.5 38.5q49 49 49 103q0 25 -11 41q-16 27 -52 45t-95 22h-18q-61 0 -122 -13t-100 -30q-29 -14 -28 -45 q0 -14 8 -30q8 -10 20.5 -18.5t28.5 -8.5q6 0 13.5 1t15.5 5q25 12 67.5 20.5t85.5 8.5h19q41 0 41 -15q0 -8 -15 -26q-16 -16 -39.5 -35.5t-49 -39t-51.5 -37t-44 -29.5q-35 -25 -35 -52q0 -10 6 -22q6 -14 20.5 -24.5t37.5 -10.5h8q4 0 10 1t12 1q16 2 36 3t38 1h27 q12 0 22 -4q66 -23 66 -65v-5q0 -18 -8.5 -36.5t-24.5 -42.5q-27 -35 -64.5 -64t-80.5 -53.5t-87 -44t-83 -33.5v2q-39 -14 -39 -51z" />
<glyph unicode="&#xb4;" horiz-adv-x="593" d="M172 709q0 -16 10 -31q8 -16 21.5 -28.5t38.5 -12.5q8 0 18 3t23 7q29 14 68.5 33.5t80.5 40t79 40t64 34.5q35 23 35 55q0 14 -10 39q-23 35 -59 35q-23 0 -37 -11q-29 -14 -66 -32.5t-75.5 -38t-75.5 -38t-68 -32.5q-23 -12 -35 -29.5t-12 -33.5z" />
<glyph unicode="&#xb6;" horiz-adv-x="1284" d="M33 801q0 -66 49 -128.5t149 -111.5q20 -10 49 -13t64 -3q33 0 69 2t72 6q41 2 83 4t83 2q47 0 88 -5t76 -15q2 -37 5 -93.5t5 -121t4 -133t2 -130.5q0 -57 -2 -103t-6 -71l2 2q-4 -10 -4 -14v-8q0 -33 19.5 -53.5t50.5 -26.5q8 -2 29 -2q31 0 55 17.5t35 58.5 q14 63 19 135t5 151q0 119 -11 242t-26.5 235.5t-33 209t-31.5 161.5q39 6 64.5 12.5t54.5 14.5q16 4 22 8l2 -10v-37q0 -55 -4 -129t-10 -145.5t-14.5 -135t-16.5 -100.5l2 2q-4 -10 -4 -14v-8q0 -33 20.5 -53.5t51.5 -26.5q8 -2 28 -2q31 0 55.5 17.5t35.5 57.5 q8 41 14 103.5t10 134.5t7 148.5t3 148.5v88q0 41 -4 76v8q0 16 -2 25v8q-10 31 -39.5 52.5t-70.5 21.5q-25 0 -49.5 -11.5t-40.5 -27.5q-84 -25 -180.5 -44.5t-194.5 -35.5q-88 -18 -176 -37t-166 -37q-152 -43 -223.5 -111.5t-73.5 -150.5v-4z" />
<glyph unicode="&#xb7;" horiz-adv-x="348" d="M86 547q0 -53 33 -82t74 -29q36 1 65 21q20 14 29.5 36.5t9.5 47.5t-9 48t-30 38q-31 20 -65 20q-16 0 -35 -5t-31 -15q-41 -35 -41 -80z" />
<glyph unicode="&#xb8;" horiz-adv-x="706" d="M272 -240q0 -25 15.5 -45t48.5 -20h10q47 6 89 34.5t71 75.5q16 29 16 70q0 31 -15 57.5t-56 40.5q-8 2 -9 7q0 6 2 16t7 22v2q4 8 4 17q0 25 -19.5 41t-44.5 16q-20 0 -38.5 -13t-28.5 -46q-10 -45 -11 -84q0 -72 64 -88h8q0 -2 -2 -2v-2q-14 -16 -61 -31 q-27 -8 -38.5 -26.5t-11.5 -41.5z" />
<glyph unicode="&#xb9;" horiz-adv-x="393" d="M8 735q0 -14 6 -26l-2 2q14 -43 60 -49h8q18 0 35 12q6 2 12 2h8q12 -12 31 -12q23 0 35 18h22q18 0 27 2q29 4 42 22.5t13 41.5q0 31 -24 47q-25 14 -58 14q2 45 7.5 106.5t11.5 128t13 129t11 109.5v8q0 29 -20.5 48.5t-46.5 19.5q-23 0 -37 -12q-8 -4 -19.5 -11.5 t-23.5 -15.5q-16 -12 -30.5 -20.5t-25.5 -12.5h3q-33 -18 -33 -51q0 -18 8 -33q18 -29 47 -28h6q12 4 22.5 10t20.5 10q-4 -33 -9 -82t-10 -104.5t-8.5 -109.5t-3.5 -97q-33 0 -57 -13q-41 -12 -41 -53z" />
<glyph unicode="&#xba;" horiz-adv-x="864" d="M49 932q0 -76 29 -119q29 -51 81 -73.5t126 -22.5h8q59 0 110.5 8t100.5 31q106 45 198 153q31 35 42.5 70t11.5 63q0 23 -5.5 42.5t-11.5 33.5q12 2 23.5 3t21.5 5q20 10 30.5 28t10.5 36v2q0 29 -22.5 51.5t-57.5 22.5h-131q-23 16 -52.5 30.5t-55.5 18.5q-4 0 -12.5 1 t-16.5 1q-10 0 -18 -1t-19 -3q-37 31 -78 30q-45 0 -77 -18h2q-82 -43 -143.5 -121t-84.5 -178q-10 -51 -10 -94zM207 948q0 10 1 21.5t3 27.5q12 55 47 102.5t64 67.5l8 4q4 0 6 3q4 -25 33.5 -40.5t72.5 -15.5h117q39 -27 39 -69q0 -29 -16 -45q-31 -37 -67 -68t-77 -47 q-29 -10 -59.5 -16.5t-73.5 -6.5h-14q-47 0 -72 33q-12 14 -12 49z" />
<glyph unicode="&#xbb;" horiz-adv-x="710" d="M162 39q0 -16 7 -27.5t17 -21.5q20 -14 43 -15q27 0 47 21q20 23 46 51.5t50.5 61t48.5 65.5t42 62v-3q20 35 20 56q0 25 -18 55q-14 25 -36.5 57.5t-48.5 67.5t-51.5 66.5t-43.5 56.5q-14 14 -28.5 19t-27.5 5q-27 0 -46 -16t-19 -45q0 -18 10 -35q16 -23 33.5 -46 t34.5 -44q25 -37 49 -69.5t47 -65.5q0 -2 1 -3t1 -5q0 -2 -1 -3t-1 -3v2q-29 -41 -70 -92.5t-88 -110.5q-18 -18 -18 -41zM414 39q0 -29 24 -49q16 -14 41 -15q16 0 27.5 5.5t21.5 15.5q20 23 45 51.5t50.5 61t48.5 65.5t41 62v-3q20 29 20 56q0 29 -18 55q-14 25 -37 57.5 t-48.5 67.5t-50 66.5t-44.5 56.5q-25 25 -56 24q-27 0 -45 -16t-18 -45q0 -20 8 -35q16 -23 33.5 -46t34.5 -44q27 -37 50 -69.5t46 -65.5q0 -2 1 -3t1 -5q0 -2 -1 -3t-1 -3v2q-27 -41 -68 -92.5t-90 -108.5q-10 -10 -13 -21.5t-3 -21.5z" />
<glyph unicode="&#xbc;" horiz-adv-x="1150" d="M-57 -139v-15q0 -63 59 -75l-2 2q16 -8 33 -9q23 0 36 12.5t23 43.5q8 37 49 101.5t102.5 148.5t137.5 182t158 201q94 121 187 242.5t169 228t126 191.5t58 134q2 10 2 19v20q0 37 -11 62.5t-38 29.5l2 -2q-10 4 -16 4h-10q-23 0 -43.5 -12t-36.5 -45 q-16 -25 -21.5 -54.5t-5.5 -66.5q-43 -68 -98 -144.5t-117.5 -160.5t-131.5 -170t-136 -172q-90 -115 -174 -221.5t-149.5 -198.5t-106.5 -163.5t-45 -112.5zM63 735q0 -14 7 -26l-2 2q14 -43 59 -49h8q18 0 35 12q6 2 12 2h8q12 -12 31 -12q23 0 35 18h23q18 0 26 2 q29 4 42 22.5t13 41.5q0 31 -24 47q-25 14 -57 14q2 45 7 106.5t11 128t13 129t12 109.5v8q0 29 -20.5 48.5t-47.5 19.5q-23 0 -37 -12q-8 -4 -19.5 -11.5t-23.5 -15.5q-16 -12 -30.5 -20.5t-24.5 -12.5h2q-33 -18 -33 -51q0 -18 8 -33q18 -29 47 -28h7q12 4 22 10t21 10 q-4 -33 -9.5 -82t-10.5 -104.5t-8 -109.5t-3 -97q-33 0 -58 -13q-41 -12 -41 -53zM420 162q0 -18 4 -29q10 -18 25.5 -30.5t44.5 -12.5q123 0 251 6l99 2v-20q-4 -70 -7 -115t-3 -88v-65q2 -41 18 -58.5t41 -17.5q29 0 57 35q18 23 19 45q0 23 -17 36q0 66 3 130.5t10 119.5 q47 2 96 4t90 7q29 4 41 20t12 39t-13 41t-42 18h-4q-23 -2 -45 -2q-23 0 -45 -2l-78 -4q4 61 6 126t6 120v29q0 29 -14 43t-37 18q-2 0 -4 1t-6 1q-45 0 -62 -43q-37 -23 -99 -63.5t-127 -85.5t-121 -87t-81 -69q-10 -10 -14 -23.5t-4 -25.5zM631 213q59 41 115.5 82 t115.5 80q-2 -8 -2 -19v-16q0 -29 -2 -58.5t-6 -62.5q-111 0 -221 -6z" />
<glyph unicode="&#xbd;" horiz-adv-x="1150" d="M-57 -139v-15q0 -63 59 -75l-2 2q16 -8 33 -9q23 0 36 12.5t23 43.5q8 37 49 101.5t102.5 148.5t137.5 182t158 201q6 6 18 22q16 -16 43 -16q33 0 80 -4t65 -6q20 -4 38 -15.5t28 -19.5q14 -14 14 -29q0 -25 -24.5 -51.5t-60 -58t-75.5 -66.5t-84 -70t-87 -65 q-16 -10 -24.5 -24.5t-8.5 -31.5q0 -18 8 -32v2q8 -16 25.5 -29.5t42.5 -13.5h10q96 14 209.5 25.5t212.5 11.5q14 0 25.5 1t23.5 -1q18 -14 47 -15q16 0 25 4q23 8 33 24t14 32v6q0 23 -16.5 41t-51.5 22q-20 2 -43 2h-49q-66 0 -139.5 -4t-145.5 -12q55 45 109.5 91 t89.5 87q59 72 59 135t-55 105q-16 10 -46 29.5t-63 29.5q-18 6 -60 11t-89 5h-2q82 106 158.5 209t138 192t101.5 159.5t46 113.5q2 10 2 19v20q0 37 -11 62.5t-38 29.5l2 -2q-10 4 -16 4h-10q-23 0 -43.5 -12t-36.5 -45q-16 -25 -21.5 -54.5t-5.5 -66.5 q-43 -68 -98 -144.5t-117.5 -160.5t-131.5 -170t-136 -172q-90 -115 -174 -221.5t-149.5 -198.5t-106.5 -163.5t-45 -112.5zM63 735q0 -14 7 -26l-2 2q14 -43 59 -49h8q18 0 35 12q6 2 12 2h8q12 -12 31 -12q23 0 35 18h23q18 0 26 2q29 4 42 22.5t13 41.5q0 31 -24 47 q-25 14 -57 14q2 45 7 106.5t11 128t13 129t12 109.5v8q0 29 -20.5 48.5t-47.5 19.5q-23 0 -37 -12q-8 -4 -19.5 -11.5t-23.5 -15.5q-16 -12 -30.5 -20.5t-24.5 -12.5h2q-33 -18 -33 -51q0 -18 8 -33q18 -29 47 -28h7q12 4 22 10t21 10q-4 -33 -9.5 -82t-10.5 -104.5 t-8 -109.5t-3 -97q-33 0 -58 -13q-41 -12 -41 -53z" />
<glyph unicode="&#xbe;" horiz-adv-x="1150" d="M-57 -139v-15q0 -63 59 -75l-2 2q16 -8 33 -9q23 0 36 12.5t23 43.5q8 37 49 101.5t102.5 148.5t137.5 182t158 201q94 121 187 242.5t169 228t126 191.5t58 134q2 10 2 19v20q0 37 -11 62.5t-38 29.5l2 -2q-10 4 -16 4h-10q-23 0 -43.5 -12t-36.5 -45 q-16 -25 -21.5 -54.5t-5.5 -66.5q-43 -68 -98 -144.5t-117.5 -160.5t-131.5 -170t-136 -172q-90 -115 -174 -221.5t-149.5 -198.5t-106.5 -163.5t-45 -112.5zM10 590q0 -14 6 -23q10 -35 52 -35q12 0 22 5q47 14 98.5 37.5t100.5 53t92 64.5t74 76q57 74 57 150 q-2 51 -30.5 93t-88.5 64q-18 6 -33.5 8t-31.5 4q31 23 56.5 45.5t41.5 38.5q49 49 49 103q0 25 -10 41q-16 27 -52 45t-96 22h-18q-61 0 -121.5 -13t-99.5 -30q-29 -14 -29 -45q0 -14 8 -30q8 -10 20.5 -18.5t28.5 -8.5q6 0 13.5 1t15.5 5q25 12 68 20.5t86 8.5h18 q41 0 41 -15q0 -8 -14 -26q-16 -16 -40 -35.5t-49.5 -39t-51 -37t-43.5 -29.5q-35 -25 -35 -52q0 -10 6 -22q6 -14 20.5 -24.5t36.5 -10.5h8q4 0 10.5 1t12.5 1q16 2 35.5 3t38.5 1h26t23 -4q66 -23 65 -65v-5q0 -18 -8 -36.5t-24 -42.5q-27 -35 -65 -64t-81 -53.5t-87 -44 t-83 -33.5v2q-39 -14 -39 -51zM420 162q0 -18 4 -29q10 -18 25.5 -30.5t44.5 -12.5q123 0 251 6l99 2v-20q-4 -70 -7 -115t-3 -88v-65q2 -41 18 -58.5t41 -17.5q29 0 57 35q18 23 19 45q0 23 -17 36q0 66 3 130.5t10 119.5q47 2 96 4t90 7q29 4 41 20t12 39t-13 41t-42 18 h-4q-23 -2 -45 -2q-23 0 -45 -2l-78 -4q4 61 6 126t6 120v29q0 29 -14 43t-37 18q-2 0 -4 1t-6 1q-45 0 -62 -43q-37 -23 -99 -63.5t-127 -85.5t-121 -87t-81 -69q-10 -10 -14 -23.5t-4 -25.5zM631 213q59 41 115.5 82t115.5 80q-2 -8 -2 -19v-16q0 -29 -2 -58.5t-6 -62.5 q-111 0 -221 -6z" />
<glyph unicode="&#xbf;" horiz-adv-x="800" d="M131 -391v-12q0 -66 44 -121.5t134 -85.5q66 -23 149 -53.5t175 -69.5q25 -8 47 -8q47 -1 80 36l2 3q14 29 14 53q0 43 -37 78q-59 43 -104 43q-6 0 -10 -2q-23 8 -46.5 16t-48.5 16q-43 16 -82.5 31.5t-72.5 28.5q-53 20 -58 53q0 23 33 59q33 33 66 64t63 63 q74 72 138.5 139.5t105.5 127.5q20 33 29.5 66.5t9.5 62.5q0 43 -21 71q-12 18 -31.5 27.5t-41.5 9.5q-27 0 -50.5 -16.5t-29.5 -50.5q-6 -25 -6 -60v-12q-31 -53 -125.5 -149.5t-229.5 -219.5v2q-96 -86 -96 -190zM465 532q0 -29 10 -54t33 -42q16 -10 35.5 -17t40.5 -7 q41 0 71 24q23 18 35 44t12 52q1 53 -32 86q-35 41 -84 41q-37 0 -76 -26q-23 -16 -34 -43t-11 -58z" />
<glyph unicode="&#xc0;" d="M35 131q0 -41 26.5 -62.5t61.5 -21.5q-8 -14 -13.5 -27.5t-11.5 -27.5v2q-16 -27 -16 -64q0 -35 31 -65q25 -20 57 -21q31 0 55 13q41 20 53.5 51t14.5 53q14 25 26.5 52.5t26.5 58.5q4 6 5 12t5 12q29 6 54.5 12.5t54.5 14.5q156 35 323.5 74t315.5 73l29 -57 q12 -29 30.5 -64.5t40 -72.5t41 -70t35.5 -53q33 -43 84 -43q33 0 66 22q33 25 32 66q1 39 -24 68q-12 16 -28.5 42.5t-33 56.5t-33 58.5t-24.5 46.5q-4 8 -8 17.5t-8 17.5q-2 2 -3 2q0 2 -2 4q10 4 20.5 6t20.5 7q37 12 49.5 42.5t12.5 53.5q-10 47 -34 64.5t-50 17.5h-8 t-15 -4l2 2q-16 -4 -33.5 -8.5t-39.5 -8.5q-33 74 -71 171.5t-77 207.5q-41 111 -83 223.5t-87 214.5q-12 35 -35.5 47.5t-50.5 12.5h-8q-45 -2 -68.5 -29.5t-25.5 -58.5q-23 -35 -52.5 -93.5t-65.5 -132t-77 -159.5t-82 -174q-61 -129 -118.5 -250t-104.5 -213 q-12 -4 -26.5 -7t-30.5 -5q-10 -4 -21 -5q-8 0 -18 -4q-49 -16 -67.5 -42.5t-18.5 -55.5zM459 305q23 49 47 103.5t51 111.5q66 135 131.5 271.5t120.5 248.5q23 -59 46.5 -121.5t45.5 -127.5q31 -88 63.5 -178.5t69.5 -176.5q-4 -2 -12 -2q-141 -33 -287.5 -66.5 t-275.5 -62.5zM565 1673q0 -33 31 -55q55 -47 116.5 -95t121.5 -91q18 -16 45 -17q16 0 31.5 9.5t25.5 21.5q18 23 18 49q0 35 -30 57h2q-33 29 -70 56.5t-72 56.5q-25 16 -48 35.5t-48 40.5q-16 16 -43 16q-20 0 -34.5 -9t-24.5 -24q-20 -25 -21 -51z" />
<glyph unicode="&#xc1;" d="M35 131q0 -41 26.5 -61.5t61.5 -22.5q-10 -16 -16.5 -30.5t-12.5 -30.5v2q-16 -27 -16 -64q0 -35 31 -65q25 -20 57 -21q31 0 55 12q41 20 53.5 51t14.5 54q16 35 30.5 66.5t30.5 60.5q2 4 3 7t3 7q63 16 126 29.5t128 28.5q117 27 240 56.5t254 59.5l29 -57 q12 -29 30.5 -64.5t40 -72.5t41 -70t35.5 -53q33 -43 84 -43q33 0 66 22q33 25 32 66q1 39 -24 68q-12 16 -28.5 42.5t-33 56.5t-33 58.5t-24.5 46.5q-4 8 -8 17.5t-8 17.5q-2 2 -3 2q0 2 -2 4q10 4 20.5 6t20.5 7q37 14 49.5 43.5t12.5 52.5q-10 47 -34 64.5t-50 17.5h-8 t-15 -4l2 2q-16 -4 -33.5 -8.5t-39.5 -8.5q-33 74 -71 171.5t-77 207.5q-41 111 -83 223.5t-87 217.5q-12 33 -35.5 45t-50.5 12h-8q-45 -2 -68.5 -28.5t-25.5 -59.5q-23 -35 -52.5 -93.5t-65.5 -132t-77 -159.5t-82 -174q-61 -129 -118.5 -250t-104.5 -213q-14 -4 -31.5 -7 t-35.5 -7q-10 -2 -27 -7q-29 0 -46.5 -12t-26.5 -27.5t-12 -32t-3 -26.5zM459 305q23 49 47 103.5t51 111.5q66 135 131.5 271.5t120.5 248.5q23 -59 46.5 -121.5t45.5 -127.5q31 -88 63.5 -177.5t69.5 -175.5q-4 -2 -12 -2q-141 -35 -287.5 -68.5t-275.5 -62.5zM645 1550 q0 -18 10 -34q10 -18 23.5 -32t40.5 -14q8 0 19.5 4.5t23.5 8.5q31 14 73 35.5t86 44t83.5 45t68.5 39.5q37 25 37 63q0 8 -2 19.5t-8 21.5v2q-23 39 -64 39q-10 0 -19 -2t-20 -10q-31 -16 -69.5 -37t-79.5 -42.5t-81 -42t-73 -36.5q-23 -14 -36 -33.5t-13 -38.5z" />
<glyph unicode="&#xc2;" d="M35 131q0 -41 26.5 -61.5t61.5 -22.5q-10 -16 -16.5 -30.5t-12.5 -30.5v2q-16 -27 -16 -64q0 -35 31 -65q25 -20 57 -21q31 0 55 12q41 20 53.5 51t14.5 54q16 35 30.5 66.5t30.5 60.5q2 4 3 7t3 7q63 16 126 29.5t128 28.5q117 27 240 56.5t254 59.5l29 -57 q12 -29 30.5 -64.5t40 -72.5t41 -70t35.5 -53q33 -43 84 -43q33 0 66 22q33 25 32 66q1 39 -24 68q-12 16 -28.5 42.5t-33 56.5t-33 58.5t-24.5 46.5q-4 8 -8 17.5t-8 17.5q-2 2 -3 2q0 2 -2 4q10 4 20.5 6t20.5 7q37 12 49.5 42.5t12.5 53.5q-10 47 -34 64.5t-50 17.5h-8 t-15 -4l2 2q-16 -4 -33.5 -8.5t-39.5 -8.5q-33 74 -71 171.5t-77 207.5q-41 111 -83 223.5t-87 214.5q-12 35 -35.5 47.5t-50.5 12.5h-8q-45 -2 -68.5 -29.5t-25.5 -58.5q-23 -35 -52.5 -93.5t-65.5 -133t-77 -160.5t-82 -174q-61 -129 -118.5 -249t-104.5 -212 q-14 -4 -31.5 -8t-35.5 -6q-10 -2 -27 -7q-29 0 -46.5 -12t-26.5 -27.5t-12 -32t-3 -26.5zM459 305q23 49 47 103.5t51 109.5q66 137 131.5 273.5t120.5 248.5q23 -59 46.5 -121.5t45.5 -127.5q31 -88 63.5 -178.5t69.5 -176.5q-4 -2 -12 -2q-141 -33 -287.5 -66.5 t-275.5 -62.5zM551 1518q0 -23 12 -41q23 -37 66 -37q25 0 41 10q12 10 27.5 17.5t29.5 17.5h-2q27 16 54.5 33.5t49.5 33.5q10 -10 22.5 -20t27.5 -25q10 -12 23 -25.5t25.5 -23.5t26 -13t23.5 -3q31 0 53.5 19.5t22.5 51.5q0 12 -4.5 27t-14.5 27h-2q-27 29 -62.5 66.5 t-66.5 66.5q-25 25 -57 24q-14 0 -25.5 -5t-27.5 -15v2q-23 -12 -45.5 -27.5t-51.5 -31.5q-27 -16 -55.5 -35t-54.5 -35q-35 -23 -35 -59z" />
<glyph unicode="&#xc3;" d="M35 131q0 -41 26.5 -61.5t61.5 -24.5q-10 -14 -16.5 -28.5t-12.5 -30.5v2q-16 -27 -16 -64t31 -63q23 -23 57 -23q31 0 55 12q41 20 53.5 51t14.5 54q18 35 32.5 67.5t30.5 63.5q0 2 4 10q63 16 126 29.5t128 28.5q117 27 240 55.5t254 60.5l29 -57q12 -29 30.5 -65.5 t40 -72.5t41 -69t35.5 -51q33 -45 84 -45q33 0 66 22q33 25 32 66q1 37 -24 68q-12 16 -28.5 42.5t-33 56.5t-33 58.5t-24.5 46.5q-4 8 -8 17.5t-8 17.5q-2 2 -3 2q0 2 -2 4q10 4 20.5 5t20.5 6q37 14 49.5 43.5t12.5 52.5q-10 49 -34 65.5t-50 16.5h-8t-15 -2 q-16 -4 -33.5 -7.5l-37.5 -7.5q-33 74 -71 170.5t-77 206.5q-41 111 -83 223.5t-87 216.5q-12 33 -35.5 45.5t-50.5 12.5h-8q-45 -2 -68.5 -28.5t-25.5 -59.5q-23 -35 -52.5 -92.5t-65.5 -132t-77 -160.5t-82 -174q-61 -129 -118.5 -249t-104.5 -212q-31 -10 -67 -17 q-10 -2 -27 -6q-29 0 -46.5 -11t-26.5 -26.5t-12 -32t-3 -26.5zM459 305q23 49 47 103.5t51 109.5q66 135 131.5 271.5t120.5 250.5q45 -123 92 -252q31 -86 63.5 -176t69.5 -176q-4 -2 -12 -2q-141 -33 -287.5 -66.5t-275.5 -62.5zM537 1475q0 -23 11 -39.5t27 -22.5h-2 q14 -10 41 -10q45 0 66 39q33 53 63 53q23 0 54 -25q78 -70 164 -69h4q49 0 89 30.5t58 108.5h-2q4 10 4 14v9q0 23 -13.5 41t-35.5 26q-8 2 -15.5 4t-11.5 2q-20 0 -40.5 -12t-30.5 -41q-6 -27 -15 -27q-16 0 -67 37q-39 29 -75 43.5t-73 14.5q-51 0 -102 -33t-86 -102 q-10 -10 -11 -20.5t-1 -20.5z" />
<glyph unicode="&#xc4;" d="M35 131q0 -41 24.5 -62.5t61.5 -21.5q-8 -16 -14.5 -30.5t-12.5 -30.5v2q-16 -27 -16 -64t31 -63q23 -23 57 -23q31 0 55 12q41 20 53.5 51t14.5 54q20 37 35.5 71.5t31.5 67.5q174 39 355.5 81t392.5 95l29 -57q12 -29 30.5 -64.5t40 -72.5t41 -70t35.5 -53 q33 -43 84 -43q33 0 66 22q33 25 32 66q1 39 -24 68q-12 16 -28.5 42.5t-33 56.5t-33 58.5t-24.5 46.5q-4 8 -8 17.5t-8 17.5q-2 2 -3 2q0 2 -2 4q10 4 20.5 6t20.5 7q37 12 49.5 41.5t12.5 52.5q-10 49 -34 66.5t-50 17.5h-8t-15 -4l2 2q-16 -4 -33.5 -8.5t-39.5 -8.5 q-33 74 -71 171.5t-77 207.5q-41 111 -83 222.5t-87 215.5q-12 33 -35.5 45.5t-50.5 12.5h-8q-45 -2 -68.5 -28.5t-25.5 -59.5q-23 -35 -52.5 -92.5t-65.5 -132t-77 -160.5t-82 -174q-61 -129 -118.5 -249t-104.5 -212q-12 -4 -26.5 -7t-30.5 -7q-10 -4 -21 -5q-8 0 -18 -4 q-55 -20 -70.5 -47.5t-15.5 -48.5zM459 305q23 49 47 103.5t51 109.5q66 135 131.5 271.5t120.5 250.5q45 -121 92 -252q31 -86 63.5 -176t69.5 -176q-4 -2 -12 -2q-141 -33 -287.5 -66.5t-275.5 -62.5zM535 1571q0 -49 31.5 -82t80.5 -33q45 0 79 35t34 80q0 49 -33 84 t-82 35t-78.5 -35t-31.5 -84zM868 1571q0 -49 32 -82t81 -33q47 2 80 34t35 81q0 49 -36 84t-81 35q-49 0 -80 -35t-31 -84z" />
<glyph unicode="&#xc5;" d="M35 131q0 -41 23.5 -62.5t62.5 -23.5q-10 -16 -15.5 -29.5t-11.5 -29.5v2q-16 -27 -16 -64q0 -35 31 -65q25 -20 57 -21q31 0 55 12q41 20 53.5 51t14.5 54q20 37 35.5 71.5t31.5 67.5q174 39 355.5 81t392.5 95l29 -57q12 -29 30.5 -64.5t40 -72.5t41 -70t35.5 -53 q33 -43 84 -43q33 0 66 22q33 25 32 66q1 39 -24 68q-12 16 -28.5 42.5t-33 56.5t-33 58.5t-24.5 46.5q-4 8 -8 17.5t-8 17.5q-2 2 -3 2q0 2 -2 4q10 4 20.5 6t20.5 7q37 14 49.5 43.5t12.5 52.5q-10 47 -34 64.5t-50 17.5h-8t-15 -4l2 2q-16 -4 -33.5 -7.5t-39.5 -7.5 q-33 74 -71 171.5t-77 205.5q-41 111 -83 223.5t-87 217.5q-12 33 -35.5 45t-50.5 12h-8q-45 -2 -68.5 -28.5t-25.5 -59.5q-23 -35 -52.5 -93.5t-65.5 -132t-77 -159.5t-82 -174q-59 -129 -117.5 -248t-103.5 -211q-10 -4 -20.5 -7t-20.5 -3q-10 -4 -23.5 -7.5t-33.5 -9.5 q-55 -20 -70.5 -47.5t-15.5 -48.5zM459 305q23 49 47 103.5t51 111.5q66 135 131.5 271.5t120.5 248.5q23 -59 46.5 -121.5t45.5 -127.5q31 -88 63.5 -177.5t69.5 -175.5q-4 -2 -12 -2q-141 -35 -287.5 -68.5t-275.5 -62.5zM618 1583q0 -82 60 -147q63 -57 143 -58 q85 1 148 58q59 66 59 147q0 84 -59 148q-63 59 -148 59q-80 0 -143 -59q-59 -63 -60 -148zM694 1583q0 25 8.5 50.5t30.5 41.5q16 23 41 31t47 8q27 0 50.5 -7t37.5 -26q25 -20 36 -46.5t11 -51.5q1 -59 -38 -90l-5 -2q-16 -20 -40.5 -28.5t-51.5 -8.5q-25 0 -48 8t-40 31 q-23 16 -31 39.5t-8 50.5z" />
<glyph unicode="&#xc6;" horiz-adv-x="2023" d="M-31 -92q0 -23 9.5 -40.5t25.5 -33.5q35 -20 64 -20q33 0 65 22q16 18 34.5 40t27.5 42q2 6 4 13.5t2 15.5q0 4 -1 6t-1 4q86 150 189.5 290t213.5 265q176 195 300 299t196 150q4 4 16 4h2q-4 -29 -8 -72t-9 -93t-8.5 -101.5t-5.5 -96.5q-96 -16 -196.5 -39.5 t-192.5 -46.5q-82 -20 -82 -88q0 -10 1 -17.5t3 -15.5q6 -29 32 -51t63 -22q10 0 16 1t14 3q84 23 166 44t172 38q-2 -16 -1 -33t1 -37q0 -41 1 -84t3 -86t5.5 -82t9.5 -70q18 -92 76.5 -131t150.5 -39h29q90 0 206.5 22.5t213.5 57.5q74 27 135 60.5t106 87.5q20 35 21 61 q0 23 -8.5 38t-20.5 30q-29 29 -67 28q-39 0 -70 -34q-61 -63 -162 -95q-111 -37 -199 -53t-168 -16q-23 0 -37 7t-18 30q-8 43 -11 106.5t-3 130.5v70q0 37 2 69q109 23 223.5 41.5t226.5 34.5q41 4 82 10.5t80 12.5h-2q39 6 59.5 31.5t20.5 54.5q0 4 -1 8t-1 8 q-6 33 -27.5 59.5t-64.5 26.5h-6q-14 -2 -28.5 -4t-31.5 -4q-57 -8 -124.5 -17.5t-137 -20.5t-138.5 -21.5t-128 -22.5q4 78 12 169t19 165v-2q6 27 32 33q74 10 168.5 14t188.5 4q66 0 127 -1t110 -5h15q47 0 66.5 27.5t19.5 62.5t-20.5 63.5t-67.5 34.5q-53 4 -112.5 6.5 t-125.5 2.5q-119 0 -234.5 -7.5t-203.5 -21.5q-4 -2 -14.5 -4t-14.5 -4l2 2q-12 -4 -22.5 -5t-20.5 -6q-18 12 -47 13q-29 0 -60.5 -12.5t-64.5 -30.5q-55 -35 -124.5 -88.5t-145.5 -120t-152 -141t-145.5 -154.5t-139 -165t-132 -172t-118 -175t-93.5 -170q-10 -23 -11 -47 z" />
<glyph unicode="&#xc7;" horiz-adv-x="1275" d="M205 219q0 -47 8 -90t27 -82q37 -90 107.5 -140t195.5 -73q23 -4 50.5 -7t61.5 -5q-8 -33 -8 -74q0 -78 72 -96h8q0 -2 -2 -2v-2q-10 -10 -27.5 -18.5t-42.5 -16.5q-29 -8 -42 -28.5t-13 -43.5q0 -29 18.5 -49t53.5 -20h10q53 6 101 35.5t79 82.5q10 14 14.5 34t4.5 42 q0 33 -17.5 61.5t-62.5 45.5q-10 0 -10 4q0 6 2 17t6 24q90 4 193.5 17t224.5 42q39 10 57 35t18 55q0 10 -1 17.5t-5 19.5v-2q-18 68 -82 68q-12 0 -20 -1t-15 -3q-123 -33 -221 -46.5t-178 -13.5q-49 0 -94 4t-88 13q-76 12 -115 40.5t-57 71.5q-14 35 -15 92 q0 59 15.5 122t36.5 122q31 88 92 177t135 167t153.5 141.5t149.5 102.5q4 -2 14 -2q57 0 95 61h-2q25 37 24 80q0 43 -29 72q-20 20 -53 20q-37 0 -76 -22q-92 -49 -193 -127t-193.5 -173.5t-168 -204t-120.5 -214.5q-35 -82 -55.5 -167t-20.5 -163z" />
<glyph unicode="&#xc8;" horiz-adv-x="1314" d="M150 494q2 -35 27.5 -59.5t72.5 -24.5h2q10 -2 14 -2h15h24q14 0 27 2q-6 -31 -14.5 -67t-15.5 -73t-12 -71.5t-5 -61.5q0 -70 15 -127t42 -98v2q61 -94 174 -94h8q61 0 137 9t151 24.5t144.5 35t120.5 37.5q72 25 132.5 60t101.5 86v-2q14 16 17 32.5t3 32.5 q0 47 -33 74h2q-14 12 -30.5 16t-34.5 4q-16 0 -33.5 -7t-36.5 -25q-29 -35 -66.5 -56.5t-86.5 -38.5q-117 -41 -241 -61.5t-214 -24.5h-10q-33 0 -47 17q-12 12 -17.5 36.5t-5.5 55.5v12q2 70 16.5 145.5t41.5 153.5q68 10 157.5 24.5t181 31t171 32t126.5 27.5 q41 12 57.5 39.5t16.5 56.5q0 4 -1 9.5t-1 9.5q-6 29 -26.5 51t-53.5 22h-8q-2 0 -12 -4l2 2q-47 -12 -111.5 -24.5t-137.5 -24.5t-149.5 -25.5t-148.5 -25.5q23 78 42 154.5t24 142.5q0 8 1 15t1 14q0 8 -1 15t-3 17q98 16 204.5 24.5t214.5 8.5h68t68 -2h10 q41 0 62.5 25.5t23.5 60.5v12q0 31 -24.5 58.5t-71.5 27.5q-33 2 -68 2h-74q-86 0 -185 -4t-202.5 -17t-209 -37t-204.5 -62q-35 -16 -50 -42t-15 -55q0 -35 22.5 -62.5t61.5 -27.5q23 0 37 8l-2 -2q29 10 58.5 18.5t57.5 18.5q4 2 11.5 3t15.5 5v-16q0 -8 -1 -15t-1 -14 q-6 -53 -27.5 -136t-52.5 -167q-18 -4 -36.5 -6t-35.5 -4q-25 10 -45 10q-45 0 -73 -24h2q-51 -41 -51 -90zM569 1569q0 -33 31 -56q55 -47 116.5 -94t121.5 -90q18 -16 43 -16q18 0 32.5 9t24.5 19q18 23 18 52q0 33 -30 55h2q-33 29 -69 56.5t-71 56.5q-25 18 -48 36.5 t-48 38.5q-20 16 -43 17q-20 0 -34.5 -9.5t-24.5 -23.5q-20 -25 -21 -51z" />
<glyph unicode="&#xc9;" horiz-adv-x="1314" d="M150 492q2 -35 27.5 -59.5t72.5 -24.5h2q10 -2 14 -2h15h24q14 0 27 2q-6 -29 -14.5 -66t-15.5 -74t-12 -70.5t-5 -60.5q0 -70 15 -127t42 -98v2q61 -94 174 -94h8q61 0 137 9t151 24.5t144.5 35t120.5 37.5q72 25 132.5 60t101.5 86v-2q14 16 17 32.5t3 30.5 q0 49 -33 76h2q-27 20 -65 20q-16 0 -33.5 -7t-36.5 -25q-29 -35 -66.5 -56.5t-86.5 -38.5q-117 -41 -241 -61.5t-214 -24.5h-10q-33 0 -47 17q-12 12 -17.5 36.5t-5.5 55.5v12q4 137 58 299q68 10 157.5 24.5t181 31t171 32t126.5 27.5q41 12 57.5 39.5t16.5 56.5 q0 4 -1 9.5t-1 9.5q-6 29 -26.5 51t-53.5 22h-8q-2 0 -12 -4l2 2q-47 -12 -111.5 -24.5t-137.5 -25.5t-149.5 -25.5t-148.5 -24.5q23 78 42 153.5t24 141.5q0 8 1 15t1 14q0 10 -1 17t-3 17q98 16 204.5 23.5t214.5 7.5h68t68 -2h10q41 0 62.5 25.5t23.5 60.5v12 q0 33 -24.5 59.5t-71.5 26.5q-33 2 -68 2h-74q-86 0 -185 -4t-202.5 -16t-209 -36t-204.5 -62q-35 -16 -50 -43t-15 -54q0 -35 22.5 -62.5t61.5 -27.5q23 0 37 8l-2 -2q29 10 58.5 17.5t57.5 17.5q4 2 11.5 3t15.5 5v-16q0 -6 -1 -13t-1 -14q-6 -53 -27.5 -136t-52.5 -167 q-18 -4 -36.5 -6t-35.5 -4q-25 10 -45 10t-40.5 -7t-32.5 -19h2q-51 -39 -51 -90zM621 1350q0 -18 10 -35q10 -20 24.5 -32.5t38.5 -12.5q8 0 19.5 4t25.5 8q31 14 72 35.5t85 44t84 45.5t67 39q39 27 38 61q0 20 -12 43v2q-23 37 -61 37q-10 0 -20.5 -2t-20.5 -12l2 2 q-31 -16 -70 -36.5t-80 -42t-81 -42t-70 -35.5q-51 -33 -51 -71z" />
<glyph unicode="&#xca;" horiz-adv-x="1314" d="M150 492q2 -35 27.5 -59.5t72.5 -24.5h2q10 -2 14 -2h15h24q14 0 27 2q-6 -29 -14.5 -66t-15.5 -74t-12 -70.5t-5 -60.5q0 -70 15 -127t42 -98v2q61 -94 174 -94h8q61 0 137 9t151 24.5t144.5 35t120.5 37.5q72 25 132.5 60t101.5 86v-2q14 16 17 32.5t3 30.5 q0 49 -33 76h2q-27 20 -65 20q-16 0 -33.5 -7t-36.5 -25q-29 -35 -66.5 -56.5t-86.5 -38.5q-117 -41 -241 -61.5t-214 -24.5h-10q-33 0 -47 17q-12 12 -17.5 36.5t-5.5 55.5v12q4 137 58 299q68 10 157.5 24.5t181 31t171 32t126.5 27.5q41 12 57.5 39.5t16.5 56.5 q0 4 -1 9.5t-1 9.5q-6 29 -26.5 51t-53.5 22h-8q-2 0 -12 -4l2 2q-47 -12 -111.5 -24.5t-137.5 -25.5t-149.5 -25.5t-148.5 -24.5q23 78 42 153.5t24 141.5q0 8 1 15t1 14q0 10 -1 17t-3 17q98 16 204.5 23.5t214.5 7.5h68t68 -2h10q41 0 62.5 25.5t23.5 60.5v12 q0 33 -24.5 59.5t-71.5 26.5q-33 2 -68 2h-74q-86 0 -185 -4t-202.5 -16t-209 -36t-204.5 -62q-35 -16 -50 -43t-15 -54q0 -35 22.5 -62.5t61.5 -27.5q23 0 37 8l-2 -2q29 10 58.5 17.5t57.5 17.5q4 2 11.5 3t15.5 5v-16q0 -6 -1 -13t-1 -14q-6 -53 -27.5 -136t-52.5 -167 q-18 -4 -36.5 -6t-35.5 -4q-25 10 -45 10t-40.5 -7t-32.5 -19h2q-51 -39 -51 -90zM541 1386q0 -20 12 -38q18 -39 65 -39q23 0 39 10q14 10 28.5 18.5t29.5 18.5h-2q27 16 54.5 32.5t49.5 32.5q10 -10 22.5 -20t24.5 -25q12 -10 25.5 -24.5t25.5 -24.5q10 -10 23.5 -13 t26.5 -3q29 0 51 20.5t22 50.5q0 12 -3 27t-15 29h-2q-27 29 -62.5 65.5t-64.5 65.5q-29 25 -57 24q-23 0 -54 -20v2q-23 -12 -45 -27.5t-51 -31.5q-27 -16 -54.5 -34t-56.5 -34q-33 -25 -32 -62z" />
<glyph unicode="&#xcb;" horiz-adv-x="1314" d="M150 492q2 -35 27.5 -59.5t72.5 -24.5h2q10 -2 14 -2h15h24q14 0 27 2q-6 -29 -14.5 -66t-15.5 -74t-12 -70.5t-5 -60.5q0 -72 15 -128t42 -97v2q61 -94 174 -94h8q61 0 137 9t151 24.5t144.5 35t120.5 37.5q72 25 132.5 60t101.5 86v-2q14 16 17 32.5t3 30.5 q0 49 -33 76h2q-27 20 -65 20q-35 0 -70 -32q-29 -35 -66.5 -56.5t-86.5 -38.5q-117 -41 -241 -61.5t-214 -24.5h-10q-33 0 -47 17q-12 12 -17.5 36.5t-5.5 55.5v12q4 137 58 299q68 10 157.5 24.5t181 31t171 32t126.5 27.5q41 10 57.5 38.5t16.5 57.5q0 4 -1 8t-1 9 q-6 31 -26.5 52t-53.5 21h-8q-2 0 -12 -2l2 2q-47 -12 -111.5 -24.5t-137.5 -25.5t-149.5 -25.5t-148.5 -24.5q23 78 42 153.5t24 141.5q0 8 1 15t1 14q0 10 -1 17t-3 17q98 16 204.5 23.5t214.5 7.5h68t68 -2h10q41 0 62.5 25.5t23.5 60.5v12q0 33 -24.5 59.5t-71.5 26.5 q-33 2 -68 2h-74q-86 0 -185 -4t-202.5 -17t-209 -37t-204.5 -62q-35 -14 -50 -41t-15 -54q0 -35 22.5 -62.5t61.5 -27.5q20 0 37 6l-2 -2q29 10 58.5 18.5t57.5 18.5q4 2 11.5 3t15.5 5v-16q0 -8 -1 -15.5t-1 -13.5q-6 -53 -27.5 -135t-52.5 -166q-18 -4 -36.5 -6t-35.5 -4 q-25 10 -45 10t-40.5 -7t-32.5 -19h2q-51 -39 -51 -90zM504 1432q0 -49 31.5 -81t80.5 -32q45 0 79 34t34 79q0 51 -32.5 84.5t-82.5 33.5q-49 0 -79.5 -33.5t-30.5 -84.5zM836 1432q0 -49 31.5 -81t80.5 -32q47 2 79 33t34 80q0 51 -35 84.5t-80 33.5q-49 0 -79.5 -33.5 t-30.5 -84.5z" />
<glyph unicode="&#xcc;" horiz-adv-x="897" d="M76 1061q0 -37 24.5 -63.5t65.5 -34.5q16 -4 37 -5q16 0 35.5 4.5t33.5 14.5q23 2 43 2h47h37q20 0 39 -2v-53q0 -141 -7 -298t-15 -317q-4 -45 -5 -88t-5 -86q-29 -2 -51.5 -3t-43.5 -1h-106q-47 0 -73 -28.5t-26 -61.5q0 -35 25 -63.5t72 -30.5q16 -2 33 -2h34h45 q25 0 52 2q12 0 25.5 1t27.5 1q12 -16 30.5 -24.5t34.5 -8.5q41 0 68 33q86 4 157.5 5t125.5 1q45 0 69.5 27.5t24.5 62.5v4q0 35 -21.5 61.5t-68.5 26.5h-127h-64t-59 -2q4 49 6 99.5t6 103.5q10 141 18.5 284.5t8.5 272.5v80q33 -4 71 -4h82h97q25 0 48 1t42 3 q45 4 66.5 30.5t21.5 61.5q0 37 -24.5 64.5t-69.5 27.5h-111h-133q-66 0 -123 2q-23 37 -68 37q-18 0 -37.5 -8t-29.5 -25h-150q-43 0 -82 -2t-63 -8q-47 -8 -68.5 -35.5t-21.5 -56.5v-2zM307 1530q0 -33 29 -53q55 -47 116.5 -95.5t118.5 -91.5q10 -10 21.5 -13t21.5 -3 q18 0 33 9.5t25 21.5q18 18 18 49q0 35 -28 55h2q-35 29 -71 56.5t-71 56.5q-23 18 -46 36.5t-48 38.5q-16 16 -43 17q-18 0 -33.5 -9.5t-25.5 -23.5q-18 -23 -19 -51z" />
<glyph unicode="&#xcd;" horiz-adv-x="897" d="M76 1059q0 -35 24.5 -61.5t65.5 -34.5q16 -4 37 -5q16 0 35.5 4.5t33.5 14.5q23 2 43 2h47h37q20 0 39 -2v-53q0 -141 -7 -298t-15 -317q-4 -45 -5 -88t-5 -86q-29 -2 -51.5 -3t-43.5 -1h-106q-47 0 -73 -28.5t-26 -61.5q0 -35 25 -63.5t72 -30.5q16 -2 33 -2h34h45 q25 0 52 2q12 0 25.5 1t27.5 1q12 -16 30.5 -24.5t34.5 -8.5q41 0 68 33q86 4 157.5 5t125.5 1q45 0 69.5 27.5t24.5 62.5v4q0 35 -21.5 61.5t-68.5 26.5h-127h-64t-59 -2q4 49 6 99.5t6 103.5q10 141 18.5 284.5t8.5 272.5v80q33 -4 71 -4h82h97q25 0 48 1t42 3 q45 4 66.5 30.5t21.5 61.5q0 37 -24.5 64.5t-69.5 27.5h-111h-133q-66 0 -123 2q-23 37 -68 37q-18 0 -37.5 -8t-29.5 -25h-150q-43 0 -82 -2t-63 -8q-47 -8 -68.5 -35.5t-21.5 -56.5v-4zM401 1370q0 -18 11 -35q8 -18 22.5 -31.5t38.5 -13.5q8 0 19.5 4t23.5 9 q31 14 73 35.5t85 44t83 45t66 38.5q37 25 37 62q0 10 -2 20.5t-8 20.5v2q-23 39 -62 39q-25 0 -38 -13q-31 -16 -70 -36.5t-79 -42t-80 -42t-70 -34.5q-49 -31 -50 -72z" />
<glyph unicode="&#xce;" horiz-adv-x="897" d="M76 1059q0 -35 24.5 -62.5t65.5 -35.5q16 -4 37 -5q16 0 35.5 5.5t33.5 15.5q23 2 43 2h47h37q20 0 39 -2v-53q0 -141 -7 -298t-15 -317q-4 -45 -5 -88t-5 -86q-29 -2 -51.5 -3t-43.5 -1h-106q-47 0 -73 -28.5t-26 -61.5q0 -35 25 -63.5t72 -30.5q16 -2 33 -2h34h45 q25 0 52 2q12 0 25.5 1t27.5 1q12 -16 30.5 -24.5t34.5 -8.5q41 0 68 33q86 4 157.5 5t125.5 1q45 0 69.5 27.5t24.5 62.5v4q0 35 -21.5 61.5t-68.5 26.5h-127h-64t-59 -2q4 49 6 99.5t6 103.5q10 141 18.5 284.5t8.5 272.5v78q33 -4 71 -4h82h97q25 0 48 1t42 3 q45 6 66.5 32.5t21.5 61.5q0 37 -24.5 64.5t-69.5 27.5h-111h-133q-66 0 -123 2q-23 37 -68 37q-18 0 -37.5 -8t-29.5 -25h-150q-43 0 -82 -2t-63 -8q-47 -10 -68.5 -36.5t-21.5 -55.5v-4zM285 1368q0 -20 12 -39q23 -39 65 -39q23 0 39 10q12 10 27.5 18.5t30.5 18.5h-2 q27 16 54.5 32.5t49.5 33.5q10 -10 21.5 -20.5t25.5 -22.5q10 -12 23.5 -26.5t25.5 -24.5q10 -10 23.5 -13.5t26.5 -3.5q29 0 51 20.5t22 53.5q0 10 -4 24.5t-14 28.5h-2q-27 29 -62.5 66t-64.5 65q-29 25 -58 25q-12 0 -24 -5t-29 -16v2q-20 -12 -42.5 -27.5t-51.5 -31.5 q-27 -16 -54.5 -33.5t-54.5 -33.5q-35 -23 -34 -62z" />
<glyph unicode="&#xcf;" horiz-adv-x="897" d="M76 1059q0 -37 24.5 -63.5t65.5 -34.5q16 -4 37 -5q16 0 35.5 5.5t33.5 15.5q23 2 43 2h47h37q20 0 39 -2v-53q0 -141 -7 -298t-15 -317q-4 -45 -5 -88t-5 -86q-29 -2 -51.5 -3t-43.5 -1h-106q-47 0 -73 -28.5t-26 -61.5q0 -35 25 -63.5t72 -30.5q16 -2 33 -2h34h45 q25 0 52 2q12 0 25.5 1t27.5 1q12 -16 30.5 -24.5t34.5 -8.5q41 0 68 33q86 4 157.5 5t125.5 1q45 0 69.5 27.5t24.5 62.5v4q0 35 -21.5 61.5t-68.5 26.5h-127h-64t-59 -2q4 49 6 99.5t6 103.5q10 141 18.5 284.5t8.5 272.5v78q33 -4 71 -4h82h97q25 0 48 1t42 3 q45 6 66.5 31.5t21.5 62.5q0 35 -24.5 63.5t-69.5 28.5h-111h-133q-66 0 -123 2q-23 35 -68 35q-18 0 -37.5 -7t-29.5 -24h-150q-43 0 -82 -2t-63 -8q-47 -10 -68.5 -36.5t-21.5 -55.5v-4zM264 1413q0 -49 32 -81t79 -32q45 0 78.5 34t33.5 79q0 51 -32.5 85t-81.5 34 q-47 0 -77 -34t-32 -85zM594 1413q0 -49 31.5 -81t81.5 -32q45 2 76.5 33t33.5 80q0 51 -34.5 85t-77.5 34q-49 0 -80 -34t-31 -85z" />
<glyph unicode="&#xd0;" horiz-adv-x="1339" d="M12 553q0 -35 29 -64v3q20 -20 53 -21q20 0 37 10h-2q4 2 9 5t9 8q10 10 23 10q8 2 20 2h33h15q-12 -125 -19.5 -217t-7.5 -133q0 -49 16.5 -87t28.5 -63q16 -35 42 -47t52 -12q14 0 51 12q18 8 30.5 25.5t12.5 42.5q0 14 -8 30l-5 13q-5 14 -9 22q-10 16 -16.5 33.5 t-6.5 32.5q0 33 7.5 124t19.5 220q14 -2 29 -2h32q70 0 113 6q39 6 56.5 28.5t17.5 47.5v4q0 29 -17.5 51t-52.5 22h-12q-14 -2 -32.5 -3t-41.5 -1h-37q-18 0 -39 2q2 49 6.5 100.5t10.5 104.5q4 59 11 120.5t13 121.5q18 -10 37 -21.5t39 -21.5q61 -35 125 -71t124 -70.5 t111.5 -65.5t88.5 -55q86 -57 129 -109.5t43 -105.5q0 -39 -33 -93.5t-82 -109.5t-106.5 -107.5t-106.5 -87.5q-86 -61 -195.5 -121.5t-236.5 -127.5q-29 -14 -41 -38t-12 -49q0 -20 10 -40q14 -23 36.5 -39.5t45.5 -16.5q29 0 51 15q123 66 234.5 127t216.5 135 q70 49 144.5 116.5t136 141t100 148.5t38.5 138v5q0 203 -272 378q-53 35 -142 87.5t-199 114t-230.5 127t-239.5 128.5q-16 8 -30.5 10t-26.5 2q-49 0 -78 -34q-25 -23 -25 -58q0 -14 4 -28.5t17 -28.5l-2 4q31 -55 90 -55q12 -6 26.5 -12.5t28.5 -12.5q-6 -63 -11 -128.5 t-11 -131.5q-8 -72 -15.5 -140.5t-13.5 -135.5h-29q-37 0 -67.5 -1t-49.5 -6q-35 -8 -58 -31.5t-32 -58.5q0 -4 -1 -8t-1 -8zM434 63q0 -2 1 -3l1 -1v2z" />
<glyph unicode="&#xd1;" horiz-adv-x="1343" d="M207 121q0 -78 6 -133q4 -63 39 -107.5t104 -52.5h13q41 0 66.5 28.5t25.5 63.5q0 23 -12.5 42.5t-40.5 29.5q-8 2 -13 33q-2 4 -2 12q-2 16 -2 33v36q0 84 8.5 197t18.5 229q72 -133 149.5 -245.5t161.5 -198.5q59 -68 118.5 -96.5t113.5 -28.5q90 0 160.5 64.5 t105.5 169.5h-2q16 49 30.5 114.5t24.5 136t16.5 144.5t6.5 141q0 61 -4.5 114.5t-14.5 92.5q-10 35 -35.5 52.5t-54.5 17.5q-8 0 -15.5 -1t-17.5 -5q-29 -12 -49 -37t-25 -64v-8q0 -45 31 -68q2 -16 3 -34.5t1 -38.5q0 -63 -7 -136t-18.5 -140.5t-23.5 -124t-24 -87.5 q-12 -29 -32 -61.5t-54 -34.5h-5q-20 0 -41.5 11.5t-52.5 39.5q-61 61 -119.5 142t-110.5 169.5t-95 173.5t-74 154q4 20 4 31q0 61 -55 78q-2 6 -5 12t-1 2l-2 4l-2 3q-1 3 -8 11.5t-21 30.5q-18 20 -56 21q-27 0 -45 -11q-20 -10 -35.5 -31.5t-15.5 -52.5q0 -4 1 -9t1 -9 q4 -20 15.5 -45t21.5 -47l4 -8q-10 -68 -20 -159t-18.5 -188.5t-14.5 -193.5t-6 -178zM496 1151q0 -23 12 -39t27 -22h-3q20 -10 43 -11q18 0 36 9.5t28 29.5q33 53 61 53q23 0 54 -24q78 -70 161 -70h5q49 0 89 31t60 109h-2q4 10 4 12v8q0 23 -14.5 42t-36.5 28 q-16 4 -25 4q-23 0 -42 -12.5t-29 -41.5q-10 -25 -17 -24q-16 0 -65 37q-74 55 -148 55q-49 0 -100 -31.5t-86 -103.5q-8 -10 -10 -19.5t-2 -19.5z" />
<glyph unicode="&#xd2;" horiz-adv-x="1611" d="M166 279q0 -193 108 -295q57 -53 138.5 -80t181.5 -27q82 0 178 18.5t201 59.5q43 16 90 32.5l94 33t94 32t95 33.5q141 55 208.5 137.5t69.5 186.5q0 162 -164 288q-72 53 -152.5 103.5t-166.5 93.5q-80 39 -148.5 53.5t-128.5 14.5q-51 0 -96 -7q-2 0 -2 -2h-2v4 q0 31 -25.5 56.5t-54.5 36.5q-12 4 -21.5 5t-15.5 1q-39 0 -63.5 -24.5t-32.5 -63.5q-80 -53 -149.5 -138.5t-122 -181.5t-83 -193.5t-30.5 -176.5zM354 279q0 45 22.5 113.5t60.5 142t86 142t100 111.5q12 -12 30.5 -17t38.5 -5q23 0 33 2q25 4 48.5 6t49.5 2 q55 0 116.5 -12t121.5 -41h-2q78 -41 148.5 -83t125.5 -89v2q94 -86 94 -147q0 -41 -35.5 -77t-121.5 -73q-66 -29 -138.5 -53.5t-144.5 -48.5q-20 -8 -39.5 -14.5t-38.5 -12.5q-106 -35 -188 -52.5t-148 -17.5q-53 0 -91 13.5t-64 35.5q-31 27 -45.5 72t-18.5 101z M547 1368q0 -16 6 -29.5t22 -25.5q55 -47 118 -94.5t122 -90.5q18 -16 43 -16q18 0 32.5 9.5t24.5 21.5q18 18 19 49q0 33 -29 55h2q-35 29 -70.5 56.5t-70.5 56.5q-25 16 -49.5 35.5t-46.5 40.5q-20 16 -45 16q-18 0 -34 -9t-26 -24q-18 -23 -18 -51z" />
<glyph unicode="&#xd3;" horiz-adv-x="1611" d="M166 281q0 -195 108 -297q57 -53 138.5 -80t181.5 -27q82 0 178 18.5t201 59.5q43 16 90 32.5l94 33t94 32t95 33.5q141 55 208.5 137.5t69.5 186.5q0 162 -164 288q-72 53 -152.5 104.5t-166.5 92.5q-80 39 -148.5 53.5t-128.5 14.5q-51 0 -96 -7q-2 0 -2 -2h-2v4 q0 33 -25.5 57.5t-54.5 35.5q-12 4 -21.5 5t-15.5 1q-39 0 -63.5 -24.5t-32.5 -63.5q-80 -53 -149.5 -138.5t-122 -181.5t-83 -193.5t-30.5 -174.5zM354 281q0 43 22.5 112.5t60.5 143t86 141t100 110.5q12 -12 30.5 -17t38.5 -5q23 0 33 2q25 4 48.5 6t49.5 2 q55 0 116.5 -11t121.5 -42h-2q78 -41 148.5 -83t125.5 -89v2q94 -86 94 -147q0 -41 -35.5 -77t-121.5 -73q-66 -29 -138.5 -53.5t-144.5 -48.5q-20 -8 -39.5 -14.5t-38.5 -12.5q-106 -35 -188 -52.5t-148 -17.5q-53 0 -91 13.5t-64 35.5q-31 27 -45.5 72t-18.5 103z M645 1245q0 -18 10 -35q10 -20 24.5 -32.5t39.5 -12.5q14 0 45 11q31 14 72 35.5t85 45t83.5 45t68.5 37.5q39 27 39 64q0 18 -12 41v2q-23 39 -62 39q-10 0 -21 -2t-22 -13l2 3q-31 -16 -69.5 -37t-79.5 -42.5t-81 -42t-73 -34.5q-49 -33 -49 -72z" />
<glyph unicode="&#xd4;" horiz-adv-x="1611" d="M166 279q0 -193 108 -295q57 -53 138.5 -80t181.5 -27q82 0 178 18.5t201 59.5q43 16 90 32.5l94 33t94 32t95 33.5q141 55 208.5 137.5t69.5 186.5q0 162 -164 288q-72 53 -152.5 103.5t-166.5 91.5q-80 41 -148.5 54.5t-128.5 13.5h-49q-25 0 -47 -5q-2 0 -2 -2h-2v4 q0 31 -25.5 55.5t-54.5 35.5q-12 4 -21.5 5t-15.5 1q-39 0 -63.5 -23.5t-32.5 -64.5q-80 -53 -149.5 -137.5t-122 -180.5t-83 -193.5t-30.5 -176.5zM354 279q0 45 22.5 113.5t60.5 142t86 142t100 111.5q12 -12 30.5 -17t38.5 -5q23 0 33 2q25 4 48.5 6t49.5 2 q55 0 116.5 -12t121.5 -41h-2q78 -41 148.5 -83t125.5 -89v2q94 -86 94 -147q0 -41 -35.5 -77t-121.5 -73q-66 -29 -138.5 -53.5t-144.5 -48.5q-20 -8 -39.5 -14.5t-38.5 -12.5q-106 -35 -188 -52.5t-148 -17.5q-53 0 -91 13.5t-64 35.5q-31 27 -45.5 72t-18.5 101z M631 1206q0 -20 12 -39q23 -39 66 -39q25 0 41 11q12 10 27.5 18t29.5 19h-2q27 16 55.5 32.5t50.5 32.5q10 -10 21.5 -20.5t25.5 -24.5q12 -10 24.5 -24.5t25 -24.5t26 -13.5t23.5 -3.5q31 0 53.5 20.5t22.5 51.5q0 12 -3.5 26.5t-15.5 28.5h-2q-27 29 -62.5 66t-64.5 66 q-29 25 -59 24q-12 0 -24.5 -5t-29.5 -15v2q-23 -12 -45 -27.5t-51 -32.5q-27 -16 -55.5 -33.5t-54.5 -33.5q-35 -23 -35 -62z" />
<glyph unicode="&#xd5;" horiz-adv-x="1611" d="M166 279q0 -193 108 -295q57 -53 138.5 -80t181.5 -27q82 0 178 18.5t201 59.5q43 16 90 32.5l94 33t94 32t95 33.5q141 55 208.5 137.5t69.5 186.5q0 162 -164 288q-72 53 -152.5 103.5t-166.5 91.5q-80 39 -148.5 53.5t-128.5 14.5q-51 0 -96 -7q-2 0 -2 -2h-2v4 q0 33 -25.5 57.5t-54.5 35.5q-12 4 -21.5 5t-15.5 1q-39 0 -63.5 -24.5t-32.5 -63.5q-80 -53 -149.5 -138.5t-122 -181.5t-83 -193.5t-30.5 -174.5zM354 279q0 45 22.5 113.5t60.5 142t86 141t100 110.5q12 -10 30.5 -15t38.5 -5q23 0 33 2q25 4 48.5 6t49.5 2 q55 0 116.5 -12t121.5 -43h-2q78 -41 148.5 -82t125.5 -88v2q94 -88 94 -147q0 -41 -35.5 -77t-121.5 -73q-66 -29 -138.5 -53.5t-144.5 -48.5q-20 -8 -39.5 -14.5t-38.5 -12.5q-106 -35 -188 -52.5t-148 -17.5q-53 0 -91 13.5t-64 35.5q-31 27 -45.5 72t-18.5 101z M524 1186q0 -23 12.5 -38t26.5 -22h-2q18 -12 43 -12q39 0 66 39q33 55 61 55q25 0 53 -26q82 -70 164 -70h4q49 0 89.5 31.5t60.5 107.5h-2q4 10 4 15v8q0 23 -13.5 41t-35.5 26q-8 2 -15.5 4.5t-11.5 2.5q-23 0 -42 -12.5t-30 -41.5q-10 -27 -16 -26q-12 0 -68 37 q-76 57 -147 57q-51 0 -102.5 -33t-85.5 -104q-8 -10 -10.5 -19.5t-2.5 -19.5z" />
<glyph unicode="&#xd6;" horiz-adv-x="1611" d="M166 279q0 -193 108 -295q57 -53 138.5 -80t181.5 -27q82 0 178 18.5t201 59.5q43 16 90 32.5l94 33t94 32t95 33.5q141 55 208.5 137.5t69.5 186.5q0 162 -164 288q-72 53 -152.5 103.5t-166.5 91.5q-80 39 -148.5 53.5t-128.5 14.5q-51 0 -96 -7q-2 0 -2 -2h-2v4 q0 33 -25.5 57.5t-54.5 35.5q-12 4 -21.5 5t-15.5 1q-39 0 -63.5 -24.5t-32.5 -63.5q-80 -53 -149.5 -137.5t-122 -180.5t-83 -193.5t-30.5 -176.5zM354 279q0 45 22.5 113.5t60.5 142t86 142t100 111.5q12 -12 30.5 -17t38.5 -5q23 0 33 2q25 4 48.5 6t49.5 2 q55 0 116.5 -12t121.5 -43h-2q78 -41 148.5 -82t125.5 -88v2q94 -88 94 -147q0 -41 -35.5 -77t-121.5 -73q-66 -29 -138.5 -53.5t-144.5 -48.5q-20 -8 -39.5 -14.5t-38.5 -12.5q-106 -35 -188 -52.5t-148 -17.5q-53 0 -91 13.5t-64 35.5q-31 27 -45.5 72t-18.5 101z M614 1260q0 -49 32 -81t81 -32q45 0 79 34t34 79q0 49 -33 83.5t-82 34.5t-79 -34.5t-32 -83.5zM948 1260q0 -49 32 -81t81 -32q47 2 80 33t35 80q0 49 -35 83.5t-82 34.5q-49 0 -80 -34.5t-31 -83.5z" />
<glyph unicode="&#xd7;" horiz-adv-x="753" d="M121 457q0 -31 18 -56v2q25 -39 68 -38q49 0 65 49l11 28q4 12 6 15q4 4 15 14t28 25q10 8 19 16t22 18q41 -47 75.5 -88t57.5 -61q14 -12 28.5 -16.5t26.5 -4.5q31 1 49 21q25 20 25 53t-25 51q-23 18 -55.5 57.5t-67.5 82.5q31 29 58.5 55.5t48.5 48.5q25 25 24 53 q0 16 -6 28.5t-16 23.5q-12 10 -24.5 17t-28.5 7q-31 0 -51 -24q-18 -23 -44 -45.5t-55 -47.5q-27 29 -50.5 51.5t-41.5 38.5h2q-14 12 -32.5 17.5t-34.5 5.5q-33 0 -54 -14q-41 -23 -41 -62v-8q2 -25 14.5 -44t39.5 -24l-2 3l18 -7q6 -4 12 -5t10 -5q6 -6 15.5 -17.5 t21.5 -25.5q-86 -74 -127 -121q-10 -16 -16 -32.5t-6 -34.5z" />
<glyph unicode="&#xd8;" horiz-adv-x="1611" d="M166 281q0 -197 108 -299q39 -33 82 -56q-100 -147 -110 -225v-14q0 -63 59 -76l-2 2q8 -4 17.5 -6t15.5 -2q23 0 37 12t24 43q10 35 44 92.5t87 128.5q16 -2 33 -2h35q82 0 176 17.5t201 58.5q43 16 90 32.5l94 33t94 32t95 33.5q141 55 208.5 137t69.5 187 q0 162 -164 288q-47 37 -99 71t-106 65q57 84 92.5 148.5t43.5 107.5q2 10 2 18v20q0 37 -11.5 63t-38.5 30l3 -2q-10 4 -17 4h-10q-25 0 -44.5 -12.5t-37.5 -45.5q-16 -25 -21.5 -55.5t-5.5 -67.5q-20 -33 -43.5 -67.5t-48.5 -69.5q-74 35 -138.5 46.5t-119.5 11.5 q-23 0 -46 -2.5t-44 -4.5q-4 0 -6 -2v4q0 33 -25.5 57.5t-54.5 35.5q-12 4 -21.5 5t-15.5 1q-39 0 -63.5 -24.5t-32.5 -63.5q-80 -53 -149.5 -138.5t-122 -181.5t-83 -193.5t-30.5 -174.5zM354 281q0 43 22.5 112.5t60.5 143t86 141t100 110.5q12 -12 30.5 -16t38.5 -4h31 q25 4 49.5 6t50.5 2q41 0 85 -6t91 -22q-72 -100 -153.5 -201t-159.5 -199q-59 -72 -113.5 -140.5t-103.5 -133.5q-33 12 -51 32v3q-31 27 -45.5 71.5t-18.5 100.5zM670 68q41 53 86 110.5t92 116.5q78 98 154.5 195.5t142.5 189.5q53 -29 100 -61.5t88 -67.5v2 q94 -86 94 -147q0 -41 -35.5 -77t-121.5 -73q-66 -29 -138.5 -53.5t-144.5 -48.5q-20 -8 -39.5 -13.5t-38.5 -11.5q-72 -23 -131 -38t-108 -23z" />
<glyph unicode="&#xd9;" horiz-adv-x="1366" d="M207 403q0 -59 5 -118.5t17 -114.5q43 -213 152 -309q100 -92 233 -92q43 0 90.5 8t94.5 30q92 41 176 116t147 167q61 86 100.5 185.5t62 202t30.5 205.5t8 196q0 131 -11.5 231t-21.5 143v2q-12 41 -35.5 58.5t-54.5 17.5q-57 0 -90 -53l2 2q-10 -12 -12 -24.5 t-2 -26.5q0 -18 2 -32.5t6 -33.5q4 -16 6 -33.5t6 -42.5q6 -47 10.5 -102t4.5 -115q0 -84 -8.5 -175t-28 -179t-50 -170t-75.5 -147q-78 -109 -171 -173.5t-177 -64.5q-31 0 -59.5 10.5t-51.5 34.5q-61 57 -94 199q-18 92 -19 190q0 104 15.5 213t34.5 203q12 68 20 124 t8 101q0 47 -29.5 74t-66.5 27h-4q-31 0 -59.5 -26t-28.5 -71q0 -25 -8.5 -66.5t-18.5 -96.5q-16 -96 -35.5 -217t-19.5 -257zM530 1536q0 -14 6.5 -27.5t22.5 -25.5q55 -47 116.5 -95.5t121.5 -91.5q16 -16 43 -16q18 0 32.5 9.5t24.5 21.5q18 23 18 49q0 35 -30 57h2 q-33 29 -69 56.5t-70 56.5q-25 16 -48.5 35.5t-48.5 40.5q-16 16 -43 16q-18 0 -33.5 -9t-25.5 -24q-18 -23 -19 -53z" />
<glyph unicode="&#xda;" horiz-adv-x="1366" d="M207 403q0 -59 5 -118.5t17 -114.5q43 -213 152 -309q100 -92 233 -92q43 0 90.5 8t94.5 30q92 41 176 116t147 167q61 86 100.5 185.5t62 202t30.5 204.5t8 195q0 133 -11.5 233t-21.5 143v2q-12 41 -35.5 58.5t-54.5 17.5q-57 0 -90 -53l2 2q-10 -12 -12 -25.5 t-2 -25.5q0 -18 2 -32.5t6 -33.5q4 -16 6 -33.5t6 -42.5q6 -47 10.5 -102t4.5 -115q0 -84 -8.5 -175t-28 -179t-50 -170t-75.5 -147q-78 -109 -171 -173.5t-177 -64.5q-31 0 -59.5 10.5t-51.5 34.5q-61 57 -94 199q-18 92 -19 190q0 104 15.5 213t34.5 203q12 68 20 124 t8 101q0 47 -29.5 74t-66.5 27h-4q-31 0 -59.5 -26t-28.5 -71q0 -25 -8.5 -66.5t-18.5 -99.5q-16 -94 -35.5 -214.5t-19.5 -256.5zM569 1360q0 -18 11 -33q8 -20 22 -33.5t39 -13.5q8 0 19.5 4t25.5 8q31 14 72 36t85 44.5t84 45t66 38.5q39 27 39 62q0 20 -12 43v2 q-23 39 -62 39q-27 0 -38 -13q-31 -16 -70 -36.5t-80 -42t-81 -42t-71 -36.5q-25 -14 -37 -34t-12 -38z" />
<glyph unicode="&#xdb;" horiz-adv-x="1366" d="M207 403q0 -59 5 -118.5t17 -114.5q43 -213 152 -309q100 -92 233 -92q43 0 90.5 8t94.5 30q92 41 176 116t147 167q61 86 100.5 185.5t62 202t30.5 204.5t8 195q0 133 -11.5 233t-21.5 143v2q-12 41 -35.5 58.5t-54.5 17.5q-57 0 -90 -53l2 2q-10 -12 -12 -25.5 t-2 -25.5q0 -18 2 -32.5t6 -33.5q4 -16 6 -33.5t6 -42.5q6 -47 10.5 -102t4.5 -115q0 -84 -8.5 -175t-28 -179t-50 -170t-75.5 -147q-78 -109 -171 -173.5t-177 -64.5q-31 0 -59.5 10.5t-51.5 34.5q-61 57 -94 199q-18 92 -19 190q0 104 15.5 213t34.5 203q12 68 20 124 t8 101q0 47 -29.5 74t-66.5 27h-4q-31 0 -59.5 -26t-28.5 -71q0 -25 -8.5 -66.5t-18.5 -96.5q-16 -96 -35.5 -217t-19.5 -257zM508 1405q0 -23 12 -41q18 -37 66 -37q23 0 39 10q12 8 27.5 16.5t29.5 18.5h-2q27 16 54.5 33.5t49.5 32.5q10 -8 21.5 -18.5t25.5 -24.5 q12 -12 24.5 -26.5t25 -25t26 -12.5t23.5 -2q31 0 53.5 19.5t22.5 52.5q0 12 -4.5 25.5t-16.5 27.5h-2q-25 29 -60.5 67t-64.5 66q-29 25 -57 25q-23 0 -53 -21v2q-23 -12 -45.5 -28.5t-51.5 -32.5q-27 -16 -54.5 -33.5t-55.5 -34.5q-33 -25 -33 -59z" />
<glyph unicode="&#xdc;" horiz-adv-x="1366" d="M207 401q0 -59 5 -117.5t17 -113.5q43 -213 152 -309q100 -92 233 -92q43 0 90.5 8t94.5 30q92 43 176 117t147 166q61 86 100.5 184.5t62 202t30.5 205.5t8 195q0 131 -11.5 231t-21.5 145v2q-25 74 -90 74q-57 0 -90 -53l2 2q-10 -10 -12 -23.5t-2 -27.5q0 -18 2 -31.5 t6 -32.5q4 -16 6 -34.5t6 -41.5q6 -47 10.5 -103t4.5 -116q0 -84 -8.5 -174t-28 -178t-50 -170t-75.5 -147q-78 -109 -171 -173.5t-177 -64.5q-31 0 -59.5 10.5t-51.5 34.5q-61 57 -94 199q-18 92 -19 190q0 104 15.5 212t34.5 204q12 68 20 124t8 99q0 47 -29.5 74 t-66.5 27h-4q-31 0 -59.5 -25t-28.5 -72q0 -23 -8.5 -65.5t-18.5 -98.5q-16 -96 -35.5 -216.5t-19.5 -256.5zM506 1409q0 -49 31.5 -82t80.5 -33q45 0 79 35t34 80q0 49 -32.5 84t-82.5 35q-49 0 -78.5 -35t-31.5 -84zM838 1409q0 -49 31.5 -82t80.5 -33q47 2 79 34t34 81 q0 49 -35 84t-80 35q-49 0 -79.5 -35t-30.5 -84z" />
<glyph unicode="&#xdd;" horiz-adv-x="1056" d="M102 1057q0 -12 7 -25h-3q18 -57 60.5 -158.5t96.5 -220t116.5 -241.5t120.5 -224q-47 -82 -96.5 -168t-96.5 -159q-20 -27 -20 -56q0 -23 12 -39t31 -30q10 -10 24.5 -14.5t30.5 -4.5t36.5 8.5t39.5 30.5q18 25 44.5 69t55.5 93t55.5 94t42.5 74q27 10 44.5 32.5 t17.5 53.5q0 12 -2 23q49 88 96 171t97.5 166.5t105.5 173t121 189.5q41 63 87 124t93 114q16 18 21.5 32.5t5.5 30.5q0 37 -30 63.5t-69 26.5t-76 -31q-96 -117 -190 -258q-92 -135 -173 -272t-142 -242q-16 -29 -29.5 -53t-28.5 -47q-47 86 -96 185.5t-93 194.5t-80 179 t-56 139q-10 33 -32 47.5t-46 14.5q-37 0 -70 -25.5t-33 -60.5zM485 1343q0 -18 11 -34q10 -20 24.5 -33.5t38.5 -13.5q8 0 19.5 4t23.5 8q31 14 73 35.5t86 45t84 46t66 39.5q39 23 39 61q0 23 -12 41v2q-23 39 -61 39q-27 0 -39 -12q-31 -16 -70 -37t-80 -42.5t-81 -41.5 t-72 -35q-49 -33 -50 -72z" />
<glyph unicode="&#xde;" horiz-adv-x="1312" d="M283 307q0 -106 8 -218t26 -234q10 -41 34 -56.5t55 -15.5q20 0 26 2q33 6 52.5 27.5t19.5 52.5v8t-4 14l2 -2q-18 90 -25.5 184.5t-7.5 190.5q0 102 7 200.5t20 186.5q2 35 8 82t13 94t15.5 87t14.5 61q29 -4 56.5 -10.5t55.5 -10.5q78 -16 149 -29.5t132 -31.5 q127 -33 127 -84v-4q0 -37 -72 -68q-39 -20 -91 -45.5t-110.5 -54.5t-120 -58.5t-122.5 -56.5q-29 -14 -42 -35.5t-13 -44.5t10 -43q10 -25 31.5 -41t50.5 -16q23 0 41 10q59 25 124.5 57.5t131.5 63.5q59 29 110.5 54.5t91.5 41.5q100 51 148.5 113.5t48.5 128.5v4 q-2 80 -72.5 149.5t-222.5 112.5q-59 16 -124.5 29.5t-137.5 27.5q-68 12 -129 25q45 154 97 284t93 212q8 14 9 32q0 27 -15.5 48.5t-38.5 31.5l2 -2q-31 20 -57 21q-47 0 -72 -53q-74 -160 -135 -328t-105 -344t-68.5 -363.5t-24.5 -386.5z" />
<glyph unicode="&#xdf;" horiz-adv-x="1073" d="M195 178q0 -147 12 -274t39 -205q16 -45 42.5 -64.5t59.5 -19.5q23 0 43.5 11.5t36.5 27.5q8 14 13 30.5t5 32.5q0 23 -8 43.5t-26 36.5q-14 51 -20.5 157.5t-6.5 235.5q0 86 3 174.5t9 167.5q23 178 71 295t144 164q47 18 84 28.5t70 12.5q39 0 55 -18q10 -14 10 -27 q0 -27 -26 -74q-29 -47 -67 -99t-81 -101t-85 -93.5t-74 -74.5q-35 -33 -35 -82q0 -35 14 -57v2q25 -57 84 -58h8t15 4l-2 -2q51 12 110 13q57 0 94 -13h-2q43 -20 43 -59q0 -20 -16 -60q-41 -80 -106.5 -126t-163.5 -91q-59 -31 -60 -84q0 -23 8 -38q10 -23 32 -41.5 t50 -18.5q23 0 37 8h-2q45 16 96.5 42t101.5 63t95 86t78 112v2q41 82 41 164q0 66 -30 118t-95 85q-53 27 -141 27h-2q63 66 119.5 141.5t95.5 134.5q59 102 59 191q0 88 -51 147q-31 31 -72 48.5t-96 17.5h-25q-49 -2 -111.5 -15.5t-129.5 -46.5q-147 -74 -225 -220 t-101 -392q-18 -182 -18 -369z" />
<glyph unicode="&#xe0;" horiz-adv-x="1216" d="M139 72q0 -102 58 -154q23 -16 49 -27.5t59 -11.5q74 0 164 66q25 18 50.5 41.5t53.5 46.5q45 39 85 72.5t67 52.5q4 4 12 4q0 -31 12.5 -70t26.5 -59v2q33 -47 73 -68.5t107 -21.5h25q14 0 29 2q76 8 164 39.5t157 68.5q47 31 47 86q0 27 -20 58v2q-29 31 -68 30 q-12 0 -22.5 -3t-22.5 -7q-23 -12 -54.5 -25.5t-65 -24.5t-66.5 -19.5t-58 -12.5h-8q-23 0 -37 10.5t-24 38.5q-6 16 -8 39t-2 52v30q0 53 -27 79t-68 26q-45 0 -102 -35v2q-33 -20 -75 -52t-86 -68t-86 -72.5t-75 -63.5q-6 -4 -12 -9t-12 -12q-23 -16 -35 -16q-4 0 -4 4 q-2 2 -2 17q0 14 3 30.5t9 26.5q20 45 56 93t78 93t85 82t80 62q76 55 135 55q18 0 36 -4t32 -19q27 -18 57 -18q29 0 52.5 13.5t37.5 35.5q12 20 13 49q0 16 -8.5 35t-28.5 35q-43 37 -85 51t-83 14q-76 0 -143.5 -35.5t-116.5 -66.5q-43 -29 -93.5 -71t-99.5 -92 t-93 -109.5t-75 -120.5q-43 -84 -47 -176zM563 1083q0 -31 29 -53q55 -47 117.5 -94t121.5 -90q16 -16 43 -17q18 0 33 9.5t25 21.5q18 18 18 49q0 33 -30 56h2q-33 29 -69 55.5t-73 54.5q-23 18 -47 38t-47 38q-20 16 -43 16q-20 0 -35.5 -9t-23.5 -23q-20 -20 -21 -52z " />
<glyph unicode="&#xe1;" horiz-adv-x="1216" d="M139 72q0 -102 58 -154q23 -16 49 -27.5t59 -11.5q74 0 164 66q25 18 50.5 40.5t53.5 45.5q45 41 85 74.5t67 52.5q8 4 12 4q0 -31 12.5 -70t26.5 -59v2q33 -47 73 -68.5t107 -21.5h25q14 0 29 2q76 8 164 39.5t157 68.5q47 31 47 86q0 27 -20 58v2q-29 31 -68 30 q-12 0 -22.5 -3t-22.5 -7q-23 -12 -54.5 -25.5t-65 -24.5t-66.5 -19.5t-58 -12.5h-8q-23 0 -37 10.5t-24 38.5q-6 16 -8 39t-2 52v30q0 53 -27 78t-68 25q-49 0 -102 -33v2q-33 -20 -75 -52t-86 -68t-86 -72.5t-75 -63.5q-6 -4 -12 -9t-12 -12q-23 -16 -35 -16q-4 0 -4 4 q-2 2 -2 17q0 14 3 30.5t9 26.5q20 45 56 93t78 92t85 82t80 63q76 55 135 55q18 0 36 -5t32 -18q27 -18 57 -18q29 0 52.5 13.5t37.5 35.5q12 20 13 47q0 18 -8.5 37t-28.5 35q-43 37 -85 51t-83 14q-76 0 -143.5 -35.5t-116.5 -66.5q-43 -29 -93.5 -71t-99.5 -93 t-93 -109.5t-75 -119.5q-43 -84 -47 -176zM545 903q0 -18 10 -35q10 -18 24.5 -31.5t38.5 -13.5q8 0 19.5 4t24.5 9q31 14 72.5 35.5t85.5 44t84 44t67 37.5q39 27 39 62q-1 20 -13 43v2q-23 37 -61 37q-25 0 -39 -13q-31 -16 -70 -36.5t-79.5 -41t-80.5 -41t-73 -34.5 q-49 -33 -49 -72z" />
<glyph unicode="&#xe2;" horiz-adv-x="1216" d="M139 72q0 -102 58 -154q23 -16 49 -27.5t59 -11.5q74 0 164 66q25 18 50.5 40.5t53.5 45.5q45 41 85 74.5t67 50.5q6 6 12 6v-2q0 -31 12.5 -69t26.5 -58v2q33 -47 73 -68.5t107 -21.5h25q14 0 29 2q76 8 164 39.5t157 68.5q47 31 47 86q0 27 -20 58v2q-31 31 -68 30 q-20 0 -45 -12q-23 -12 -54.5 -24.5t-65 -23.5t-66.5 -19.5t-58 -12.5h-8q-23 0 -37 10.5t-24 38.5q-6 16 -8 39t-2 52v30q0 53 -27 78t-68 25q-49 0 -102 -33v2q-33 -20 -75 -52t-86 -68t-86 -72.5t-75 -63.5q-6 -4 -12 -9t-12 -12q-18 -16 -35 -16q-4 0 -4 4q-2 0 -2 17 q0 14 3 30.5t9 26.5q20 45 56 93t78 92t85 82t80 63q80 55 135 55q18 0 36 -5t32 -20q29 -16 57 -16q61 0 90 49q12 20 13 47q0 41 -37 72q-43 35 -85 50t-83 15q-76 0 -143.5 -35.5t-116.5 -66.5q-43 -29 -93.5 -71t-99.5 -93t-93 -109.5t-75 -119.5q-43 -84 -47 -176z M520 909q0 -18 10 -39q20 -37 66 -36q10 0 20.5 1t20.5 7q12 10 27.5 18t29.5 19h-2q27 16 54.5 32.5t50.5 32.5q10 -10 22 -20.5t25 -24.5q12 -10 25.5 -24.5t25.5 -24.5q10 -10 23.5 -13t25.5 -3q29 0 52.5 20t23.5 51q0 12 -4.5 26.5t-16.5 26.5h-2q-27 29 -62.5 66 t-64.5 66q-29 25 -57 24q-23 0 -53 -20v2q-23 -10 -45.5 -26.5t-50.5 -33.5q-27 -16 -55.5 -33.5t-55.5 -33.5q-33 -18 -33 -60z" />
<glyph unicode="&#xe3;" horiz-adv-x="1216" d="M139 72q0 -102 58 -154q23 -16 49 -27.5t59 -11.5q74 0 164 66q25 18 50.5 40.5t53.5 45.5q45 41 85 74.5t67 50.5q6 6 12 6v-2q0 -31 12.5 -69t26.5 -58v2q33 -47 73 -68.5t107 -21.5h25q14 0 29 2q76 8 164 39.5t157 68.5q47 31 47 86q0 27 -20 58v2q-31 31 -68 30 q-20 0 -45 -12q-23 -12 -54.5 -24.5t-65 -23.5t-66.5 -19.5t-58 -12.5h-8q-23 0 -37 10.5t-24 38.5q-6 16 -8 39t-2 49v33q0 53 -27 78t-68 25q-43 0 -102 -33v2q-33 -20 -75 -52t-86 -68t-86 -72.5t-75 -63.5q-6 -4 -12 -9t-12 -12q-18 -16 -35 -16q-2 0 -3 1l-1 1 q-2 2 -2 19q0 33 12 57q20 45 56 93t78 92t85 82t80 63q80 55 135 55q18 0 36 -5t32 -20q27 -18 57 -18q29 0 52.5 14.5t37.5 36.5q12 18 13 47q0 16 -8.5 36t-28.5 36q-43 35 -85 50t-83 15q-76 0 -143.5 -35.5t-116.5 -68.5q-43 -29 -93.5 -70t-99.5 -92t-93 -109.5 t-75 -119.5q-43 -84 -47 -176zM467 899q0 -23 12.5 -38t28.5 -21h-2q18 -12 41 -13q39 0 65 39q33 55 62 56q25 0 53 -27q82 -70 164 -70h4q49 0 89 32t58 108h-2q4 10 4 12v8q0 23 -13 42.5t-36 25.5q-8 2 -15 4t-11 2q-20 0 -40 -12.5t-30 -40.5q-10 -25 -16 -25 q-18 0 -68 37q-78 55 -147 55q-51 0 -101.5 -31.5t-85.5 -101.5q-10 -10 -12 -20.5t-2 -20.5z" />
<glyph unicode="&#xe4;" horiz-adv-x="1216" d="M139 72q0 -102 58 -154q23 -16 49 -27.5t59 -11.5q74 0 164 66q25 18 50.5 40.5t53.5 45.5q45 41 85 74.5t67 50.5q6 6 12 6v-2q0 -31 12.5 -69t26.5 -58v2q33 -47 73 -68.5t107 -21.5h25q14 0 29 2q76 8 164 39.5t157 68.5q47 31 47 86q0 27 -20 58v2q-31 31 -68 30 q-20 0 -45 -12q-23 -12 -54.5 -24.5t-65 -23.5t-66.5 -20.5t-58 -11.5h-8q-23 0 -37 10.5t-24 38.5q-6 14 -8 38t-2 50v33q0 53 -27 78t-68 25q-43 0 -102 -33v2q-33 -20 -75 -53t-86 -69t-86 -71.5t-75 -62.5q-6 -4 -12 -9t-12 -12q-18 -16 -35 -16q-4 0 -4 2q-2 2 -2 19 q0 33 12 57q20 45 56 93t78 92t85 82t80 63q80 55 135 55q18 0 36 -5t32 -20q27 -18 57 -18q29 0 52.5 14.5t37.5 36.5q12 18 13 47q0 16 -8.5 36t-28.5 36q-43 35 -85 49t-83 14q-76 0 -143.5 -34.5t-116.5 -67.5q-43 -29 -93.5 -71t-99.5 -92t-93 -108.5t-75 -119.5 q-43 -84 -47 -176zM516 950q0 -49 32 -80.5t81 -31.5q45 0 78.5 33.5t33.5 78.5q0 49 -32.5 83t-81.5 34t-79 -34t-32 -83zM848 950q0 -49 32.5 -80.5t80.5 -31.5q47 2 79.5 32.5t34.5 79.5q0 49 -34.5 83t-79.5 34q-49 0 -81 -34t-32 -83z" />
<glyph unicode="&#xe5;" horiz-adv-x="1216" d="M139 72q0 -102 58 -154q23 -16 49 -27.5t59 -11.5q74 0 164 66q25 18 50.5 41.5t53.5 46.5q45 39 85 72.5t67 52.5q6 6 12 6q0 -33 12.5 -72t26.5 -59v2q33 -47 73 -68.5t107 -21.5h25q14 0 29 2q76 8 164 39.5t157 68.5q47 31 47 86q0 27 -20 58v2q-29 31 -68 30 q-12 0 -22.5 -3t-22.5 -7q-23 -12 -54.5 -25.5t-65 -24.5t-66.5 -19.5t-58 -12.5h-8q-23 0 -37 10.5t-24 38.5q-6 16 -8 39t-2 52v30q0 53 -27 79t-68 26q-45 0 -102 -35v2q-33 -20 -75 -52t-86 -68t-86 -72.5t-75 -63.5q-6 -4 -12 -9t-12 -12q-23 -16 -35 -16q-4 0 -4 4 q-2 2 -2 17q0 14 3 30.5t9 26.5q20 45 56 93t78 93t85 82t80 62q78 57 135 57q18 0 36 -5t32 -20q27 -18 57 -18q29 0 52.5 13.5t37.5 35.5q12 20 13 49q0 16 -8.5 36t-28.5 36q-43 35 -85 50t-83 15q-76 0 -143.5 -35.5t-116.5 -68.5q-43 -29 -93.5 -71t-99.5 -92 t-93 -109.5t-75 -120.5q-43 -84 -47 -176zM565 979q0 -78 58 -145q63 -57 145 -58q82 1 145 58q57 63 58 145q0 84 -58 147q-63 57 -145 58q-82 0 -145 -58q-29 -33 -43.5 -68.5t-14.5 -78.5zM641 979q0 25 8 50.5t29 41.5q37 39 90 39q25 0 48.5 -8t37.5 -25 q25 -20 35 -46.5t10 -51.5q0 -27 -8.5 -50.5t-28.5 -39.5l-4 -2q-16 -18 -40.5 -26.5t-49.5 -8.5q-27 0 -50.5 8t-39.5 29q-20 16 -28.5 40.5t-8.5 49.5z" />
<glyph unicode="&#xe6;" horiz-adv-x="1548" d="M152 41q0 -78 46 -120t115 -42q37 0 77 14.5t81 43.5q154 127 258 227q2 -29 7 -54.5t14 -41.5q27 -68 75.5 -103t128.5 -45q25 -4 51.5 -6t53.5 -2q68 0 133 11t127.5 28.5t118 38t100.5 39.5q20 10 38.5 16t35.5 12l-2 -2q31 10 46 35t15 53q0 29 -14 52 q-10 16 -27.5 28.5t-40.5 12.5q-20 0 -35 -9h2q-18 -6 -41.5 -12t-46.5 -16h2q-92 -33 -203.5 -67t-209.5 -34q-35 0 -65.5 8.5t-48 22.5t-21.5 49q72 8 147.5 39t141 77t114.5 104.5t68 123.5q12 39 12 96q0 47 -17.5 92.5t-62.5 75.5q-25 16 -50.5 22.5t-47.5 6.5 q-41 0 -81 -12t-69 -27q-23 -10 -60.5 -37.5t-66.5 -62.5q-16 23 -39.5 37t-46.5 24q-47 23 -98 23q-72 0 -135.5 -30t-122.5 -68q-104 -72 -183 -188t-130 -230q-14 -31 -24.5 -78t-16.5 -94v2q-2 -6 -2 -15v-18zM346 90v16q10 33 21 60q18 55 50 109.5t65.5 100.5 t67.5 78.5t56 49.5q47 33 83 50t65 17q14 0 30 -6l13 -8q8 -8 20.5 -14.5t26.5 -10.5l-2 -2q-6 -10 -6 -12q-27 -2 -60 -33l-43 -41q-47 -47 -96 -98t-97 -97t-93.5 -86t-84.5 -67l3 2q-16 -8 -19 -8zM969 381q29 53 63.5 102t69.5 82q12 16 24.5 24.5t30.5 18.5 q10 6 27.5 13.5t32.5 7.5h2v-8q0 -14 -4.5 -31t-8.5 -31q-10 -29 -33.5 -54.5t-55.5 -49t-70.5 -43t-77.5 -31.5z" />
<glyph unicode="&#xe7;" horiz-adv-x="1142" d="M145 156q0 -94 74 -152.5t215 -73.5q-4 -16 -6 -35.5t-2 -35.5q0 -78 72 -97h8q0 -2 -2 -2v-2q-16 -16 -70 -32q-55 -16 -55 -70q0 -27 19.5 -48.5t56.5 -21.5h6q59 4 106 34t74 81q18 31 18 76q0 33 -17 61.5t-62 42.5q-10 2 -11 6q0 14 11 41v2q70 6 146.5 20.5t154 36 t153.5 51.5t144 66q29 16 40 39t11 45q0 25 -15 54l-2 2q-29 39 -75 39q-27 0 -50 -15q-29 -16 -88 -42.5t-139 -51t-173 -43t-191 -18.5q-72 0 -106 21.5t-34 55.5q0 23 15 50q18 37 50 74.5t69.5 68.5t76.5 54.5t74 33.5q18 -8 36.5 -9t37.5 -1q27 0 37 2q41 8 64.5 38.5 t23.5 65.5q-2 35 -28 62.5t-81 36.5h2q-6 2 -16 2h-23q-47 0 -63 -4q-145 -53 -260 -145.5t-174 -196.5q-51 -88 -52 -166z" />
<glyph unicode="&#xe8;" horiz-adv-x="933" d="M127 182q0 -115 76 -186q27 -27 63.5 -46.5t83.5 -29.5q47 -8 103 -8q66 0 131 12.5t125.5 29.5t115 37.5t97.5 39.5q23 8 41 14t34 12h-2q33 10 47.5 34t14.5 52q0 27 -8 43v-2q-12 23 -32 38.5t-46 15.5q-10 0 -16.5 -1t-12.5 -4q-20 -4 -46 -15t-54 -21 q-84 -31 -187.5 -64t-197.5 -33q-16 0 -35 1t-35 5q-31 4 -49.5 25t-18.5 51q70 8 145 39t139.5 77t112.5 104.5t66 123.5q12 43 13 101q0 51 -17.5 97t-62.5 73q-41 27 -99 26q-41 0 -79.5 -11t-67.5 -28h2q-37 -16 -81 -57t-91 -100q-47 -63 -95 -155.5t-69 -209.5 q-4 -20 -6 -38.5t-2 -41.5zM369 389q20 53 53 101.5t67 82.5q31 33 56 50h-2q10 4 22.5 8t22.5 4q12 0 16 -4q2 -4 4 -10.5t2 -14.5q0 -12 -6 -37v2q-8 -29 -31.5 -56.5t-56.5 -52t-70.5 -43t-76.5 -30.5zM397 1157q0 -33 31 -55q53 -47 114.5 -94t121.5 -90q16 -16 43 -17 q16 0 31.5 9.5t25.5 21.5q6 10 11 22.5t5 26.5q0 35 -28 55h2q-33 29 -69 56.5t-71 56.5q-25 16 -48 35.5t-46 40.5q-23 14 -43 14q-39 0 -59 -31q-20 -25 -21 -51z" />
<glyph unicode="&#xe9;" horiz-adv-x="933" d="M127 182q0 -115 76 -186q27 -27 63.5 -46.5t83.5 -29.5q47 -8 103 -8q66 0 131 12.5t125.5 29.5t115 37.5t97.5 39.5q23 8 41 14t34 12h-2q33 10 47.5 34t14.5 52q0 27 -8 43v-2q-12 23 -32 38.5t-46 15.5q-10 0 -16.5 -1t-12.5 -4q-20 -4 -46 -15t-54 -21 q-84 -31 -187.5 -64t-197.5 -33q-16 0 -35 1t-35 5q-31 4 -49.5 25t-18.5 51q70 8 145 39t139.5 77t112.5 104.5t66 123.5q12 43 13 101q0 51 -17.5 97t-62.5 73q-41 27 -99 26q-41 0 -79.5 -11t-67.5 -28h2q-37 -16 -81 -57t-91 -100q-47 -63 -95 -155.5t-69 -209.5 q-4 -20 -6 -38.5t-2 -41.5zM369 389q20 53 53 101.5t67 82.5q31 33 56 50h-2q10 4 22.5 8t22.5 4q12 0 16 -4q2 -4 4 -10.5t2 -14.5q0 -12 -6 -37v2q-8 -29 -31.5 -56.5t-56.5 -52t-70.5 -43t-76.5 -30.5zM451 999q0 -18 10 -34q10 -18 23.5 -31.5t39.5 -13.5q8 0 18.5 4 t24.5 8q31 14 72 35.5t84 44t83 45t66 39.5q37 20 37 61q0 8 -2 19.5t-8 21.5v2q-23 37 -61 37q-25 0 -39 -10q-31 -16 -69 -37t-79 -42.5t-81 -42t-70 -34.5q-49 -33 -49 -72z" />
<glyph unicode="&#xea;" horiz-adv-x="933" d="M127 182q0 -115 76 -186q27 -27 63.5 -46.5t83.5 -29.5q47 -8 103 -8q66 0 131 12.5t125.5 29.5t115 37.5t97.5 39.5q23 8 41 14t34 12h-2q33 10 47.5 34t14.5 52q0 27 -8 43v-2q-12 23 -32 38.5t-46 15.5q-10 0 -16.5 -1t-12.5 -4q-20 -6 -46 -16t-54 -20 q-41 -16 -89 -33t-98.5 -32t-100.5 -24.5t-97 -9.5q-39 0 -70 8q-31 4 -49.5 25t-18.5 51q70 8 145 39t139.5 77t112.5 104.5t66 123.5q12 39 13 99q0 51 -17.5 97t-62.5 73q-41 27 -99 26q-41 0 -79.5 -10t-67.5 -27h2q-76 -37 -172 -159q-47 -63 -95 -154.5t-69 -208.5 q-4 -20 -6 -38.5t-2 -41.5zM354 975q0 -23 13 -41q23 -37 65 -37q23 0 39 10q14 10 28.5 17.5t28.5 17.5h-2q27 16 53.5 32.5t49.5 33.5q10 -10 22.5 -19.5t24.5 -23.5l25.5 -25.5t23.5 -24.5q12 -10 25.5 -13t23.5 -3q31 0 53.5 19.5t22.5 52.5q0 10 -4.5 24.5t-16.5 28.5 h-2q-25 29 -60.5 65.5t-64.5 65.5q-25 23 -57 23q-23 0 -53 -19v2q-20 -12 -43 -27.5t-51 -31.5q-27 -16 -54.5 -33.5t-54.5 -34.5q-35 -23 -35 -59zM369 389q20 53 53 101.5t67 82.5q16 16 29.5 27.5t26.5 20.5h-2l22.5 9t22.5 5q12 0 16 -4q2 -4 4 -11.5t2 -15.5 q0 -10 -6 -35v2q-8 -29 -31.5 -57.5t-56.5 -52t-70.5 -43t-76.5 -29.5z" />
<glyph unicode="&#xeb;" horiz-adv-x="933" d="M127 182q0 -115 76 -186q27 -27 63.5 -46.5t83.5 -29.5q47 -8 103 -8q66 0 131 12.5t125.5 29.5t115 37.5t97.5 39.5q23 8 41 14t34 12h-2q33 10 47.5 34t14.5 52q0 27 -8 43v-2q-12 23 -32 38.5t-46 15.5q-10 0 -16.5 -1t-12.5 -4q-20 -6 -46 -16t-54 -20 q-41 -16 -89 -33t-98.5 -32t-100.5 -24.5t-97 -9.5q-39 0 -70 8q-31 4 -49.5 25t-18.5 51q70 8 145 39t139.5 77t112.5 104.5t66 123.5q12 39 13 99q0 51 -17.5 97t-62.5 73q-41 27 -99 26q-41 0 -79.5 -10t-67.5 -27h2q-76 -37 -172 -159q-47 -63 -95 -154.5t-69 -208.5 q-4 -20 -6 -38.5t-2 -41.5zM305 1051q0 -49 32 -81t81 -32q45 0 78.5 34t33.5 79q0 49 -32.5 82.5t-81.5 33.5t-79 -33.5t-32 -82.5zM369 389q20 53 53 101.5t67 82.5q16 16 29.5 27.5t26.5 20.5h-2l22.5 9t22.5 5q12 0 16 -4q2 -4 4 -11.5t2 -15.5q0 -10 -6 -35v2 q-8 -29 -31.5 -57.5t-56.5 -52t-70.5 -43t-76.5 -29.5zM635 1051q0 -49 31.5 -81t81.5 -32q47 2 78.5 33t33.5 80q0 49 -34.5 82.5t-80.5 33.5q-49 0 -79.5 -33.5t-30.5 -82.5z" />
<glyph unicode="&#xec;" horiz-adv-x="718" d="M180 954q0 -16 6.5 -28.5t22.5 -24.5q53 -47 114.5 -94t118.5 -90q18 -16 43 -17q16 0 32 9.5t26 21.5q6 10 11 21.5t5 27.5q0 33 -29 56h2q-33 29 -68.5 55.5t-70.5 54.5q-23 18 -46 36.5t-46 39.5q-10 8 -21.5 11t-21.5 3q-39 0 -59 -30q-18 -23 -19 -52zM195 207 q0 -31 3 -60.5t9 -52.5q27 -92 75 -134t128 -42q47 0 112 16q41 10 91.5 28t101.5 36q57 23 107 38t81 19q47 6 67.5 32.5t20.5 57.5v5q-2 35 -26.5 64.5t-71.5 29.5h-4q-47 0 -119 -25.5t-139 -52.5q-43 -18 -82 -31.5t-68 -17.5q-10 -4 -20 -4h-17q-39 0 -51 43 q-4 16 -5 37.5t-1 48.5v32q4 66 24.5 134.5t43.5 109.5q8 14 8 31q0 25 -17.5 44t-46.5 30q-10 4 -21 6t-22 2q-39 0 -65 -25q-16 -16 -33.5 -46t-28.5 -52q-4 -16 -4 -27q0 -16 8 -24q-12 -41 -21 -86t-13 -92q-2 -16 -3 -33t-1 -39z" />
<glyph unicode="&#xed;" horiz-adv-x="718" d="M184 836q0 -18 11 -35q10 -18 23 -31.5t40 -13.5q6 0 17.5 4t25.5 8q31 14 72 35.5t83 44t82 44t66 38.5q37 27 37 61q0 18 -12 41v2q-18 37 -60 37q-25 0 -39 -10q-31 -16 -68.5 -36.5t-77.5 -42t-80 -41t-71 -36.5q-23 -14 -36 -33.5t-13 -35.5zM195 207q0 -31 3 -60.5 t9 -52.5q27 -92 75 -134t128 -42q47 0 112 16q41 10 91.5 28t101.5 36q55 23 106 38t82 19q47 6 66.5 32.5t19.5 57.5v5q0 37 -24.5 65.5t-71.5 28.5h-4q-47 0 -119 -24.5t-141 -53.5q-41 -16 -80 -30.5t-68 -18.5q-12 -4 -20 -4h-17q-39 0 -51 43q-8 31 -8 86v32 q4 66 25.5 134.5t44.5 109.5q8 14 8 31q0 25 -17.5 44t-46.5 30q-23 8 -43 8q-39 0 -65 -25q-16 -16 -33.5 -46t-28.5 -52q-4 -16 -4 -25q0 -18 8 -26q-12 -41 -21 -86t-13 -92q-2 -14 -3 -32t-1 -40z" />
<glyph unicode="&#xee;" horiz-adv-x="720" d="M147 809q0 -20 13 -39q20 -37 65 -37q23 0 39 8q12 10 27.5 18.5t27.5 18.5h-2q29 16 55.5 32.5t49.5 33.5q10 -10 21.5 -20.5t25.5 -24.5q12 -10 24.5 -24.5t24.5 -24.5q10 -10 23.5 -12.5t25.5 -2.5q29 0 51.5 19.5t22.5 50.5q0 12 -4 26.5t-16 26.5h-3 q-25 29 -60.5 66t-63.5 65q-23 23 -56 23q-27 0 -53 -19v2q-20 -12 -44 -27.5t-50.5 -31.5t-54 -33.5t-54.5 -34.5q-35 -23 -35 -59zM195 207q0 -31 3 -60.5t9 -52.5q27 -92 75 -134t128 -42q49 0 114 16q39 10 90.5 28t102.5 36q55 23 106 38t82 19q47 6 67.5 32.5 t20.5 57.5v5q-2 35 -26.5 64.5t-71.5 29.5h-4q-47 0 -119 -25.5t-141 -52.5q-43 -18 -81 -31.5t-67 -17.5q-12 -4 -22 -4h-17q-23 0 -33 10t-16 33q-8 31 -8 86v32q4 63 24.5 133t43.5 111q8 10 8 31q0 23 -16.5 43t-45.5 31q-12 4 -23 5t-20 1q-18 0 -34.5 -4t-32.5 -19 q-16 -16 -33.5 -46t-26.5 -52q-4 -16 -4 -27q0 -16 6 -24q-12 -41 -21 -86t-13 -92q-2 -16 -3 -33t-1 -39z" />
<glyph unicode="&#xef;" horiz-adv-x="722" d="M106 885q0 -49 32 -81t79 -32q45 0 79 34t34 79q0 47 -33 80.5t-82 33.5q-47 0 -76.5 -33.5t-32.5 -80.5zM197 207q0 -61 10 -113q29 -92 76 -134t129 -42q47 0 112 16q41 10 91.5 28t103.5 36q55 23 106.5 38t81.5 19q47 6 67.5 32.5t20.5 57.5v5q-2 35 -26.5 64.5 t-71.5 29.5h-4q-49 0 -120 -25.5t-140 -52.5q-43 -18 -82 -31.5t-68 -17.5q-12 -4 -20 -4h-17q-39 0 -51 43q-8 31 -8 86v32q4 63 25.5 132t44.5 110q8 14 8 33q0 23 -17.5 43t-46.5 31q-25 6 -43 6q-37 0 -67 -23q-16 -16 -32.5 -46t-27.5 -52q-4 -16 -4 -27q0 -18 9 -24 q-14 -41 -23.5 -86t-11.5 -92q-2 -16 -3 -33t-1 -39zM434 885q0 -49 32 -81t81 -32q45 2 76.5 33t33.5 80q0 47 -34.5 80.5t-77.5 33.5q-49 0 -80 -33.5t-31 -80.5z" />
<glyph unicode="&#xf0;" horiz-adv-x="1226" d="M86 352q2 -80 52 -155.5t122 -135.5q111 -90 247 -136t259 -46q117 0 203 53.5t137 130.5q29 47 43 107.5t14 124.5v39t-2 33l-24 112q-31 127 -92.5 262.5t-141.5 268.5q59 43 109.5 93t79.5 118q26 34 26 69q0 25 -13 45.5t-34 32.5q-16 8 -33 8q-33 0 -73 -41 q-20 -18 -33.5 -46.5t-22.5 -63.5q-23 -25 -45 -45.5t-41 -38.5q-41 59 -81 114.5t-80 108.5q-35 35 -72 35q-29 0 -66 -27q-12 -10 -19 -29.5t-7 -37.5q0 -16 3 -32t13 -26q41 -53 82 -109.5t80 -113.5q-29 -20 -52.5 -34.5t-43.5 -26.5q-25 -14 -43.5 -25.5t-31.5 -27 t-24.5 -37t-21.5 -56.5v2q-4 -12 -4 -20v-15q0 -49 39 -65q23 -14 45 -14q16 0 29.5 9t27.5 31q23 47 63.5 83t88.5 71q49 -82 90 -163t69 -152q-170 53 -334 53q-74 0 -143.5 -9.5t-132.5 -29.5q-211 -61 -211 -242v-4zM289 342q0 23 14 42t57 34q98 29 207 28 q104 0 211 -21.5t197 -62.5q2 -16 3 -29.5t1 -27.5q0 -94 -33 -139v2q-33 -47 -77 -74.5t-111 -27.5q-82 0 -184.5 34.5t-196.5 106.5q-37 29 -62.5 69.5t-25.5 65.5z" />
<glyph unicode="&#xf1;" horiz-adv-x="1357" d="M193 451q0 -39 30 -54v-51q0 -23 1 -50.5t1 -57.5v-215q0 -31 11.5 -54.5t46.5 -40.5q10 -4 23 -6t24 -2q25 0 49 11.5t41 43.5q10 20 30.5 48t46 57t53.5 55.5t52 44.5q29 18 57.5 44t57.5 52v-2q29 23 57.5 46.5t24.5 23.5h-2q39 27 65 27q6 0 10 -2q16 -4 19 -17 q2 -6 2 -12t2 -12v2q6 -43 17.5 -103.5t39.5 -122.5q35 -76 94.5 -111.5t133.5 -35.5q68 0 149 33q41 20 80 34.5t74 28.5h-2q31 8 55 19h16q12 0 23.5 3t26.5 7q29 12 41 35.5t12 50.5v4q-2 41 -23.5 67.5t-66.5 26.5q-20 0 -29 -2q-47 -10 -105.5 -32.5t-113.5 -45.5h2 q-16 -4 -31.5 -11t-32.5 -13q-29 -12 -59 -12q-51 0 -68 40q-16 37 -28.5 95.5t-22.5 134.5q-12 78 -56 114.5t-108 36.5h-12q-49 0 -106.5 -20.5t-100.5 -54.5q-41 -29 -86 -68t-86 -78q-6 -4 -12 -9t-12 -9q-20 -20 -42 -38t-42 -40v98q0 35 -1 68t-3 61q0 4 -1 11.5 t-1 13.5q-4 35 -31 51t-55 18h-11q-51 0 -73 -30q-16 -16 -28.5 -45t-16.5 -49zM403 770q0 -20 12.5 -36.5t28.5 -22.5h-2q18 -12 41 -13q43 0 66 41q35 53 63 54q20 0 54 -27q82 -70 163 -70h5q49 0 89 32t60 108h-2q4 10 4 20q0 51 -51 68q-8 2 -14.5 4t-10.5 2 q-23 0 -42 -12.5t-29 -40.5q-10 -27 -17 -27q-16 0 -67 39q-39 27 -75 41t-73 14q-51 0 -102 -32.5t-86 -100.5q-10 -10 -12.5 -20.5t-2.5 -20.5z" />
<glyph unicode="&#xf2;" horiz-adv-x="1122" d="M182 127q0 -90 33 -150q70 -121 254 -120h10q72 2 133.5 13t120.5 38q68 29 128.5 77t113.5 111q37 43 51 86t14 82q0 29 -6 52.5t-16 41.5q18 2 32.5 3t22.5 6q29 12 40 33t11 44v5q0 35 -27.5 63.5t-70.5 28.5h-156q-29 20 -64.5 37.5t-70.5 21.5q-12 4 -33 4 q-25 0 -43 -6q-25 20 -50 28.5t-50 8.5q-51 0 -90 -23h2q-100 -51 -176 -147t-100 -221q-12 -59 -13 -117zM375 147q0 23 6 60q12 72 53 129t80 84l4 2q2 0 6 2q4 0 6 2q4 -31 41 -49.5t91 -18.5h141q47 -37 47 -88q0 -32 -23 -57q-35 -45 -78.5 -82t-95.5 -57 q-31 -14 -70.5 -22.5t-88.5 -8.5h-17q-63 0 -88 41q-14 16 -14 63zM446 969q0 -16 6.5 -29.5t22.5 -24.5q53 -47 115.5 -94t120.5 -90q18 -16 43 -16q18 0 32.5 9t24.5 21q16 16 16 50q0 14 -6 28.5t-22 26.5h2q-33 29 -69 55.5t-70 55.5q-23 18 -47.5 36.5t-47.5 38.5 q-16 14 -43 15q-39 0 -59 -31q-18 -23 -19 -51z" />
<glyph unicode="&#xf3;" horiz-adv-x="1122" d="M182 127q0 -90 33 -150q70 -121 254 -120h10q72 2 133.5 13t120.5 38q68 29 128.5 77t113.5 111q37 43 51 86t14 82q0 29 -6 52.5t-16 41.5q18 2 32.5 3t22.5 6q29 12 40 33t11 44v5q0 35 -27.5 63.5t-70.5 28.5h-156q-29 20 -64.5 37.5t-70.5 21.5q-12 4 -33 4 q-25 0 -43 -6q-25 20 -50 28.5t-50 8.5q-51 0 -90 -23h2q-100 -51 -176 -147t-100 -221q-12 -59 -13 -117zM375 147q0 23 6 60q12 72 53 129t80 84l4 2q2 0 6 2q4 0 6 2q4 -31 41 -49.5t91 -18.5h141q47 -37 47 -88q0 -32 -23 -57q-35 -45 -78.5 -82t-95.5 -57 q-31 -14 -70.5 -22.5t-88.5 -8.5h-17q-63 0 -88 41q-14 16 -14 63zM535 811q0 -16 10 -33q16 -45 61 -45q8 0 19.5 4t23.5 8q31 14 72 36t84 44.5t83 44t68 37.5q37 27 37 62q0 18 -12 41v2q-18 37 -59 37q-10 0 -21.5 -2.5t-21.5 -10.5l2 2q-31 -16 -69 -36.5t-78 -42 t-80 -41t-70 -35.5q-25 -14 -37 -34t-12 -38z" />
<glyph unicode="&#xf4;" horiz-adv-x="1122" d="M182 127q0 -90 33 -150q70 -121 254 -120h10q72 2 133.5 13t120.5 38q68 29 128.5 77t113.5 111q37 43 51 86t14 80q0 29 -6 53.5t-16 42.5q18 2 32.5 3t22.5 6q29 10 40 32.5t11 42.5v4q0 35 -27.5 65t-70.5 30h-156q-29 20 -64.5 37.5t-70.5 21.5q-4 2 -14 2h-19h-22 t-21 -4q-49 37 -100 37q-47 0 -90 -25h2q-100 -49 -176 -145t-100 -221q-12 -61 -13 -117zM375 145q0 25 6 60q12 72 53 129t80 86l4 2q2 0 6 2q4 0 6 2q4 -33 41 -50.5t91 -17.5h141q47 -37 47 -88q0 -32 -23 -57q-35 -45 -78.5 -82t-95.5 -57q-31 -14 -70.5 -22.5 t-88.5 -8.5h-17q-63 0 -88 41q-14 16 -14 61zM432 799q0 -20 12 -39q18 -39 64 -39q27 0 39 10q14 10 29.5 18.5t27.5 18.5h-2q29 16 55.5 32.5t49.5 30.5q10 -8 21 -18t26 -25q12 -10 24.5 -24t24.5 -24.5t24.5 -13.5t24.5 -3q29 0 51.5 20.5t22.5 51.5q0 12 -4.5 26.5 t-14.5 26.5h-2q-25 29 -60.5 65.5t-64.5 65.5q-29 25 -57 25q-23 0 -53 -21v2q-23 -12 -45.5 -27.5t-49 -32t-55 -34t-55.5 -33.5q-33 -25 -33 -59z" />
<glyph unicode="&#xf5;" horiz-adv-x="1122" d="M182 127q0 -90 33 -150q68 -119 254 -118h10q72 0 133.5 11t120.5 38q68 29 128.5 77t113.5 111q37 43 51 86t14 80q0 29 -6 53.5t-16 42.5q18 2 32.5 3t22.5 6q29 10 40 32.5t11 42.5v4q0 35 -27.5 64t-70.5 29h-156q-29 23 -64.5 39t-70.5 20q-12 4 -33 4q-25 0 -43 -6 q-47 39 -100 39q-47 0 -90 -25h2q-100 -51 -176 -146t-100 -220q-12 -61 -13 -117zM375 145q0 25 6 60q12 72 53 129t80 86l4 2q2 0 6 2h6q4 -31 41 -48.5t91 -17.5h141q47 -37 47 -88q0 -32 -23 -57q-35 -45 -78.5 -82t-95.5 -57q-31 -14 -70.5 -22.5t-88.5 -8.5h-17 q-63 0 -88 41q-14 16 -14 61zM393 815q0 -23 11.5 -38t27.5 -21h-2q18 -12 41 -13q39 0 66 39q16 29 31.5 41.5t27.5 12.5q23 0 53 -25q78 -70 162 -70h4q47 0 87.5 31t60.5 107h-2q4 10 4 14v8q0 23 -13.5 41.5t-36.5 26.5q-8 2 -15 4t-11 2q-20 0 -40 -12.5t-30 -40.5 q-10 -27 -16 -27q-14 0 -68 39q-78 55 -143 55q-51 0 -101.5 -32.5t-84.5 -100.5q-8 -10 -10.5 -20.5t-2.5 -20.5z" />
<glyph unicode="&#xf6;" horiz-adv-x="1122" d="M182 127q0 -90 33 -150q68 -119 254 -118h10q72 2 133.5 12t120.5 37q68 29 128.5 77t113.5 111q37 43 51 86t14 80q0 29 -6 53.5t-16 42.5q18 2 32.5 3t22.5 4q29 12 40 34.5t11 42.5v4q0 35 -27.5 64t-70.5 29h-156q-29 23 -64.5 39t-70.5 20q-12 4 -33 4q-25 0 -43 -6 q-47 39 -100 39q-47 0 -90 -25h2q-100 -51 -176 -146t-100 -220q-12 -61 -13 -117zM375 145q0 25 6 60q12 72 53 129t80 84l4 2q2 0 6 2q4 0 6 2q4 -31 41 -48.5t91 -17.5h141q47 -37 47 -88q0 -32 -23 -57q-35 -45 -78.5 -82t-95.5 -57q-31 -14 -70.5 -22.5t-88.5 -8.5h-17 q-63 0 -88 41q-14 16 -14 61zM416 854q0 -49 31.5 -81t80.5 -32q45 0 78 34t33 79q0 49 -32 83t-81 34t-78.5 -34t-31.5 -83zM745 854q0 -49 32 -81t81 -32q47 2 79 33t34 80q0 49 -35 83t-80 34q-49 0 -80 -34t-31 -83z" />
<glyph unicode="&#xf7;" horiz-adv-x="765" d="M80 504q0 -35 31 -62v2q10 -10 23 -14t26 -4q20 0 37 8h-2q4 2 8 5t8 7q10 10 22 11q6 2 19 2h29h55q31 0 65.5 -2t71.5 -2h72q33 0 60.5 1t49.5 3q35 6 51.5 28t16.5 45v5q0 29 -18.5 50t-49.5 21h-12q-12 -2 -29 -2h-30q-31 0 -66 1t-74 3q-45 2 -89 4t-83 2 q-35 0 -60.5 -2t-41.5 -6h2q-35 -8 -58.5 -30.5t-31.5 -57.5q0 -4 -1 -8t-1 -8zM281 299q0 -45 32 -84q37 -37 86 -37q18 0 38 5.5t36 19.5q23 14 36 39.5t13 54.5t-13 53.5t-36 42.5q-33 27 -72 27t-71 -27q-27 -16 -38 -41.5t-11 -52.5zM289 805q0 -47 33 -84 q31 -37 84 -37q45 0 75 23l-2 -2q27 16 39 42.5t12 55.5t-12 54.5t-35 43.5q-29 23 -73 23q-43 0 -72 -23q-25 -16 -37 -41.5t-12 -54.5z" />
<glyph unicode="&#xf8;" horiz-adv-x="1122" d="M166 127q0 -92 35 -150q10 -12 18 -25t23 -24q-29 -49 -46.5 -92t-21.5 -78v-14q0 -63 59 -76l-2 2q8 -4 17.5 -5t15.5 -1q23 0 36 11.5t24 43.5q6 31 25.5 67t45.5 75q14 -2 31.5 -3t36.5 -1q72 2 133 13t121 38q68 29 128 77t116 111q37 43 50 86t13 82q0 53 -20 94 q16 2 30.5 3t24.5 6q27 12 39 33.5t12 43.5v5q0 35 -28.5 63.5t-69.5 28.5h-127q39 63 63.5 114.5t28.5 92.5q2 10 2 18v20q0 37 -10.5 62.5t-38.5 30.5l2 -2q-10 4 -25 4q-25 0 -44 -12.5t-36 -47.5q-16 -23 -21 -51.5t-5 -64.5q-14 -16 -23.5 -32t-15.5 -28h2 q-18 -25 -31 -49l-12 4q-16 4 -35 4q-25 0 -43 -6q-47 39 -98 39q-49 0 -92 -25h2q-100 -51 -175 -147t-102 -221q-12 -59 -12 -117zM358 121v26q0 23 7 60q12 72 54 129t79 84l4 2q2 0 6 2l1 1t3 1q2 -18 17.5 -31.5t37.5 -23.5q-29 -41 -56.5 -78t-55.5 -72 q-25 -31 -47.5 -61.5t-45.5 -59.5q-4 10 -4 21zM373 80h2q0 -2 1 -3t1 -5zM526 45q8 10 16.5 22.5t18.5 24.5q51 63 101.5 131t97.5 133h10q4 0 8 1t8 1q47 -35 48 -86q-1 -32 -21 -59q-35 -45 -80 -82t-94 -57q-25 -10 -52.5 -17.5t-60.5 -11.5z" />
<glyph unicode="&#xf9;" horiz-adv-x="1349" d="M190 240q0 -43 5.5 -87t19.5 -79q47 -131 174 -160h-2q31 -8 76 -8q119 0 244 82q45 29 93 72.5t87 91.5q8 -53 37 -95q33 -51 91 -74.5t122 -23.5q12 0 24.5 1t24.5 3q78 12 147.5 37t116.5 53q27 16 37 38t10 44q0 25 -10 45q-18 51 -74 51q-25 0 -51 -14 q-39 -23 -91 -42t-108 -25q-6 0 -10 -1.5t-8 -1.5q-25 0 -44.5 10.5t-29.5 39.5v-2q-6 20 -10 44.5t-4 55.5q0 37 6 79t16 89v-2q2 10 2 14v8q0 31 -21.5 53.5t-49.5 28.5l2 -2q-10 4 -17 4h-10q-29 0 -52.5 -12t-37.5 -45q-33 -92 -105.5 -191.5t-189.5 -181.5 q-33 -23 -64.5 -34t-58.5 -11q-18 0 -35 4q-37 12 -49 54q-12 39 -12 96q0 66 12.5 139.5t32.5 132.5l-2 -2q4 12 4 19v16q0 37 -25.5 57.5t-58.5 20.5q-31 0 -59.5 -16.5t-44.5 -55.5q-16 -47 -33 -136t-17 -181zM469 881q0 -31 29 -54q55 -45 117.5 -92t121.5 -90 q18 -16 43 -16q18 0 33 9t25 21q18 18 18 50q0 33 -31 55h2q-33 29 -68.5 55.5t-72.5 54.5q-23 16 -47.5 36t-46.5 38q-20 16 -43 17q-20 0 -35.5 -9.5t-24.5 -23.5q-20 -20 -20 -51z" />
<glyph unicode="&#xfa;" horiz-adv-x="1349" d="M190 242q0 -45 5.5 -89t19.5 -79q47 -131 174 -160h-2q31 -8 76 -8q119 0 244 82q45 31 93 73.5t87 90.5q8 -53 37 -95q33 -51 91 -74.5t122 -23.5q12 0 24.5 1t24.5 3q78 12 147.5 37t116.5 53q27 16 37 39t10 45q0 23 -10 43q-18 51 -74 51q-25 0 -51 -14 q-39 -23 -91 -42t-108 -25q-6 0 -10 -1.5t-8 -1.5q-25 0 -44.5 10.5t-29.5 39.5q-6 18 -10 42.5t-4 57.5q0 68 22 168v-2q2 10 2 12v8q0 33 -21.5 54.5t-49.5 29.5l2 -2q-10 4 -17 4h-10q-29 0 -52.5 -13t-37.5 -44q-33 -92 -105.5 -191.5t-189.5 -181.5q-33 -25 -64.5 -36 t-58.5 -11q-18 0 -35 4q-37 12 -49 54q-12 39 -12 98q0 63 12.5 137t32.5 135l-2 -2q4 10 4 17v16q0 37 -25.5 58.5t-58.5 21.5q-31 0 -59.5 -17.5t-44.5 -56.5q-16 -47 -33 -135t-17 -180zM492 786q0 -18 10 -32q10 -20 24.5 -33.5t38.5 -13.5q8 0 19.5 4t25.5 8 q31 14 72 35.5t85 44t84 44t69 38.5q37 25 36 61q0 21 -10 41v2q-23 39 -63 39q-10 0 -19.5 -2t-19.5 -10q-31 -16 -70 -37t-80 -41.5t-81 -41t-70 -34.5q-51 -33 -51 -72z" />
<glyph unicode="&#xfb;" horiz-adv-x="1349" d="M190 242q0 -45 5.5 -89t19.5 -79q47 -131 174 -160h-2q31 -8 76 -8q119 0 244 82q45 29 93 72.5t87 91.5q8 -53 37 -95q33 -51 91 -74.5t122 -23.5q12 0 24.5 1t24.5 3q78 12 147.5 37t116.5 53q27 16 37 38t10 44q0 25 -10 45q-18 51 -74 51q-25 0 -51 -14 q-39 -23 -91 -42t-108 -25q-6 0 -10 -1.5t-8 -1.5q-25 0 -44.5 10.5t-29.5 39.5v-2q-6 20 -10 44.5t-4 57.5q0 70 22 166v-2q2 10 2 14v8q0 31 -21.5 53.5t-49.5 30.5l2 -2q-10 2 -17 2h-10q-29 0 -52.5 -12t-37.5 -43q-33 -92 -105.5 -192.5t-189.5 -182.5 q-33 -23 -64.5 -34t-58.5 -11q-18 0 -35 4q-37 12 -49 54q-12 39 -12 96q0 66 12.5 139.5t32.5 132.5l-2 -2q4 12 4 19v16q0 37 -25.5 57.5t-58.5 20.5q-31 0 -59.5 -16.5t-44.5 -55.5q-8 -25 -16.5 -59.5t-15.5 -76.5t-12.5 -88t-5.5 -91zM467 780q0 -23 12 -41 q20 -37 66 -37q23 0 39 11q14 10 28.5 17t28.5 18h-2q29 16 56.5 32.5t49.5 32.5q10 -10 21.5 -20.5t26.5 -22.5q12 -12 24 -25.5t24.5 -23.5t26 -13t23.5 -3q31 0 53.5 19t22.5 52q0 10 -4.5 24.5t-14.5 28.5h-2q-27 29 -62.5 65t-66.5 64q-25 25 -57 25q-12 0 -24.5 -5 t-28.5 -15v2q-20 -12 -44 -27.5t-51 -32.5q-29 -16 -56.5 -33.5t-55.5 -33.5q-33 -20 -33 -58z" />
<glyph unicode="&#xfc;" horiz-adv-x="1349" d="M190 240q0 -43 5.5 -87t19.5 -79q47 -131 174 -160h-2q31 -8 76 -8q119 0 244 82q45 29 93 72.5t87 91.5q8 -53 37 -95q33 -51 91 -74.5t122 -23.5q12 0 24.5 1t24.5 3q78 12 147.5 37t116.5 53q27 16 37 38t10 44q0 25 -10 45q-18 51 -74 51q-25 0 -51 -14 q-39 -23 -91 -42t-108 -25q-6 0 -10 -1.5t-8 -1.5q-25 0 -44.5 10.5t-29.5 39.5v-2q-6 20 -10 44.5t-4 55.5q0 68 22 168v-2q2 10 2 14v8q0 31 -21.5 52.5t-49.5 29.5l2 -2q-10 4 -17 4h-10q-29 0 -52.5 -13t-37.5 -44q-33 -92 -105.5 -191.5t-189.5 -181.5 q-33 -23 -64.5 -34t-58.5 -11q-18 0 -35 4q-37 12 -49 54q-12 39 -12 96q0 66 12.5 139.5t32.5 132.5l-2 -2q4 12 4 19v14q0 37 -25.5 58.5t-58.5 21.5q-31 0 -59.5 -17.5t-44.5 -56.5q-16 -47 -33 -135t-17 -180zM422 823q0 -49 31.5 -80.5t81.5 -31.5q45 0 78.5 33.5 t33.5 78.5q0 49 -32.5 83t-82.5 34q-49 0 -78.5 -34t-31.5 -83zM754 823q0 -49 32.5 -80.5t81.5 -31.5q47 2 79 32.5t34 79.5q0 49 -35 83t-80 34q-49 0 -80.5 -34t-31.5 -83z" />
<glyph unicode="&#xfd;" horiz-adv-x="1273" d="M147 182q2 -72 27 -112.5t53 -65.5q59 -47 127 -47q47 0 96.5 18.5t98.5 51.5q45 29 99 71.5t107.5 87.5t102.5 88t82 74q10 14 27 14q4 0 4 -8v-8q-2 -92 -9.5 -205.5t-18.5 -233.5t-28.5 -235.5t-42.5 -210.5q-2 -8 -3 -14t-1 -16q0 -37 22.5 -60.5t53.5 -27.5 q10 -2 21 -2q33 0 59.5 20.5t34.5 63.5q25 115 45 246.5t33.5 264t21.5 253t8 212.5q0 39 -1 69.5t-3 53.5q-6 47 -28.5 74t-51.5 41q-23 8 -45 8q-59 0 -94 -41q-53 -51 -115.5 -109.5t-127 -114.5t-128 -107.5t-120.5 -88.5q-43 -31 -72 -30q-10 0 -19 8q-6 6 -12 16 t-6 27q0 27 11.5 60.5t27.5 68.5t35.5 66.5t36.5 54.5q29 39 28 67q0 27 -14 45.5t-37 32.5q-16 10 -47 10q-47 0 -82 -43v2q-23 -27 -50.5 -72.5t-51 -99t-39 -111t-15.5 -106.5zM530 848q0 -10 2.5 -17.5t6.5 -15.5q10 -20 24.5 -33.5t38.5 -13.5q8 0 19.5 4t23.5 8 q31 14 73 36t85 45.5t83 45t66 37.5q39 27 39 64q0 18 -12 41v2q-23 39 -61 39q-25 0 -39 -13q-31 -16 -70 -36.5t-79 -42t-80 -42t-70 -36.5q-25 -14 -37.5 -34t-12.5 -38z" />
<glyph unicode="&#xfe;" horiz-adv-x="1056" d="M178 317q0 -96 7.5 -203.5t19.5 -210t25.5 -192.5t25.5 -153q6 -33 13 -59.5t26 -51.5q31 -45 84 -45h8q35 0 59.5 20.5t24.5 55.5v12q-2 18 -10 36.5t-15 33.5q-4 10 -5 12t-1 6l2 -4l-47 342v-2q0 -2 -1 8t-3 23q29 -35 64 -35q25 0 53 18h-2q88 57 172 115.5 t153 136.5q43 51 80 106.5t62 106.5v-2q55 100 55 195q0 78 -43 131q-29 29 -71 47t-101 18h-33q-14 0 -30 -4h2q-78 -10 -157 -36.5t-134 -57.5q-20 -12 -41 -25.5t-41 -29.5q6 80 14 160.5t17.5 156.5t19.5 143.5t19 120.5l-3 -2q0 2 9 19q6 14 14 32.5t10 36.5v13 q0 35 -24.5 55t-59.5 20h-8q-57 0 -84 -43q-20 -27 -26.5 -53t-12.5 -59q-12 -61 -25.5 -149.5t-24.5 -187.5t-18.5 -204.5t-7.5 -200.5q-4 -35 -7 -78.5t-3 -91.5zM375 264v47t4 37l-2 -2q2 4 5 9t9 16q2 4 5 12t5 10q14 31 42 55.5t61 45.5q66 41 134.5 63.5t115.5 28.5 q10 2 16 2h12q31 0 41 -15q8 -10 8 -24q0 -12 -7 -29.5t-17 -40.5q-14 -35 -44 -81t-65 -85q-53 -66 -126.5 -118t-165.5 -111q-6 -6 -12.5 -12t-10.5 -15q-4 51 -6 105.5t-2 101.5z" />
<glyph unicode="&#xff;" horiz-adv-x="1273" d="M147 182q2 -72 27 -112.5t53 -65.5q31 -25 61.5 -35t65.5 -10q92 0 195 68q45 29 99 71.5t107.5 87.5t102.5 88t82 74q10 14 27 14q4 0 4 -8v-8q-2 -92 -9.5 -205.5t-18.5 -233.5t-28.5 -234.5t-42.5 -209.5q-2 -8 -3 -14t-1 -16q0 -37 22.5 -60.5t53.5 -29.5v2 q10 -4 21 -4q33 0 59.5 21.5t34.5 62.5q25 115 45 246.5t33.5 264t21.5 253t8 212.5q0 37 -1 68.5t-3 54.5q-6 47 -28.5 73t-51.5 40q-23 8 -45 8q-57 0 -94 -39q-53 -53 -115.5 -111.5t-127 -114.5t-128 -106.5t-120.5 -87.5q-43 -31 -72 -30q-10 0 -19 8q-6 6 -12 15 t-6 26q0 27 11.5 61.5t27.5 69.5t35.5 65.5t36.5 53.5q29 39 28 69q0 25 -14 44.5t-37 33.5q-16 8 -47 8q-23 0 -43 -9t-39 -32v2q-23 -27 -50.5 -72.5t-51 -99t-39 -111t-15.5 -106.5zM444 844q0 -51 32 -83t81 -32q45 0 79 34t34 81q0 49 -33 83t-82 34t-79 -34t-32 -83z M776 844q0 -51 32 -83t81 -32q45 2 76.5 33t33.5 82q0 49 -34.5 83t-77.5 34q-49 0 -80 -34t-31 -83z" />
<glyph unicode="&#x152;" horiz-adv-x="2185" d="M168 281q0 -96 24.5 -172t90.5 -134q59 -47 137 -69.5t174 -22.5q180 0 387 74q66 27 135.5 69t128.5 93q0 -29 3 -59.5t9 -53.5q25 -94 79.5 -126t148.5 -32q43 0 99 5.5t115.5 15.5t120 24.5t111.5 32.5q39 14 79 31.5t73 37t57.5 41t34.5 44.5q14 31 14 61 q0 43 -22 66q-41 29 -70 29q-35 0 -72 -37q-31 -39 -71.5 -60.5t-87.5 -36.5q-61 -20 -113.5 -33.5t-97.5 -20.5t-86 -10t-82 -3q-39 0 -41 20q-6 27 -8 71t-2 97q0 61 2 124t6 112q88 16 195.5 32.5t205.5 30.5q72 10 131.5 20.5t98.5 16.5q41 8 62.5 36t21.5 60v11 q0 6 -5 16h3q-8 29 -29 46t-57 17h-17q-41 -6 -85 -12t-91 -12h2q-104 -16 -212.5 -33.5t-205.5 -34.5q12 102 28.5 192.5t39.5 151.5q4 10 10 11.5t16 3.5q111 14 234 20t219 6h62q29 0 51 -2h6q51 0 74.5 30t23.5 67v2q-2 35 -24.5 59.5t-69.5 26.5q-16 0 -33.5 1t-40.5 1 q-78 0 -177 -4.5t-202.5 -10.5t-202 -16t-173.5 -23q-35 -6 -53.5 -28.5t-24.5 -53.5v-18q0 -35 18.5 -60.5t52.5 -25.5q4 0 7.5 1t7.5 1q-20 -8 -8 -5l28 7q-10 -47 -22.5 -101.5t-20.5 -111.5q-84 78 -190 131q-78 35 -129 47.5t-103 12.5q-23 0 -46 -1t-48 -3 q-14 37 -49 57q-20 10 -36.5 16t-29.5 6q-4 0 -11 -1t-11 -1q-29 -8 -46.5 -26.5t-25.5 -42.5q-84 -55 -155.5 -141.5t-125 -181.5t-84 -191.5t-30.5 -173.5zM360 281q0 45 21.5 112.5t57.5 139t84 139t104 114.5q41 -20 94 -20q18 0 27 2h-3q29 4 55.5 7t49.5 3 q39 0 76 -10t90 -35q47 -23 90 -52.5t77 -63t54 -69.5t20 -71q0 -23 -12 -55.5t-37 -65.5q-51 -72 -132 -133t-163 -94q-76 -29 -160.5 -46t-160.5 -17q-59 0 -103.5 11t-68.5 34q-59 55 -60 170z" />
<glyph unicode="&#x153;" horiz-adv-x="1685" d="M172 113q0 -139 77 -198.5t212 -59.5h18q72 2 129.5 14t126.5 41q53 23 93 49.5t75 60.5q29 -45 75 -68.5t101 -33.5q23 -4 49.5 -6t53.5 -2q68 0 133 11t126.5 28.5t117 38t100.5 39.5q23 10 42 17t36 13q35 10 50 33t15 49q0 24 -16 51l2 -2q-27 43 -78 43h-10t-17 -4 q-16 -6 -38.5 -12t-47.5 -16q-86 -33 -194.5 -67t-212.5 -34q-39 0 -74 8q-66 14 -69 74q72 10 144.5 40t137 74t113.5 99.5t76 118.5q14 33 20 65.5t6 61.5q0 53 -20.5 94t-65.5 62q-37 18 -92 18q-76 0 -164 -35q-78 -39 -117 -84h2q-25 -27 -66.5 -80t-78.5 -122 q-35 35 -78 59t-102 35q-25 4 -44.5 5t-43.5 1q-47 39 -109 39q-53 0 -98 -25q-43 -23 -86 -56.5t-82 -79.5t-67.5 -103.5t-43.5 -124.5q-16 -76 -16 -129zM371 117q0 31 6 90q10 70 56 129t89 88q12 -37 70 -57h-2q31 -12 78 -13q31 0 61.5 5.5t50.5 17.5q31 -16 55.5 -49 t24.5 -62v-10l-2 -2q-4 -20 -28.5 -48t-56.5 -55.5t-64.5 -50t-53.5 -28.5q-74 -29 -178 -29q-59 8 -82.5 20.5t-23.5 53.5zM1100 381q25 51 56.5 94t78.5 88l14 15q10 12 19.5 20t29.5 16q10 6 24.5 11.5t25.5 5.5h4l2 -2q4 -4 4 -15q0 -12 -6 -30.5t-13 -30.5 q-29 -55 -95 -101t-144 -71z" />
<glyph unicode="&#x178;" horiz-adv-x="1056" d="M102 1055q0 -14 7 -23h-3q12 -39 35 -98.5t53.5 -130t68.5 -150.5t77 -160.5t80 -158.5t80 -146q-47 -82 -96.5 -168t-96.5 -159v2q-20 -29 -20 -58q0 -23 12 -39t31 -30q10 -10 24.5 -14.5t30.5 -4.5t36.5 8.5t39.5 30.5q18 25 44.5 69t55.5 93t55.5 94t42.5 74 q27 10 44.5 32.5t17.5 53.5q0 12 -2 23q49 88 96 171t97.5 166.5t105.5 173t121 189.5q41 61 87 121.5t93 113.5q16 18 21.5 34t5.5 32q0 35 -30 62.5t-69 27.5q-41 0 -76 -33q-47 -57 -95 -120.5t-95 -135.5q-92 -135 -173 -272t-142 -242q-16 -29 -29.5 -53t-28.5 -47 q-47 86 -96 185.5t-93 194.5t-80 179t-56 139q-10 31 -32 45.5t-46 14.5q-37 0 -70 -25.5t-33 -60.5zM385 1393q0 -49 32 -81t81 -32q45 0 78.5 34t33.5 79q0 51 -32.5 84.5t-81.5 33.5t-79 -33.5t-32 -84.5zM717 1393q0 -49 32.5 -81t81.5 -32q47 2 79 33t34 80 q0 51 -35 84.5t-80 33.5q-49 0 -80.5 -33.5t-31.5 -84.5z" />
<glyph unicode="&#x2c6;" horiz-adv-x="653" d="M86 1210q0 -20 12 -34q18 -35 62 -35q23 0 39 10q12 8 26.5 15.5t26.5 15.5q25 16 51.5 30.5t46.5 28.5q10 -10 21.5 -19.5t24 -19.5t24.5 -22.5t22 -22.5q12 -10 24.5 -12t25.5 -2q29 0 50 17.5t21 45.5q0 10 -4 23.5t-16 23.5h-2q-23 27 -57.5 60t-63.5 57 q-27 23 -53 23q-14 0 -25.5 -5.5t-26.5 -13.5v2q-20 -10 -42.5 -24.5t-47.5 -28.5q-27 -14 -53.5 -29.5t-52.5 -29.5q-33 -20 -33 -54z" />
<glyph unicode="&#x2dc;" horiz-adv-x="718" d="M115 1200q0 -18 11 -32.5t28 -20.5h-2q16 -10 38 -10q39 0 64 34q31 47 59 48q18 0 52 -23q76 -61 155 -61h4q47 0 86.5 27t57.5 93h-2q4 10 4 21q0 18 -12.5 34.5t-34.5 22.5q-8 2 -14.5 4t-10.5 2q-20 0 -39.5 -11t-30.5 -36q-10 -23 -14 -22q-14 0 -65 33 q-35 23 -71 36t-71 13q-49 0 -98 -29t-84 -90q-8 -10 -9 -18.5t-1 -14.5z" />
<glyph unicode="&#x2000;" horiz-adv-x="896" />
<glyph unicode="&#x2001;" horiz-adv-x="1792" />
<glyph unicode="&#x2002;" horiz-adv-x="896" />
<glyph unicode="&#x2003;" horiz-adv-x="1792" />
<glyph unicode="&#x2004;" horiz-adv-x="597" />
<glyph unicode="&#x2005;" horiz-adv-x="448" />
<glyph unicode="&#x2006;" horiz-adv-x="298" />
<glyph unicode="&#x2007;" horiz-adv-x="298" />
<glyph unicode="&#x2008;" horiz-adv-x="224" />
<glyph unicode="&#x2009;" horiz-adv-x="358" />
<glyph unicode="&#x200a;" horiz-adv-x="99" />
<glyph unicode="&#x2010;" horiz-adv-x="966" d="M260 301q0 -29 29 -53v2q23 -16 49 -17q23 0 37 9h-2q4 2 9 4t9 6q12 8 21 8q10 2 26 2h39h115q33 0 66.5 -1t64.5 -1q33 0 61.5 1t49.5 1q35 6 51 25t16 39v2q0 25 -17.5 43t-49.5 18h-13q-12 -2 -28 -2h-37q-31 0 -69 1t-77 3q-41 2 -84 2h-77q-35 0 -59.5 -1t-41.5 -5 h2q-72 -12 -88 -74q0 -2 -1 -6t-1 -6z" />
<glyph unicode="&#x2011;" horiz-adv-x="966" d="M260 301q0 -29 29 -53v2q23 -16 49 -17q23 0 37 9h-2q4 2 9 4t9 6q12 8 21 8q10 2 26 2h39h115q33 0 66.5 -1t64.5 -1q33 0 61.5 1t49.5 1q35 6 51 25t16 39v2q0 25 -17.5 43t-49.5 18h-13q-12 -2 -28 -2h-37q-31 0 -69 1t-77 3q-41 2 -84 2h-77q-35 0 -59.5 -1t-41.5 -5 h2q-72 -12 -88 -74q0 -2 -1 -6t-1 -6z" />
<glyph unicode="&#x2012;" horiz-adv-x="966" d="M260 301q0 -29 29 -53v2q23 -16 49 -17q23 0 37 9h-2q4 2 9 4t9 6q12 8 21 8q10 2 26 2h39h115q33 0 66.5 -1t64.5 -1q33 0 61.5 1t49.5 1q35 6 51 25t16 39v2q0 25 -17.5 43t-49.5 18h-13q-12 -2 -28 -2h-37q-31 0 -69 1t-77 3q-41 2 -84 2h-77q-35 0 -59.5 -1t-41.5 -5 h2q-72 -12 -88 -74q0 -2 -1 -6t-1 -6z" />
<glyph unicode="&#x2013;" horiz-adv-x="966" d="M260 301q0 -29 29 -53v2q23 -16 49 -17q23 0 37 9h-2q4 2 9 4t9 6q12 8 21 8q10 2 49 2h53q31 0 65.5 -2t71.5 -2h72q33 0 61.5 1t49.5 3q35 4 51 23t16 39v4q0 23 -17.5 41t-49.5 18h-13q-10 -2 -26 -2h-33q-29 0 -64.5 1t-72.5 3q-47 2 -91.5 3t-82.5 1q-35 0 -60.5 -1 t-42.5 -5h2q-72 -12 -88 -74q0 -2 -1 -6t-1 -6z" />
<glyph unicode="&#x2014;" horiz-adv-x="1464" d="M266 315q0 -23 20.5 -41t55.5 -22h18q12 0 24.5 1t27.5 5h114q68 0 148 -2q104 -2 217 -2h211h162q72 0 108 4q37 2 54.5 21.5t17.5 42.5t-18.5 43t-51.5 20h-10q-23 -2 -51 -2h-68h-170h-248q-125 0 -223 2q-49 0 -84 1t-57 1q-14 12 -47 12q-20 0 -45 -5t-47 -11 q-57 -25 -58 -68z" />
<glyph unicode="&#x2018;" horiz-adv-x="227" d="M119 1081q0 -55 14 -111.5t35 -88.5q23 -35 55 -35q10 0 19.5 4t19.5 8q12 10 21.5 25.5t9.5 34.5q0 24 -12 38v-2q-12 23 -19.5 54.5t-7.5 60.5v10q10 12 16 25.5t6 40.5q0 29 -14 47t-33 29q-12 6 -28 6q-37 0 -64 -43q-10 -18 -14 -46t-4 -57z" />
<glyph unicode="&#x2019;" horiz-adv-x="227" d="M123 1145q0 -4 1 -8t1 -9q6 -33 33 -59q2 -6 2 -16v-23q0 -51 -10 -86q-8 -14 -9 -31q0 -31 21.5 -50t48.5 -19q16 0 33.5 11t27.5 36v2q10 29 16.5 63.5t6.5 73.5q0 45 -10.5 89t-30.5 77q-23 31 -55 31q-27 0 -41 -15q-14 -10 -24.5 -28.5t-10.5 -38.5z" />
<glyph unicode="&#x201a;" horiz-adv-x="239" d="M63 129q0 -23 11 -37v-63q0 -29 -1 -57.5t-1 -55.5q0 -37 19.5 -54.5t41.5 -17.5q27 0 45.5 18.5t18.5 53.5v53q0 18 1 39t1 41v123q-2 37 -18.5 52.5t-35.5 19.5q-47 0 -67 -54q-14 -33 -15 -61z" />
<glyph unicode="&#x201c;" horiz-adv-x="495" d="M92 1083q0 -55 17.5 -111.5t40 -91t63.5 -34.5q18 0 35 10q18 10 30.5 25.5t12.5 33.5q0 10 -2 20.5t-10 20.5v-2q-14 23 -23.5 54.5t-9.5 60.5v10q14 12 20 25.5t6 40.5q0 29 -15 47t-38 29q-6 4 -15 5t-16 1q-43 0 -73 -43q-12 -18 -17.5 -45t-5.5 -56zM391 1081 q0 -55 17.5 -111.5t40.5 -90.5q25 -35 63 -35q18 0 35 10q18 10 30.5 25.5t12.5 33.5q0 10 -1 20.5t-11 20.5v-2q-14 23 -23.5 54.5t-9.5 60.5v10q14 12 20 25.5t6 40.5q0 29 -15 47t-38 29q-6 4 -15 5t-16 1q-43 0 -73 -41q-12 -20 -17.5 -47t-5.5 -56z" />
<glyph unicode="&#x201d;" horiz-adv-x="495" d="M96 1145q0 -4 1 -8t1 -7q8 -37 37 -59q4 -20 4 -39q0 -25 -3 -48t-9 -40q-8 -14 -8 -31q0 -31 24.5 -50t53.5 -19q20 0 40.5 12t30.5 35v2q10 29 17.5 63.5t7.5 73.5q0 47 -11.5 90t-36 76t-61.5 33q-31 0 -49 -17q-16 -10 -27.5 -28.5t-11.5 -38.5zM393 1143q0 -4 1 -7 t1 -8q8 -37 37 -59q4 -20 4 -39q0 -25 -3 -48.5t-9 -39.5q-8 -14 -8 -31q0 -31 24.5 -50t53.5 -19q20 0 40.5 12t30.5 35v2q10 29 17.5 63.5t7.5 73.5q0 47 -11.5 90t-36 76t-61.5 33q-31 0 -49 -17q-16 -10 -27.5 -27.5t-11.5 -39.5z" />
<glyph unicode="&#x201e;" horiz-adv-x="495" d="M16 106q0 -4 1 -8t1 -8q8 -35 39 -59q4 -16 4 -39q0 -51 -14 -86q-8 -16 -8 -31q0 -31 24.5 -50.5t53.5 -19.5q20 0 40.5 11.5t30.5 36.5v2q10 29 17.5 63.5t7.5 71.5q0 47 -11.5 91t-35.5 77q-23 31 -62 30q-31 0 -47 -14q-16 -10 -28.5 -28.5t-12.5 -39.5zM313 104 q0 -4 1 -8t1 -8q8 -35 39 -59q4 -16 4 -39q0 -51 -14 -86q-8 -14 -8 -31q0 -31 24.5 -50.5t53.5 -19.5q20 0 40.5 11t30.5 36v3q10 29 17.5 63.5t7.5 73.5q0 45 -11.5 89t-35.5 77q-23 31 -62 30q-14 0 -25 -2t-22 -12q-16 -10 -28.5 -28.5t-12.5 -39.5z" />
<glyph unicode="&#x2022;" horiz-adv-x="667" d="M98 553q0 -53 19.5 -98t54.5 -80t80 -54.5t98 -19.5t99.5 19.5t80 54.5t53 80t19.5 98q0 51 -19.5 97t-53 81t-80 54.5t-99.5 19.5t-98 -19.5t-80 -54.5t-54.5 -81t-19.5 -97z" />
<glyph unicode="&#x2026;" horiz-adv-x="1177" d="M139 53q0 -53 38 -81.5t85 -28.5q41 0 74 20q25 16 35 39t10 47q0 23 -10.5 46.5t-34.5 39.5q-14 8 -33.5 14.5t-40.5 6.5q-41 0 -76 -21q-47 -35 -47 -82zM522 53q0 -53 38 -81.5t85 -28.5q41 0 74 20q25 16 36 39t11 47q0 23 -11.5 46.5t-35.5 39.5q-14 8 -33.5 14.5 t-40.5 6.5q-41 0 -76 -21q-47 -35 -47 -82zM887 51q0 -53 38 -81.5t85 -28.5q18 0 37.5 5t35.5 17q23 14 34 37t11 47q0 25 -11 47.5t-34 38.5q-35 20 -73 21q-41 0 -76 -21q-47 -35 -47 -82z" />
<glyph unicode="&#x202f;" horiz-adv-x="358" />
<glyph unicode="&#x2039;" horiz-adv-x="481" d="M137 299q0 -29 21 -57v2q18 -29 39.5 -64t45 -68.5t45 -64.5t38.5 -51q20 -25 49 -25q20 0 37 13q27 16 26 53q0 17 -10 37l-2 2q-16 25 -33.5 49.5t-34.5 46.5q-23 31 -43 57.5t-41 67.5q-2 2 -2 4v4q49 80 152 201h-2q18 20 18 45q0 31 -24 49q-16 16 -41 16 t-45.5 -24.5t-44 -55t-48 -62.5t-46 -63.5t-35.5 -56.5q-10 -14 -14.5 -28.5t-4.5 -26.5z" />
<glyph unicode="&#x203a;" horiz-adv-x="481" d="M162 39q0 -16 7 -27.5t17 -21.5q16 -14 39 -15q25 0 45 21q41 45 91 113t85 127v-3q18 31 19 56q0 29 -16 55q-14 25 -36 57.5t-45.5 67.5t-47 66.5t-41.5 56.5q-25 25 -54 24q-25 0 -43 -16t-18 -45q0 -18 10 -35q14 -23 30.5 -46t31.5 -44q25 -37 48 -69.5t44 -65.5 q0 -2 1 -3t1 -5t-2 -4q-25 -41 -64 -92.5t-86 -110.5q-10 -10 -13 -21.5t-3 -19.5z" />
<glyph unicode="&#x205f;" horiz-adv-x="448" />
<glyph unicode="&#x20ac;" horiz-adv-x="1282" d="M0 258q0 -37 31 -63v2q18 -18 51 -19q20 0 37 8h-2q4 2 9 5.5t9 7.5q10 10 19 10q6 2 28 2h25q0 -92 33 -164q35 -80 105.5 -133t205.5 -80q94 -18 221 -18q98 0 210 14t237 45q82 23 81 92q0 10 -1 14.5t-1 8.5q-14 41 -33.5 60.5t-54.5 19.5q-10 0 -18 -1t-16 -3 q-125 -33 -223.5 -46.5t-178.5 -13.5q-49 0 -94 4t-88 13q-78 10 -117 39.5t-55 70.5q-16 33 -17 76h91q31 0 53 1t41 3q37 6 55.5 28.5t18.5 47.5v4q0 29 -18.5 51.5t-51.5 22.5h-12q-16 -2 -35 -3.5t-43 -1.5h-37q-18 0 -41 3q10 51 31 102q2 8 6 16.5t10 20.5 q20 0 40.5 -1t41.5 -1q88 0 141 6q39 6 56.5 28.5t17.5 47.5v4q0 29 -17.5 51.5t-52.5 22.5h-12q-12 -2 -28.5 -3.5t-34.5 -1.5q-12 0 -27.5 1t-32.5 1h-6q45 63 100.5 121t111.5 109t113.5 93t106.5 73q4 -2 15 -2q61 0 94 59h-2q25 39 24 80q0 43 -28 72q-20 20 -54 20 q-37 0 -75 -22q-82 -43 -168 -106.5t-169 -141.5t-156 -167t-128 -181h-35q-35 0 -62.5 -1t-43.5 -6q-35 -8 -59.5 -31.5t-32.5 -58.5q0 -4 -1.5 -8t-1.5 -8q0 -37 31 -64v3q18 -18 51 -19q23 0 39 8h-2q8 4 19 15q8 8 16 8h2q-25 -66 -37 -133h-28q-33 0 -59.5 -1t-43.5 -5 q-76 -16 -92 -91q0 -4 -1 -8t-1 -8z" />
<glyph unicode="&#x2122;" horiz-adv-x="1558" d="M33 926q0 -20 14 -38t45 -18h60q0 -61 7 -116.5t19 -94.5v3q6 -27 23.5 -39.5t38.5 -12.5q12 0 20 4q16 6 28.5 18.5t12.5 33.5q0 4 -1 8t-1 8q-10 35 -17.5 86t-9.5 102h41q20 0 39 -2h62q31 0 47 19v-17q-2 -27 -2 -59v-66v-45q0 -23 2 -41q0 -23 14 -38t31 -23 q6 -2 11 -3t13 -1q16 0 29.5 6t24.5 23q14 18 33.5 43.5t33.5 40.5q23 23 45.5 46t38.5 46q16 20 27 20h8q4 -14 8 -24.5t8 -18.5h-2q12 -41 33 -78q20 -33 62 -32q31 2 50 19t36 40v-2q29 31 45 45q10 10 23.5 21.5t23.5 19.5q2 2 4 3t4 3l-2 -2q35 23 47 23l4 -9 q10 -43 27.5 -82.5t46.5 -72.5q23 -23 49.5 -32t54.5 -9q41 0 78 14v-2q49 12 76 19q12 4 22.5 5t16.5 3l1 -1t3 -1t7 -1t7 -1q16 4 30.5 14t22.5 20q12 12 13 33q0 10 -5 20.5t-20 18.5v-2q-20 16 -57 16q-25 -4 -69 -15t-89 -26q-6 0 -14 -1t-19 -1q-10 0 -18 7 q-14 23 -26.5 55.5t-20.5 68.5q-23 90 -101 91q-63 0 -137 -62q-23 -16 -50.5 -38.5t-47.5 -41.5q-6 16 -12 33.5t-13 32.5q-16 35 -38.5 47t-47.5 12h-10q-4 0 -14 -2l2 2q-31 -6 -63.5 -27.5t-51.5 -46.5l-22 -20q-10 -12 -22.5 -24.5l-22.5 -22.5l-2 -2v12q0 59 6 109v6 q0 29 -18.5 42t-41.5 13q-18 0 -34.5 -8t-24.5 -31q-12 27 -43 29q-27 4 -63.5 6t-71.5 2h-15q0 33 5.5 74t12.5 83t15 81t19 67l-2 -2q0 2 4 6q6 8 10 14.5t4 22.5q0 39 -39 60q-16 8 -31 8q-16 0 -30.5 -9.5t-22.5 -27.5q-4 -8 -4 -10q-4 -4 -9 -12.5t-1 -4.5 q-8 -12 -15 -30v-7q0 -10 5 -18q-20 -72 -29.5 -152.5t-11.5 -142.5h-62q-35 -4 -46 -22.5t-11 -36.5z" />
<glyph unicode="&#x25fc;" horiz-adv-x="757" d="M0 0v758h758v-758h-758z" />
<glyph unicode="&#xfb01;" horiz-adv-x="1427" d="M57 582q0 -35 22.5 -61.5t67.5 -26.5h5q47 0 90 6q-4 -63 -6.5 -135t-2.5 -150q0 -162 13.5 -322.5t48.5 -277.5q27 -88 96 -127q23 -14 55 -14q35 0 70 30q29 29 29 62q0 25 -15 51q-14 25 -24 35q-18 14 -25 33q-12 31 -22 86t-17.5 127.5t-11.5 157.5t-4 175 q0 70 2 142.5t10 144.5q16 0 27 2q43 4 90 9.5t96 11.5q-23 -78 -28 -156q-2 -16 -3.5 -32.5t-1.5 -39.5q0 -70 13 -114q27 -96 75 -137.5t132 -41.5q49 0 114 17q41 10 92.5 27.5t104.5 35.5q57 23 108.5 38.5t83.5 19.5q49 6 69 33.5t20 58.5v4q-2 37 -26 65.5t-73 28.5 h-4q-49 0 -121.5 -24.5t-142.5 -53.5q-45 -16 -84 -30.5t-68 -18.5q-12 -4 -22 -4h-17q-39 0 -51 43q-4 16 -6 39t-2 47v35q4 66 25.5 135.5t44.5 112.5q8 14 8 28t-5 24.5t-14 23.5l2 -3q-10 20 -28.5 34t-48.5 14q-4 0 -7.5 -1t-7.5 -1q-84 -10 -165.5 -18.5t-153.5 -16.5 q16 94 39.5 178t58.5 156q18 35 43 70.5t47 58.5q35 35 74 58t68 26h4q25 0 34 -31v2q0 -2 1 -3l2 -1q2 -6 2 -15q0 -12 6 -24l-2 2q6 -35 28.5 -52.5t53.5 -17.5q4 0 6 1t4 1q31 0 57.5 19.5t36.5 54.5q2 10 2 39v16q0 10 -2 21v-2q-2 33 -17.5 66.5t-43 60t-65.5 43 t-87 16.5q-47 0 -92 -15.5t-85 -38t-73 -48t-53 -45.5q-35 -37 -65.5 -82t-59.5 -99q-47 -96 -78 -208.5t-47 -229.5q-12 -2 -24.5 -3t-24.5 -1q-18 -2 -42 -4l-24 -2h2q-45 -6 -67.5 -35t-22.5 -59v-4z" />
<glyph unicode="&#xfb02;" horiz-adv-x="1714" d="M57 582q0 -35 22.5 -61.5t67.5 -26.5h5q45 0 92 6q-6 -63 -8.5 -135t-2.5 -150q0 -80 3.5 -162t10.5 -159.5t19.5 -149.5t28.5 -129q29 -88 98 -127q23 -14 58 -14q33 0 69 30q27 27 27 62q0 23 -12 51q-10 18 -27 35q-18 14 -25 33q-12 31 -21 86t-17.5 127.5 t-12.5 157.5t-4 175q0 70 2 142.5t10 142.5q74 8 156 18.5t162 20.5q-2 -23 -2 -45v-43v-14q0 -195 49 -326t178 -184q39 -16 80 -22.5t84 -6.5q61 0 124.5 11.5t125 26.5t117 33.5t98.5 34.5v-2q10 4 18 8.5t19 8.5q39 14 55 38.5t16 53.5q0 19 -8 33v-2q-10 29 -33.5 47 t-54.5 18q-20 0 -37 -8h2q-104 -39 -219 -71.5t-211 -32.5q-12 0 -25.5 1t-25.5 3q-14 4 -30.5 11t-26.5 15q63 68 129.5 156t113.5 197q41 92 63.5 211.5t22.5 226.5v26t-2 27q-6 145 -51 219t-113 82l5 -2q-10 4 -15 4h-10q-78 0 -160 -82v29v16q0 10 -2 21v-2 q-2 33 -17.5 66.5t-43 60t-66.5 43t-88 16.5q-47 0 -93 -15.5t-86 -38t-73 -48t-53 -45.5q-35 -37 -65.5 -82t-59.5 -99q-47 -96 -77.5 -208.5t-47.5 -229.5q-12 -2 -25.5 -3t-25.5 -1q-16 -2 -41 -4l-25 -2h2q-45 -6 -67.5 -35t-22.5 -59v-4zM465 713q16 94 39.5 178 t58.5 156q18 35 43 70.5t47 58.5q35 35 75 58t69 26h4q25 0 35 -31v2q0 -2 1 -3l1 -1q2 -6 2 -15q0 -12 6 -24l-2 2q6 -35 28.5 -52.5t53.5 -17.5q4 0 6 1t6 1q16 0 23 2q-4 -4 -5 -8q0 -2 -4 -6q-47 -66 -88.5 -160t-70.5 -205q-53 -4 -107.5 -9t-107.5 -11 q-57 -8 -113 -12zM946 446v21q2 72 16.5 147.5t36 145t47 128t50.5 97.5q23 35 39 50.5t26 15.5q20 -10 27 -101v-22q0 -45 -5 -95.5t-14.5 -98.5t-21 -91t-23.5 -70q-29 -72 -72.5 -134t-93.5 -120q-12 57 -12 127z" />
</font>
</defs>
</svg>
